# 3ds Max Wavefront OBJ Exporter v0.97b - (c)2007 guruware
# File Created: 16.02.2019 08:04:27

#
# object wing_top
#

v  -0.747784435749 0.218376487494 0.491040110588
v  -0.605736732483 -0.098627626896 0.172962009907
v  -0.458475261927 -0.063108086586 0.091508239508
v  -0.304739177227 -0.018798530102 0.047052145004
v  -0.148569494486 0.004026085138 -0.001946270466
v  -0.038722157478 0.033298671246 -0.014561146498
v  -0.740210652351 0.365519553423 0.619062781334
v  -0.649713397026 0.446934700012 0.545252323151
v  -0.514469206333 0.491995751858 0.449272453785
v  -0.362949043512 0.457882165909 0.326412618160
v  -0.195151478052 0.363862395287 0.205172032118
v  -0.040079265833 0.212571442127 0.082425951958
# 12 vertices

vn 0.637661874294 -0.425863415003 0.641893804073
vn 0.540343403816 -0.424360036850 0.726599991322
vn 0.663611054420 -0.424208939075 0.616171360016
vn 0.663611054420 -0.424208939075 0.616171360016
vn 0.771145582199 -0.440024644136 0.460122704506
vn 0.637661874294 -0.425863415003 0.641893804073
vn 0.540343403816 -0.424360036850 0.726599991322
vn 0.450762957335 -0.433436483145 0.780349731445
vn 0.567298948765 -0.419836074114 0.708455801010
vn 0.567298948765 -0.419836074114 0.708455801010
vn 0.663611054420 -0.424208939075 0.616171360016
vn 0.540343403816 -0.424360036850 0.726599991322
vn 0.450762957335 -0.433436483145 0.780349731445
vn 0.347343325615 -0.438793480396 0.828741788864
vn 0.452776372433 -0.435217499733 0.778189778328
vn 0.452776372433 -0.435217499733 0.778189778328
vn 0.567298948765 -0.419836074114 0.708455801010
vn 0.450762957335 -0.433436483145 0.780349731445
vn 0.347343325615 -0.438793480396 0.828741788864
vn 0.274088263512 -0.452211648226 0.848752140999
vn 0.322449803352 -0.446259945631 0.834792315960
vn 0.322449803352 -0.446259945631 0.834792315960
vn 0.452776372433 -0.435217499733 0.778189778328
vn 0.347343325615 -0.438793480396 0.828741788864
vn 0.274088263512 -0.452211648226 0.848752140999
vn 0.221864357591 -0.462672948837 0.858318090439
vn 0.224814116955 -0.463677287102 0.857007563114
vn 0.224814116955 -0.463677287102 0.857007563114
vn 0.322449803352 -0.446259945631 0.834792315960
vn 0.274088263512 -0.452211648226 0.848752140999
# 30 vertex normals

vt 0.172000527382 0.444496572018 0.000000000000
vt 0.532240331173 0.465290009975 0.000000000000
vt 0.029597215354 0.582752406597 0.000000000000
vt 0.029667764902 0.480384379625 0.000000000000
vt 0.570518612862 0.572833836079 0.000000000000
vt 0.071794539690 0.698582351208 0.000000000000
vt 0.601830661297 0.691408395767 0.000000000000
vt 0.177892565727 0.798300266266 0.000000000000
vt 0.640115678310 0.808224797249 0.000000000000
vt 0.311817348003 0.891002118587 0.000000000000
vt 0.662200212479 0.911505401134 0.000000000000
vt 0.508752226830 0.950195789337 0.000000000000
# 12 texture coords

g wing_top
f 1/1/1 2/2/2 8/3/3 
f 8/3/4 7/4/5 1/1/6 
f 2/2/7 3/5/8 9/6/9 
f 9/6/10 8/3/11 2/2/12 
f 3/5/13 4/7/14 10/8/15 
f 10/8/16 9/6/17 3/5/18 
f 4/7/19 5/9/20 11/10/21 
f 11/10/22 10/8/23 4/7/24 
f 5/9/25 6/11/26 12/12/27 
f 12/12/28 11/10/29 5/9/30 
# 10 faces

#
# object wing_bottom
#

v  -0.627393245697 -0.871128976345 -0.124722361565
v  -0.499910771847 -0.859398603439 -0.153585195541
v  -0.358942568302 -0.656895577908 -0.158297002316
v  -0.192689850926 -0.631044149399 -0.216938108206
v  -0.043666332960 -0.087181419134 -0.090484112501
v  -0.632493615150 -0.196213006973 0.066659331322
v  -0.505687773228 0.023830816150 0.099560439587
v  -0.356523633003 0.032743602991 0.060155957937
v  -0.187979683280 0.049525111914 0.005612313747
v  -0.038442492485 0.058359727263 -0.032720744610
# 10 vertices

vn 0.234236359596 -0.266178637743 0.935030698776
vn 0.281176567078 -0.269028306007 0.921175122261
vn 0.250791668892 -0.264655888081 0.931161046028
vn 0.250791668892 -0.264655888081 0.931161046028
vn 0.215777069330 -0.264871507883 0.939831614494
vn 0.234236359596 -0.266178637743 0.935030698776
vn 0.281176567078 -0.269028306007 0.921175122261
vn 0.396662771702 -0.281487792730 0.873740971088
vn 0.299613386393 -0.276493132114 0.913117408752
vn 0.299613386393 -0.276493132114 0.913117408752
vn 0.250791668892 -0.264655888081 0.931161046028
vn 0.281176567078 -0.269028306007 0.921175122261
vn 0.396662771702 -0.281487792730 0.873740971088
vn 0.352267593145 -0.295016139746 0.888185262680
vn 0.290353924036 -0.295258760452 0.910229027271
vn 0.290353924036 -0.295258760452 0.910229027271
vn 0.299613386393 -0.276493132114 0.913117408752
vn 0.396662771702 -0.281487792730 0.873740971088
vn 0.352267593145 -0.295016139746 0.888185262680
vn 0.536705374718 -0.327834427357 0.777477860451
vn 0.293259680271 -0.307502776384 0.905229687691
vn 0.293259680271 -0.307502776384 0.905229687691
vn 0.290353924036 -0.295258760452 0.910229027271
vn 0.352267593145 -0.295016139746 0.888185262680
# 24 vertex normals

vt 0.961491942406 0.201067015529 0.000000000000
vt 0.926442384720 0.291900604963 0.000000000000
vt 0.281795173883 0.055390074849 0.000000000000
vt 0.469241410494 0.020468384027 0.000000000000
vt 0.751629769802 0.350132197142 0.000000000000
vt 0.244707003236 0.164150431752 0.000000000000
vt 0.700475394726 0.472647666931 0.000000000000
vt 0.199021831155 0.288672387600 0.000000000000
vt 0.268634766340 0.438634812832 0.000000000000
vt 0.158788844943 0.398334026337 0.000000000000
# 10 texture coords

g wing_bottom
f 13/13/31 14/14/32 19/15/33 
f 19/15/34 18/16/35 13/13/36 
f 14/14/37 15/17/38 20/18/39 
f 20/18/40 19/15/41 14/14/42 
f 15/17/43 16/19/44 21/20/45 
f 21/20/46 20/18/47 15/17/48 
f 16/19/49 17/21/50 22/22/51 
f 22/22/52 21/20/53 16/19/54 
# 8 faces

#
# object body
#

#
# object wing_top001
#

v  0.747784435749 0.218376576900 0.491040140390
v  0.605736732483 -0.098627626896 0.172962069511
v  0.458475261927 -0.063108146191 0.091508299112
v  0.304739177227 -0.018798530102 0.047052145004
v  0.148569494486 0.004026085138 -0.001946240664
v  0.038722157478 0.033298641443 -0.014561116695
v  0.740210652351 0.365519672632 0.619062781334
v  0.649713397026 0.446934759617 0.545252323151
v  0.514469206333 0.491995841265 0.449272364378
v  0.362949043512 0.457882255316 0.326412588358
v  0.195151478052 0.363862425089 0.205172002316
v  0.040079265833 0.212571471930 0.082425951958
# 12 vertices

vn -0.637661874294 -0.425863385201 0.641893863678
vn -0.540343403816 -0.424359977245 0.726600050926
vn -0.663611054420 -0.424208939075 0.616171419621
vn -0.663611054420 -0.424208939075 0.616171419621
vn -0.771145582199 -0.440024644136 0.460122793913
vn -0.637661874294 -0.425863385201 0.641893863678
vn -0.540343403816 -0.424359977245 0.726600050926
vn -0.450762957335 -0.433436453342 0.780349731445
vn -0.567298948765 -0.419836014509 0.708455920219
vn -0.567298948765 -0.419836014509 0.708455920219
vn -0.663611054420 -0.424208939075 0.616171419621
vn -0.540343403816 -0.424359977245 0.726600050926
vn -0.450762957335 -0.433436453342 0.780349731445
vn -0.347343325615 -0.438793420792 0.828741848469
vn -0.452776372433 -0.435217440128 0.778189778328
vn -0.452776372433 -0.435217440128 0.778189778328
vn -0.567298948765 -0.419836014509 0.708455920219
vn -0.450762957335 -0.433436453342 0.780349731445
vn -0.347343325615 -0.438793420792 0.828741848469
vn -0.274088263512 -0.452211588621 0.848752200603
vn -0.322449803352 -0.446259886026 0.834792375565
vn -0.322449803352 -0.446259886026 0.834792375565
vn -0.452776372433 -0.435217440128 0.778189778328
vn -0.347343325615 -0.438793420792 0.828741848469
vn -0.274088263512 -0.452211588621 0.848752200603
vn -0.221864357591 -0.462672889233 0.858318150043
vn -0.224814116955 -0.463677227497 0.857007622719
vn -0.224814116955 -0.463677227497 0.857007622719
vn -0.322449803352 -0.446259886026 0.834792375565
vn -0.274088263512 -0.452211588621 0.848752200603
# 30 vertex normals

vt 0.172000527382 0.444496572018 0.000000000000
vt 0.532240331173 0.465290009975 0.000000000000
vt 0.029597215354 0.582752406597 0.000000000000
vt 0.029667764902 0.480384379625 0.000000000000
vt 0.570518612862 0.572833836079 0.000000000000
vt 0.071794539690 0.698582351208 0.000000000000
vt 0.601830661297 0.691408395767 0.000000000000
vt 0.177892565727 0.798300266266 0.000000000000
vt 0.640115678310 0.808224797249 0.000000000000
vt 0.311817348003 0.891002118587 0.000000000000
vt 0.662200212479 0.911505401134 0.000000000000
vt 0.508752226830 0.950195789337 0.000000000000
# 12 texture coords

g wing_top001
f 30/25/57 24/24/56 23/23/55 
f 23/23/60 29/26/59 30/25/58 
f 31/28/63 25/27/62 24/24/61 
f 24/24/66 30/25/65 31/28/64 
f 32/30/69 26/29/68 25/27/67 
f 25/27/72 31/28/71 32/30/70 
f 33/32/75 27/31/74 26/29/73 
f 26/29/78 32/30/77 33/32/76 
f 34/34/81 28/33/80 27/31/79 
f 27/31/84 33/32/83 34/34/82 
# 10 faces

#
# object wing_bottom001
#

v  0.627393245697 -0.871128916740 -0.124722242355
v  0.499910771847 -0.859398603439 -0.153585135937
v  0.358942568302 -0.656895577908 -0.158296942711
v  0.192689850926 -0.631044149399 -0.216938048601
v  0.043666332960 -0.087181396782 -0.090484082699
v  0.632493615150 -0.196212977171 0.066659331322
v  0.505687773228 0.023830823600 0.099560439587
v  0.356523633003 0.032743610442 0.060155957937
v  0.187979683280 0.049525119364 0.005612313747
v  0.038442492485 0.058359764516 -0.032720744610
# 10 vertices

vn -0.234236359596 -0.266178548336 0.935030698776
vn -0.281176567078 -0.269028216600 0.921175181866
vn -0.250791668892 -0.264655828476 0.931161105633
vn -0.250791668892 -0.264655828476 0.931161105633
vn -0.215777069330 -0.264871418476 0.939831674099
vn -0.234236359596 -0.266178548336 0.935030698776
vn -0.281176567078 -0.269028216600 0.921175181866
vn -0.396662771702 -0.281487703323 0.873741030693
vn -0.299613386393 -0.276493012905 0.913117468357
vn -0.299613386393 -0.276493012905 0.913117468357
vn -0.250791668892 -0.264655828476 0.931161105633
vn -0.281176567078 -0.269028216600 0.921175181866
vn -0.396662771702 -0.281487703323 0.873741030693
vn -0.352267593145 -0.295016050339 0.888185322285
vn -0.290353924036 -0.295258671045 0.910229086876
vn -0.290353924036 -0.295258671045 0.910229086876
vn -0.299613386393 -0.276493012905 0.913117468357
vn -0.396662771702 -0.281487703323 0.873741030693
vn -0.352267593145 -0.295016050339 0.888185322285
vn -0.536705374718 -0.327834367752 0.777477920055
vn -0.293259680271 -0.307502686977 0.905229747295
vn -0.293259680271 -0.307502686977 0.905229747295
vn -0.290353924036 -0.295258671045 0.910229086876
vn -0.352267593145 -0.295016050339 0.888185322285
# 24 vertex normals

vt 0.961491942406 0.201067015529 0.000000000000
vt 0.926442384720 0.291900604963 0.000000000000
vt 0.281795173883 0.055390074849 0.000000000000
vt 0.469241410494 0.020468384027 0.000000000000
vt 0.751629769802 0.350132197142 0.000000000000
vt 0.244707003236 0.164150431752 0.000000000000
vt 0.700475394726 0.472647666931 0.000000000000
vt 0.199021831155 0.288672387600 0.000000000000
vt 0.268634766340 0.438634812832 0.000000000000
vt 0.158788844943 0.398334026337 0.000000000000
# 10 texture coords

g wing_bottom001
f 41/37/87 36/36/86 35/35/85 
f 35/35/90 40/38/89 41/37/88 
f 42/40/93 37/39/92 36/36/91 
f 36/36/96 41/37/95 42/40/94 
f 43/42/99 38/41/98 37/39/97 
f 37/39/102 42/40/101 43/42/100 
f 44/44/105 39/43/104 38/41/103 
f 38/41/108 43/42/107 44/44/106 
# 8 faces

