# 3ds Max Wavefront OBJ Exporter v0.97b - (c)2007 guruware
# File Created: 16.02.2019 08:06:25

#
# object wing_top
#

#
# object wing_bottom
#

#
# object body
#

v  0.048046335578 0.262763530016 0.028826255351
v  0.056162253022 0.231692865491 0.085390195251
v  -0.056162238121 0.231692865491 0.085390187800
v  -0.048046320677 0.262763559818 0.028826249763
v  0.000000007893 0.267945736647 0.016876066104
v  0.043789066374 0.215788900852 0.008647069335
v  0.031223701313 0.200777307153 0.056273207068
v  -0.031223695725 0.200777322054 0.056273210794
v  -0.046484149992 0.215788900852 0.008647060022
v  0.000000009313 0.222744852304 -0.004437467083
v  0.052614811808 0.115500733256 -0.041780639440
v  0.030973909423 0.088772714138 0.013959459960
v  -0.030973905697 0.088772714138 0.013959459960
v  -0.055309880525 0.115500763059 -0.041780646890
v  0.000000005484 0.123540982604 -0.054764389992
v  0.052268475294 -0.035052031279 -0.115858472884
v  0.026134237647 -0.060509651899 -0.082977972925
v  -0.026134232059 -0.060509651899 -0.082977972925
v  -0.046878270805 -0.035052031279 -0.115858472884
v  0.000000005849 -0.025579541922 -0.132043868303
v  0.023743001744 -0.131138950586 -0.156096220016
v  -0.023743005469 -0.131138950586 -0.156096220016
v  0.000000004288 -0.129104852676 -0.176096260548
v  0.052376620471 0.268056303263 0.092448309064
v  0.048026129603 0.300037145615 0.048141501844
v  0.000000007860 0.291135936975 0.030596628785
v  -0.048026125878 0.300037145615 0.048141494393
v  -0.052376613021 0.268056303263 0.092448309064
v  0.067752040923 0.291244477034 0.070667847991
v  0.076082013547 0.246018812060 0.051835261285
v  -0.067752040923 0.291244506836 0.070667840540
v  -0.076082013547 0.246018812060 0.051835257560
v  0.000000005494 0.271389931440 0.099694825709
v  0.000000003604 0.300757765770 0.080681033432
v  0.000000003516 0.308970838785 0.051620587707
v  -0.000000001333 -0.148315459490 -0.160879939795
v  0.000000003075 -0.063164234161 -0.078459590673
v  0.000000003646 0.086437508464 0.018648974597
v  0.000000005581 0.198423415422 0.061575174332
v  0.000000003690 0.229432314634 0.090733230114
# 40 vertices

vn -0.499530822039 0.374192059040 -0.781312644482
vn 0.000000074354 0.467829704285 -0.883818745613
vn 0.006425115280 0.434037208557 -0.900872170925
vn 0.006425115280 0.434037208557 -0.900872170925
vn -0.819704830647 0.114769510925 -0.561170279980
vn -0.499530822039 0.374192059040 -0.781312644482
vn 0.503035306931 0.363472700119 -0.784119367599
vn 0.808685302734 0.112724356353 -0.577339887619
vn 0.006425115280 0.434037208557 -0.900872170925
vn 0.006425115280 0.434037208557 -0.900872170925
vn 0.000000074354 0.467829704285 -0.883818745613
vn 0.503035306931 0.363472700119 -0.784119367599
vn 0.572922766209 -0.582941293716 0.576141595840
vn 0.630432367325 -0.358096539974 0.688710391521
vn 0.895970046520 0.201849460602 -0.395593822002
vn 0.895970046520 0.201849460602 -0.395593822002
vn 0.808685302734 0.112724356353 -0.577339887619
vn 0.572922766209 -0.582941293716 0.576141595840
vn -0.561665832996 -0.579509377480 0.590508699417
vn -0.819704830647 0.114769510925 -0.561170279980
vn -0.901966035366 0.192818269134 -0.386365592480
vn -0.901966035366 0.192818269134 -0.386365592480
vn -0.616330564022 -0.362993240356 0.698836684227
vn -0.561665832996 -0.579509377480 0.590508699417
vn 0.006425115280 0.434037208557 -0.900872170925
vn 0.006533243693 0.456210047007 -0.889848232269
vn -0.901966035366 0.192818269134 -0.386365592480
vn -0.901966035366 0.192818269134 -0.386365592480
vn -0.819704830647 0.114769510925 -0.561170279980
vn 0.006425115280 0.434037208557 -0.900872170925
vn 0.006425115280 0.434037208557 -0.900872170925
vn 0.808685302734 0.112724356353 -0.577339887619
vn 0.895970046520 0.201849460602 -0.395593822002
vn 0.895970046520 0.201849460602 -0.395593822002
vn 0.006533243693 0.456210047007 -0.889848232269
vn 0.006425115280 0.434037208557 -0.900872170925
vn 0.895970046520 0.201849460602 -0.395593822002
vn 0.630432367325 -0.358096539974 0.688710391521
vn 0.567946672440 -0.514016270638 0.642825007439
vn 0.567946672440 -0.514016270638 0.642825007439
vn 0.945764899254 0.051188513637 -0.320793569088
vn 0.895970046520 0.201849460602 -0.395593822002
vn -0.901966035366 0.192818269134 -0.386365592480
vn -0.931580901146 0.061037719250 -0.358373343945
vn -0.599097609520 -0.507799506187 0.619049131870
vn -0.599097609520 -0.507799506187 0.619049131870
vn -0.616330564022 -0.362993240356 0.698836684227
vn -0.901966035366 0.192818269134 -0.386365592480
vn -0.901966035366 0.192818269134 -0.386365592480
vn 0.006533243693 0.456210047007 -0.889848232269
vn -0.014976852573 0.415455222130 -0.909490406513
vn -0.014976852573 0.415455222130 -0.909490406513
vn -0.931580901146 0.061037719250 -0.358373343945
vn -0.901966035366 0.192818269134 -0.386365592480
vn 0.895970046520 0.201849460602 -0.395593822002
vn 0.945764899254 0.051188513637 -0.320793569088
vn -0.014976852573 0.415455222130 -0.909490406513
vn -0.014976852573 0.415455222130 -0.909490406513
vn 0.006533243693 0.456210047007 -0.889848232269
vn 0.895970046520 0.201849460602 -0.395593822002
vn 0.945764899254 0.051188513637 -0.320793569088
vn 0.567946672440 -0.514016270638 0.642825007439
vn 0.833696424961 -0.533110260963 -0.144027084112
vn -0.599097609520 -0.507799506187 0.619049131870
vn -0.931580901146 0.061037719250 -0.358373343945
vn -0.844443619251 -0.515290617943 -0.146255433559
vn -0.931580901146 0.061037719250 -0.358373343945
vn -0.014976852573 0.415455222130 -0.909490406513
vn -0.005080817267 -0.153342723846 -0.988160133362
vn -0.005080817267 -0.153342723846 -0.988160133362
vn -0.844443619251 -0.515290617943 -0.146255433559
vn -0.931580901146 0.061037719250 -0.358373343945
vn 0.945764899254 0.051188513637 -0.320793569088
vn 0.833696424961 -0.533110260963 -0.144027084112
vn -0.005080817267 -0.153342723846 -0.988160133362
vn -0.005080817267 -0.153342723846 -0.988160133362
vn -0.014976852573 0.415455222130 -0.909490406513
vn 0.945764899254 0.051188513637 -0.320793569088
vn 0.503035306931 0.363472700119 -0.784119367599
vn 0.000000074354 0.467829704285 -0.883818745613
vn 0.000000088779 0.605401158333 -0.795920670033
vn 0.000000088779 0.605401158333 -0.795920670033
vn 0.429098278284 0.807059168816 -0.405623435974
vn 0.503035306931 0.363472700119 -0.784119367599
vn -0.499530822039 0.374192059040 -0.781312644482
vn -0.429098218679 0.807059168816 -0.405623495579
vn 0.000000088779 0.605401158333 -0.795920670033
vn 0.000000088779 0.605401158333 -0.795920670033
vn 0.000000074354 0.467829704285 -0.883818745613
vn -0.499530822039 0.374192059040 -0.781312644482
vn 0.429098278284 0.807059168816 -0.405623435974
vn 0.760086119175 0.601359724998 0.246243268251
vn 0.979433536530 -0.144829452038 -0.140479221940
vn 0.979433536530 -0.144829452038 -0.140479221940
vn 0.503035306931 0.363472700119 -0.784119367599
vn 0.429098278284 0.807059168816 -0.405623435974
vn 0.760086119175 0.601359724998 0.246243268251
vn 0.449915260077 0.163713067770 0.877937674522
vn 0.562286078930 -0.473778843880 0.677767038345
vn 0.562286078930 -0.473778843880 0.677767038345
vn 0.979433536530 -0.144829452038 -0.140479221940
vn 0.760086119175 0.601359724998 0.246243268251
vn -0.465228736401 0.158442378044 0.870895147324
vn -0.763557434082 0.595489561558 0.249744445086
vn -0.983086228371 -0.135178953409 -0.123564392328
vn -0.983086228371 -0.135178953409 -0.123564392328
vn -0.567664146423 -0.467280268669 0.677795410156
vn -0.465228736401 0.158442378044 0.870895147324
vn -0.983086228371 -0.135178953409 -0.123564392328
vn -0.763557434082 0.595489561558 0.249744445086
vn -0.429098218679 0.807059168816 -0.405623495579
vn -0.429098218679 0.807059168816 -0.405623495579
vn -0.499530822039 0.374192059040 -0.781312644482
vn -0.983086228371 -0.135178953409 -0.123564392328
vn 0.562286078930 -0.473778843880 0.677767038345
vn 0.572922766209 -0.582941293716 0.576141595840
vn 0.979433536530 -0.144829452038 -0.140479221940
vn 0.572922766209 -0.582941293716 0.576141595840
vn 0.808685302734 0.112724356353 -0.577339887619
vn 0.979433536530 -0.144829452038 -0.140479221940
vn 0.979433536530 -0.144829452038 -0.140479221940
vn 0.808685302734 0.112724356353 -0.577339887619
vn 0.503035306931 0.363472700119 -0.784119367599
vn -0.567664146423 -0.467280268669 0.677795410156
vn -0.983086228371 -0.135178953409 -0.123564392328
vn -0.561665832996 -0.579509377480 0.590508699417
vn -0.499530822039 0.374192059040 -0.781312644482
vn -0.819704830647 0.114769510925 -0.561170279980
vn -0.983086228371 -0.135178953409 -0.123564392328
vn -0.983086228371 -0.135178953409 -0.123564392328
vn -0.819704830647 0.114769510925 -0.561170279980
vn -0.561665832996 -0.579509377480 0.590508699417
vn -0.465228736401 0.158442378044 0.870895147324
vn -0.000000028120 0.194792747498 0.980844557285
vn 0.000000005372 0.811732530594 0.584029555321
vn 0.000000005372 0.811732530594 0.584029555321
vn -0.763557434082 0.595489561558 0.249744445086
vn -0.465228736401 0.158442378044 0.870895147324
vn 0.000000005372 0.811732530594 0.584029555321
vn -0.000000028120 0.194792747498 0.980844557285
vn 0.449915260077 0.163713067770 0.877937674522
vn 0.449915260077 0.163713067770 0.877937674522
vn 0.760086119175 0.601359724998 0.246243268251
vn 0.000000005372 0.811732530594 0.584029555321
vn -0.429098218679 0.807059168816 -0.405623495579
vn -0.763557434082 0.595489561558 0.249744445086
vn 0.000000005372 0.811732530594 0.584029555321
vn 0.000000005372 0.811732530594 0.584029555321
vn 0.000000045757 0.983157694340 -0.182759791613
vn -0.429098218679 0.807059168816 -0.405623495579
vn 0.000000005372 0.811732530594 0.584029555321
vn 0.760086119175 0.601359724998 0.246243268251
vn 0.429098278284 0.807059168816 -0.405623435974
vn 0.429098278284 0.807059168816 -0.405623435974
vn 0.000000045757 0.983157694340 -0.182759791613
vn 0.000000005372 0.811732530594 0.584029555321
vn 0.429098278284 0.807059168816 -0.405623435974
vn 0.000000088779 0.605401158333 -0.795920670033
vn 0.000000045757 0.983157694340 -0.182759791613
vn -0.429098218679 0.807059168816 -0.405623495579
vn 0.000000045757 0.983157694340 -0.182759791613
vn 0.000000088779 0.605401158333 -0.795920670033
vn -0.599097609520 -0.507799506187 0.619049131870
vn -0.844443619251 -0.515290617943 -0.146255433559
vn -0.000000066729 -0.994299054146 -0.106628179550
vn -0.000000066729 -0.994299054146 -0.106628179550
vn 0.000000009833 -0.621578335762 0.783352196217
vn -0.599097609520 -0.507799506187 0.619049131870
vn -0.000000066729 -0.994299054146 -0.106628179550
vn 0.833696424961 -0.533110260963 -0.144027084112
vn 0.567946672440 -0.514016270638 0.642825007439
vn 0.567946672440 -0.514016270638 0.642825007439
vn 0.000000009833 -0.621578335762 0.783352196217
vn -0.000000066729 -0.994299054146 -0.106628179550
vn -0.599097609520 -0.507799506187 0.619049131870
vn 0.000000009833 -0.621578335762 0.783352196217
vn 0.000000009790 -0.453839391470 0.891083598137
vn 0.000000009790 -0.453839391470 0.891083598137
vn -0.616330564022 -0.362993240356 0.698836684227
vn -0.599097609520 -0.507799506187 0.619049131870
vn 0.000000009790 -0.453839391470 0.891083598137
vn 0.000000009833 -0.621578335762 0.783352196217
vn 0.567946672440 -0.514016270638 0.642825007439
vn 0.567946672440 -0.514016270638 0.642825007439
vn 0.630432367325 -0.358096539974 0.688710391521
vn 0.000000009790 -0.453839391470 0.891083598137
vn -0.561665832996 -0.579509377480 0.590508699417
vn -0.616330564022 -0.362993240356 0.698836684227
vn 0.000000009790 -0.453839391470 0.891083598137
vn 0.000000009790 -0.453839391470 0.891083598137
vn 0.000000014416 -0.534268200397 0.845315158367
vn -0.561665832996 -0.579509377480 0.590508699417
vn 0.000000009790 -0.453839391470 0.891083598137
vn 0.630432367325 -0.358096539974 0.688710391521
vn 0.572922766209 -0.582941293716 0.576141595840
vn 0.572922766209 -0.582941293716 0.576141595840
vn 0.000000014416 -0.534268200397 0.845315158367
vn 0.000000009790 -0.453839391470 0.891083598137
vn -0.561665832996 -0.579509377480 0.590508699417
vn 0.000000014416 -0.534268200397 0.845315158367
vn -0.000000073502 -0.477237164974 0.878774702549
vn -0.000000073502 -0.477237164974 0.878774702549
vn -0.567664146423 -0.467280268669 0.677795410156
vn -0.561665832996 -0.579509377480 0.590508699417
vn -0.000000073502 -0.477237164974 0.878774702549
vn 0.000000014416 -0.534268200397 0.845315158367
vn 0.572922766209 -0.582941293716 0.576141595840
vn 0.572922766209 -0.582941293716 0.576141595840
vn 0.562286078930 -0.473778843880 0.677767038345
vn -0.000000073502 -0.477237164974 0.878774702549
vn -0.567664146423 -0.467280268669 0.677795410156
vn -0.000000073502 -0.477237164974 0.878774702549
vn -0.000000028120 0.194792747498 0.980844557285
vn -0.000000028120 0.194792747498 0.980844557285
vn -0.465228736401 0.158442378044 0.870895147324
vn -0.567664146423 -0.467280268669 0.677795410156
vn 0.562286078930 -0.473778843880 0.677767038345
vn 0.449915260077 0.163713067770 0.877937674522
vn -0.000000028120 0.194792747498 0.980844557285
vn -0.000000028120 0.194792747498 0.980844557285
vn -0.000000073502 -0.477237164974 0.878774702549
vn 0.562286078930 -0.473778843880 0.677767038345
vn -0.844443619251 -0.515290617943 -0.146255433559
vn -0.005080817267 -0.153342723846 -0.988160133362
vn -0.000000066729 -0.994299054146 -0.106628179550
vn 0.833696424961 -0.533110260963 -0.144027084112
vn -0.000000066729 -0.994299054146 -0.106628179550
vn -0.005080817267 -0.153342723846 -0.988160133362
# 228 vertex normals

vt 0.753035724163 0.886721193790 0.000000000000
vt 0.719503402710 0.904906511307 0.000000000000
vt 0.698215723038 0.858432054520 0.000000000000
vt 0.747072219849 0.845933198929 0.000000000000
vt 0.887873291969 0.889981865883 0.000000000000
vt 0.897057652473 0.850141942501 0.000000000000
vt 0.851314008236 0.848109364510 0.000000000000
vt 0.853834033012 0.730627834797 0.000000000000
vt 0.919037878513 0.730813264847 0.000000000000
vt 0.793623924255 0.846300959587 0.000000000000
vt 0.731680870056 0.727377533913 0.000000000000
vt 0.797187447548 0.729494333267 0.000000000000
vt 0.668630838394 0.729503095150 0.000000000000
vt 0.852950096130 0.549025237560 0.000000000000
vt 0.902869582176 0.549864888191 0.000000000000
vt 0.753911137581 0.545082151890 0.000000000000
vt 0.802278757095 0.547512590885 0.000000000000
vt 0.699471175671 0.522570848465 0.000000000000
vt 0.857750117779 0.436367332935 0.000000000000
vt 0.809522569180 0.433996051550 0.000000000000
vt 0.792045414448 0.400712519884 0.000000000000
vt 0.899026036263 0.926988840103 0.000000000000
vt 0.872659087181 0.907634258270 0.000000000000
vt 0.767565429211 0.905359148979 0.000000000000
vt 0.864694416523 0.900047004223 0.000000000000
vt 0.870684146881 0.883238255978 0.000000000000
vt 0.851395368576 0.896499991417 0.000000000000
vt 0.854031205177 0.879422068596 0.000000000000
vt 0.788714826107 0.877313017845 0.000000000000
vt 0.789521098137 0.894520819187 0.000000000000
vt 0.775916635990 0.898116290569 0.000000000000
vt 0.771221458912 0.880404770374 0.000000000000
vt 0.820262610912 0.913165688515 0.000000000000
vt 0.793155193329 0.931439459324 0.000000000000
vt 0.874265789986 0.936673283577 0.000000000000
vt 0.834874987602 0.405823737383 0.000000000000
vt 0.827715158463 0.548432707787 0.000000000000
vt 0.825474500656 0.729990482330 0.000000000000
vt 0.822474241257 0.845734238625 0.000000000000
vt 0.821426272392 0.877491772175 0.000000000000
vt 0.920006930828 0.909254670143 0.000000000000
vt 0.942755639553 0.864461421967 0.000000000000
vt 0.979405701160 0.736816763878 0.000000000000
vt 0.962355971336 0.529134511948 0.000000000000
vt 0.878073632717 0.404535442591 0.000000000000
vt 0.740020632744 0.923756062984 0.000000000000
vt 0.846273779869 0.932400226593 0.000000000000
vt 0.764673650265 0.934609770775 0.000000000000
# 48 texture coords

g body
f 4/1/1 5/2/2 10/3/3 
f 10/3/4 9/4/5 4/1/6 
f 1/5/7 6/6/8 10/42/9 
f 10/42/10 5/41/11 1/5/12 
f 7/7/13 12/8/14 11/9/15 
f 11/9/16 6/6/17 7/7/18 
f 8/10/19 9/4/20 14/11/21 
f 14/11/22 13/12/23 8/10/24 
f 10/3/25 15/13/26 14/11/27 
f 14/11/28 9/4/29 10/3/30 
f 10/42/31 6/6/32 11/9/33 
f 11/9/34 15/43/35 10/42/36 
f 11/9/37 12/8/38 17/14/39 
f 17/14/40 16/15/41 11/9/42 
f 14/11/43 19/16/44 18/17/45 
f 18/17/46 13/12/47 14/11/48 
f 14/11/49 15/13/50 20/18/51 
f 20/18/52 19/16/53 14/11/54 
f 11/9/55 16/15/56 20/44/57 
f 20/44/58 15/43/59 11/9/60 
f 16/15/61 17/14/62 21/19/63 
f 18/17/64 19/16/65 22/20/66 
f 19/16/67 20/18/68 23/21/69 
f 23/21/70 22/20/71 19/16/72 
f 16/15/73 21/19/74 23/45/75 
f 23/45/76 20/44/77 16/15/78 
f 1/5/79 5/41/80 26/22/81 
f 26/22/82 25/23/83 1/5/84 
f 4/1/85 27/24/86 26/46/87 
f 26/46/88 5/2/89 4/1/90 
f 25/23/91 29/25/92 30/26/93 
f 30/26/94 1/5/95 25/23/96 
f 29/25/97 24/27/98 2/28/99 
f 2/28/100 30/26/101 29/25/102 
f 28/30/103 31/31/104 32/32/105 
f 32/32/106 3/29/107 28/30/108 
f 32/32/109 31/31/110 27/24/111 
f 27/24/112 4/1/113 32/32/114 
f 2/28/115 7/7/116 30/26/117 
f 7/7/118 6/6/119 30/26/120 
f 30/26/121 6/6/122 1/5/123 
f 3/29/124 32/32/125 8/10/126 
f 4/1/127 9/4/128 32/32/129 
f 32/32/130 9/4/131 8/10/132 
f 28/30/133 33/33/134 34/34/135 
f 34/34/136 31/31/137 28/30/138 
f 34/47/139 33/33/140 24/27/141 
f 24/27/142 29/25/143 34/47/144 
f 27/24/145 31/31/146 34/34/147 
f 34/34/148 35/48/149 27/24/150 
f 34/47/151 29/25/152 25/23/153 
f 25/23/154 35/35/155 34/47/156 
f 25/23/157 26/22/158 35/35/159 
f 27/24/160 35/48/161 26/46/162 
f 18/17/163 22/20/164 36/36/165 
f 36/36/166 37/37/167 18/17/168 
f 36/36/169 21/19/170 17/14/171 
f 17/14/172 37/37/173 36/36/174 
f 18/17/175 37/37/176 38/38/177 
f 38/38/178 13/12/179 18/17/180 
f 38/38/181 37/37/182 17/14/183 
f 17/14/184 12/8/185 38/38/186 
f 8/10/187 13/12/188 38/38/189 
f 38/38/190 39/39/191 8/10/192 
f 38/38/193 12/8/194 7/7/195 
f 7/7/196 39/39/197 38/38/198 
f 8/10/199 39/39/200 40/40/201 
f 40/40/202 3/29/203 8/10/204 
f 40/40/205 39/39/206 7/7/207 
f 7/7/208 2/28/209 40/40/210 
f 3/29/211 40/40/212 33/33/213 
f 33/33/214 28/30/215 3/29/216 
f 2/28/217 24/27/218 33/33/219 
f 33/33/220 40/40/221 2/28/222 
f 22/20/223 23/21/224 36/36/225 
f 21/19/226 36/36/227 23/45/228 
# 76 faces

#
# object wing_top001
#

#
# object wing_bottom001
#

