# 3ds Max Wavefront OBJ Exporter v0.97b - (c)2007 guruware
# File Created: 16.02.2019 08:04:26

#
# object wing_top
#

v  -0.756852626801 0.455110579729 -0.029845058918
v  -0.583751738071 0.057318687439 -0.167957678437
v  -0.433379143476 0.036302149296 -0.122963503003
v  -0.288999855518 0.032693862915 -0.061111986637
v  -0.136682972312 0.015021324158 -0.020338356495
v  -0.030892923474 0.017854332924 0.022803902626
v  -0.789920568466 0.615828931332 0.071251630783
v  -0.670231163502 0.641255378723 0.118107944727
v  -0.521861910820 0.619986474514 0.167926192284
v  -0.362037599087 0.524786472321 0.180350363255
v  -0.196610257030 0.379347383976 0.172670841217
v  -0.041180506349 0.193066537380 0.126447141171
# 12 vertices

vn -0.362062722445 -0.470918297768 0.804454147816
vn -0.328665018082 -0.459008574486 0.825403153896
vn -0.310952514410 -0.483924359083 0.818000972271
vn -0.310952514410 -0.483924359083 0.818000972271
vn -0.200174033642 -0.550852477551 0.810241937637
vn -0.362062722445 -0.470918297768 0.804454147816
vn -0.328665018082 -0.459008574486 0.825403153896
vn -0.335457175970 -0.457990795374 0.823233187199
vn -0.337596178055 -0.456928968430 0.822948813438
vn -0.337596178055 -0.456928968430 0.822948813438
vn -0.310952514410 -0.483924359083 0.818000972271
vn -0.328665018082 -0.459008574486 0.825403153896
vn -0.335457175970 -0.457990795374 0.823233187199
vn -0.328049659729 -0.466479897499 0.821449875832
vn -0.346314907074 -0.457864463329 0.818795502186
vn -0.346314907074 -0.457864463329 0.818795502186
vn -0.337596178055 -0.456928968430 0.822948813438
vn -0.335457175970 -0.457990795374 0.823233187199
vn -0.328049659729 -0.466479897499 0.821449875832
vn -0.302154481411 -0.488545387983 0.818551182747
vn -0.346106648445 -0.463651031256 0.815621078014
vn -0.346106648445 -0.463651031256 0.815621078014
vn -0.346314907074 -0.457864463329 0.818795502186
vn -0.328049659729 -0.466479897499 0.821449875832
vn -0.302154481411 -0.488545387983 0.818551182747
vn -0.316310763359 -0.496674090624 0.808246433735
vn -0.334921509027 -0.485905855894 0.807293653488
vn -0.334921509027 -0.485905855894 0.807293653488
vn -0.346106648445 -0.463651031256 0.815621078014
vn -0.302154481411 -0.488545387983 0.818551182747
# 30 vertex normals

vt 0.172000527382 0.444496572018 0.000000000000
vt 0.532240331173 0.465290009975 0.000000000000
vt 0.029597215354 0.582752406597 0.000000000000
vt 0.029667764902 0.480384379625 0.000000000000
vt 0.570518612862 0.572833836079 0.000000000000
vt 0.071794539690 0.698582351208 0.000000000000
vt 0.601830661297 0.691408395767 0.000000000000
vt 0.177892565727 0.798300266266 0.000000000000
vt 0.640115678310 0.808224797249 0.000000000000
vt 0.311817348003 0.891002118587 0.000000000000
vt 0.662200212479 0.911505401134 0.000000000000
vt 0.508752226830 0.950195789337 0.000000000000
# 12 texture coords

g wing_top
f 1/1/1 2/2/2 8/3/3 
f 8/3/4 7/4/5 1/1/6 
f 2/2/7 3/5/8 9/6/9 
f 9/6/10 8/3/11 2/2/12 
f 3/5/13 4/7/14 10/8/15 
f 10/8/16 9/6/17 3/5/18 
f 4/7/19 5/9/20 11/10/21 
f 11/10/22 10/8/23 4/7/24 
f 5/9/25 6/11/26 12/12/27 
f 12/12/28 11/10/29 5/9/30 
# 10 faces

#
# object wing_bottom
#

v  -0.668817579746 -0.641753077507 -0.591248869896
v  -0.556358397007 -0.675858497620 -0.532834887505
v  -0.396914660931 -0.535508811474 -0.407210946083
v  -0.233735576272 -0.570498228073 -0.344798028469
v  -0.045513629913 -0.102949999273 -0.051958650351
v  -0.608628511429 -0.004102937877 -0.304990351200
v  -0.478697031736 0.158340364695 -0.155619919300
v  -0.344805359840 0.113819241524 -0.092588305473
v  -0.185171037912 0.069610446692 -0.027579367161
v  -0.034135609865 0.041559889913 0.009134382010
# 10 vertices

vn -0.512515842915 -0.313473254442 0.799413621426
vn -0.471011787653 -0.332808077335 0.816937506199
vn -0.497833222151 -0.317905157804 0.806906819344
vn -0.497833222151 -0.317905157804 0.806906819344
vn -0.528366386890 -0.305707454681 0.792068243027
vn -0.512515842915 -0.313473254442 0.799413621426
vn -0.471011787653 -0.332808077335 0.816937506199
vn -0.361782014370 -0.385734021664 0.848718523979
vn -0.454782277346 -0.346396118402 0.820477247238
vn -0.454782277346 -0.346396118402 0.820477247238
vn -0.497833222151 -0.317905157804 0.806906819344
vn -0.471011787653 -0.332808077335 0.816937506199
vn -0.361782014370 -0.385734021664 0.848718523979
vn -0.391446173191 -0.382943809032 0.836734235287
vn -0.359396010637 -0.388546437025 0.848449349403
vn -0.359396010637 -0.388546437025 0.848449349403
vn -0.454782277346 -0.346396118402 0.820477247238
vn -0.361782014370 -0.385734021664 0.848718523979
vn -0.391446173191 -0.382943809032 0.836734235287
vn -0.507463932037 -0.301325768232 0.807269036770
vn -0.320862293243 -0.393536835909 0.861496508121
vn -0.320862293243 -0.393536835909 0.861496508121
vn -0.359396010637 -0.388546437025 0.848449349403
vn -0.391446173191 -0.382943809032 0.836734235287
# 24 vertex normals

vt 0.961491942406 0.201067015529 0.000000000000
vt 0.926442384720 0.291900604963 0.000000000000
vt 0.281795173883 0.055390074849 0.000000000000
vt 0.469241410494 0.020468384027 0.000000000000
vt 0.751629769802 0.350132197142 0.000000000000
vt 0.244707003236 0.164150431752 0.000000000000
vt 0.700475394726 0.472647666931 0.000000000000
vt 0.199021831155 0.288672387600 0.000000000000
vt 0.268634766340 0.438634812832 0.000000000000
vt 0.158788844943 0.398334026337 0.000000000000
# 10 texture coords

g wing_bottom
f 13/13/31 14/14/32 19/15/33 
f 19/15/34 18/16/35 13/13/36 
f 14/14/37 15/17/38 20/18/39 
f 20/18/40 19/15/41 14/14/42 
f 15/17/43 16/19/44 21/20/45 
f 21/20/46 20/18/47 15/17/48 
f 16/19/49 17/21/50 22/22/51 
f 22/22/52 21/20/53 16/19/54 
# 8 faces

#
# object body
#

#
# object wing_top001
#

v  0.756852626801 0.455110520124 -0.029845029116
v  0.583751738071 0.057318627834 -0.167957633734
v  0.433379143476 0.036302089691 -0.122963443398
v  0.288999855518 0.032693803310 -0.061111956835
v  0.136682972312 0.015021204948 -0.020338356495
v  0.030892923474 0.017854213715 0.022803902626
v  0.789920568466 0.615828871727 0.071251600981
v  0.670231163502 0.641255378723 0.118107914925
v  0.521861910820 0.619986414909 0.167926192284
v  0.362037599087 0.524786472321 0.180350363255
v  0.196610257030 0.379347324371 0.172670841217
v  0.041180506349 0.193066477776 0.126447141171
# 12 vertices

vn 0.362062722445 -0.470918178558 0.804454267025
vn 0.328665018082 -0.459008455276 0.825403273106
vn 0.310952514410 -0.483924239874 0.818001091480
vn 0.310952514410 -0.483924239874 0.818001091480
vn 0.200174033642 -0.550852358341 0.810242056847
vn 0.362062722445 -0.470918178558 0.804454267025
vn 0.328665018082 -0.459008455276 0.825403273106
vn 0.335457175970 -0.457990676165 0.823233306408
vn 0.337596178055 -0.456928849220 0.822948932648
vn 0.337596178055 -0.456928849220 0.822948932648
vn 0.310952514410 -0.483924239874 0.818001091480
vn 0.328665018082 -0.459008455276 0.825403273106
vn 0.335457175970 -0.457990676165 0.823233306408
vn 0.328049659729 -0.466479778290 0.821449995041
vn 0.346314907074 -0.457864344120 0.818795621395
vn 0.346314907074 -0.457864344120 0.818795621395
vn 0.337596178055 -0.456928849220 0.822948932648
vn 0.335457175970 -0.457990676165 0.823233306408
vn 0.328049659729 -0.466479778290 0.821449995041
vn 0.302154481411 -0.488545268774 0.818551301956
vn 0.346106648445 -0.463650912046 0.815621197224
vn 0.346106648445 -0.463650912046 0.815621197224
vn 0.346314907074 -0.457864344120 0.818795621395
vn 0.328049659729 -0.466479778290 0.821449995041
vn 0.302154481411 -0.488545268774 0.818551301956
vn 0.316310763359 -0.496673971415 0.808246552944
vn 0.334921509027 -0.485905736685 0.807293772697
vn 0.334921509027 -0.485905736685 0.807293772697
vn 0.346106648445 -0.463650912046 0.815621197224
vn 0.302154481411 -0.488545268774 0.818551301956
# 30 vertex normals

vt 0.172000527382 0.444496572018 0.000000000000
vt 0.532240331173 0.465290009975 0.000000000000
vt 0.029597215354 0.582752406597 0.000000000000
vt 0.029667764902 0.480384379625 0.000000000000
vt 0.570518612862 0.572833836079 0.000000000000
vt 0.071794539690 0.698582351208 0.000000000000
vt 0.601830661297 0.691408395767 0.000000000000
vt 0.177892565727 0.798300266266 0.000000000000
vt 0.640115678310 0.808224797249 0.000000000000
vt 0.311817348003 0.891002118587 0.000000000000
vt 0.662200212479 0.911505401134 0.000000000000
vt 0.508752226830 0.950195789337 0.000000000000
# 12 texture coords

g wing_top001
f 30/25/57 24/24/56 23/23/55 
f 23/23/60 29/26/59 30/25/58 
f 31/28/63 25/27/62 24/24/61 
f 24/24/66 30/25/65 31/28/64 
f 32/30/69 26/29/68 25/27/67 
f 25/27/72 31/28/71 32/30/70 
f 33/32/75 27/31/74 26/29/73 
f 26/29/78 32/30/77 33/32/76 
f 34/34/81 28/33/80 27/31/79 
f 27/31/84 33/32/83 34/34/82 
# 10 faces

#
# object wing_bottom001
#

v  0.668817579746 -0.641753077507 -0.591248869896
v  0.556358397007 -0.675858557224 -0.532834887505
v  0.396914660931 -0.535508811474 -0.407210886478
v  0.233735576272 -0.570498168468 -0.344797998667
v  0.045513629913 -0.102949984372 -0.051958650351
v  0.608628511429 -0.004102945328 -0.304990381002
v  0.478697031736 0.158340349793 -0.155619949102
v  0.344805359840 0.113819226623 -0.092588335276
v  0.185171037912 0.069610446692 -0.027579396963
v  0.034135609865 0.041559889913 0.009134352207
# 10 vertices

vn 0.512515842915 -0.313473194838 0.799413681030
vn 0.471011787653 -0.332808017731 0.816937565804
vn 0.497833222151 -0.317905068398 0.806906819344
vn 0.497833222151 -0.317905068398 0.806906819344
vn 0.528366386890 -0.305707365274 0.792068243027
vn 0.512515842915 -0.313473194838 0.799413681030
vn 0.471011787653 -0.332808017731 0.816937565804
vn 0.361782014370 -0.385733962059 0.848718523979
vn 0.454782277346 -0.346396028996 0.820477306843
vn 0.454782277346 -0.346396028996 0.820477306843
vn 0.497833222151 -0.317905068398 0.806906819344
vn 0.471011787653 -0.332808017731 0.816937565804
vn 0.361782014370 -0.385733962059 0.848718523979
vn 0.391446173191 -0.382943749428 0.836734235287
vn 0.359396010637 -0.388546377420 0.848449409008
vn 0.359396010637 -0.388546377420 0.848449409008
vn 0.454782277346 -0.346396028996 0.820477306843
vn 0.361782014370 -0.385733962059 0.848718523979
vn 0.391446173191 -0.382943749428 0.836734235287
vn 0.507463932037 -0.301325678825 0.807269096375
vn 0.320862293243 -0.393536746502 0.861496567726
vn 0.320862293243 -0.393536746502 0.861496567726
vn 0.359396010637 -0.388546377420 0.848449409008
vn 0.391446173191 -0.382943749428 0.836734235287
# 24 vertex normals

vt 0.961491942406 0.201067015529 0.000000000000
vt 0.926442384720 0.291900604963 0.000000000000
vt 0.281795173883 0.055390074849 0.000000000000
vt 0.469241410494 0.020468384027 0.000000000000
vt 0.751629769802 0.350132197142 0.000000000000
vt 0.244707003236 0.164150431752 0.000000000000
vt 0.700475394726 0.472647666931 0.000000000000
vt 0.199021831155 0.288672387600 0.000000000000
vt 0.268634766340 0.438634812832 0.000000000000
vt 0.158788844943 0.398334026337 0.000000000000
# 10 texture coords

g wing_bottom001
f 41/37/87 36/36/86 35/35/85 
f 35/35/90 40/38/89 41/37/88 
f 42/40/93 37/39/92 36/36/91 
f 36/36/96 41/37/95 42/40/94 
f 43/42/99 38/41/98 37/39/97 
f 37/39/102 42/40/101 43/42/100 
f 44/44/105 39/43/104 38/41/103 
f 38/41/108 43/42/107 44/44/106 
# 8 faces

