# 3ds Max Wavefront OBJ Exporter v0.97b - (c)2007 guruware
# File Created: 16.02.2019 08:06:27

#
# object wing_top
#

#
# object wing_bottom
#

#
# object body
#

v  0.048046335578 0.259410470724 0.037193469703
v  0.056162253022 0.227600246668 0.093345321715
v  -0.056162238121 0.227600261569 0.093345314264
v  -0.048046320677 0.259410470724 0.037193462253
v  0.000000007899 0.264733254910 0.025302587077
v  0.043789066374 0.212479561567 0.016439294443
v  0.031223701313 0.197101622820 0.063950702548
v  -0.031223695725 0.197101622820 0.063950702548
v  -0.046484149992 0.212479561567 0.016439285129
v  0.000000009313 0.219518080354 0.003397801891
v  0.052614811808 0.112025231123 -0.034173093736
v  0.030973909423 0.085563421249 0.021686039865
v  -0.030973905697 0.085563421249 0.021686039865
v  -0.055309880525 0.112025246024 -0.034173101187
v  0.000000005513 0.119983628392 -0.047207564116
v  0.052268475294 -0.039494484663 -0.105776712298
v  0.026134237647 -0.064146488905 -0.072289526463
v  -0.026134232059 -0.064146488905 -0.072289526463
v  -0.046878270805 -0.039494484663 -0.105776712298
v  0.000000006039 -0.030423134565 -0.122187986970
v  0.023743001744 -0.136345982552 -0.142705440521
v  -0.023743005469 -0.136345982552 -0.142705440521
v  0.000000004661 -0.134983360767 -0.162709131837
v  0.052376620471 0.263787865639 0.100923351943
v  0.048026129603 0.296547710896 0.057189162821
v  0.000000007876 0.287862241268 0.039443373680
v  -0.048026125878 0.296547710896 0.057189159095
v  -0.052376613021 0.263787865639 0.100923359394
v  0.067752040923 0.287364810705 0.079563289881
v  0.076082013547 0.242371156812 0.059985291213
v  -0.067752040923 0.287364810705 0.079563282430
v  -0.076082013547 0.242371156812 0.059985287488
v  0.000000005520 0.266982376575 0.108222052455
v  0.000000003638 0.296707332134 0.089771829545
v  0.000000003545 0.305456161499 0.060858409852
v  -0.000000000949 -0.153592437506 -0.146767050028
v  0.000000003263 -0.066696554422 -0.067713342607
v  0.000000003669 0.083243936300 0.026381962001
v  0.000000005582 0.194698929787 0.069230109453
v  0.000000003700 0.225264146924 0.098654963076
# 40 vertices

vn -0.499460518360 0.384550720453 -0.776311874390
vn 0.000000074386 0.478818982840 -0.877913773060
vn 0.006425639149 0.439177006483 -0.898377716541
vn 0.006425639149 0.439177006483 -0.898377716541
vn -0.818669259548 0.119398213923 -0.561715900898
vn -0.499460518360 0.384550720453 -0.776311874390
vn 0.502958416939 0.373929381371 -0.779236733913
vn 0.807669460773 0.117418698967 -0.577826082706
vn 0.006425639149 0.439177006483 -0.898377716541
vn 0.006425639149 0.439177006483 -0.898377716541
vn 0.000000074386 0.478818982840 -0.877913773060
vn 0.502958416939 0.373929381371 -0.779236733913
vn 0.574196517467 -0.586673378944 0.571062803268
vn 0.631664574146 -0.352811276913 0.690307259560
vn 0.894484519958 0.200259089470 -0.399742126465
vn 0.894484519958 0.200259089470 -0.399742126465
vn 0.807669460773 0.117418698967 -0.577826082706
vn 0.574196517467 -0.586673378944 0.571062803268
vn -0.562905073166 -0.583326816559 0.585549235344
vn -0.818669259548 0.119398213923 -0.561715900898
vn -0.900492310524 0.191315963864 -0.390527695417
vn -0.900492310524 0.191315963864 -0.390527695417
vn -0.617513000965 -0.357668936253 0.700536012650
vn -0.562905073166 -0.583326816559 0.585549235344
vn 0.006425639149 0.439177006483 -0.898377716541
vn 0.006523658987 0.449724137783 -0.893143773079
vn -0.900492310524 0.191315963864 -0.390527695417
vn -0.900492310524 0.191315963864 -0.390527695417
vn -0.818669259548 0.119398213923 -0.561715900898
vn 0.006425639149 0.439177006483 -0.898377716541
vn 0.006425639149 0.439177006483 -0.898377716541
vn 0.807669460773 0.117418698967 -0.577826082706
vn 0.894484519958 0.200259089470 -0.399742126465
vn 0.894484519958 0.200259089470 -0.399742126465
vn 0.006523658987 0.449724137783 -0.893143773079
vn 0.006425639149 0.439177006483 -0.898377716541
vn 0.894484519958 0.200259089470 -0.399742126465
vn 0.631664574146 -0.352811276913 0.690307259560
vn 0.568927049637 -0.498677760363 0.653943896294
vn 0.568927049637 -0.498677760363 0.653943896294
vn 0.944578170776 0.044336907566 -0.325278908014
vn 0.894484519958 0.200259089470 -0.399742126465
vn -0.900492310524 0.191315963864 -0.390527695417
vn -0.930318534374 0.053356051445 -0.362850546837
vn -0.600161015987 -0.493004709482 0.629883587360
vn -0.600161015987 -0.493004709482 0.629883587360
vn -0.617513000965 -0.357668936253 0.700536012650
vn -0.900492310524 0.191315963864 -0.390527695417
vn -0.900492310524 0.191315963864 -0.390527695417
vn 0.006523658987 0.449724137783 -0.893143773079
vn -0.014947191812 0.393518865108 -0.919195115566
vn -0.014947191812 0.393518865108 -0.919195115566
vn -0.930318534374 0.053356051445 -0.362850546837
vn -0.900492310524 0.191315963864 -0.390527695417
vn 0.894484519958 0.200259089470 -0.399742126465
vn 0.944578170776 0.044336907566 -0.325278908014
vn -0.014947191812 0.393518865108 -0.919195115566
vn -0.014947191812 0.393518865108 -0.919195115566
vn 0.006523658987 0.449724137783 -0.893143773079
vn 0.894484519958 0.200259089470 -0.399742126465
vn 0.944578170776 0.044336907566 -0.325278908014
vn 0.568927049637 -0.498677760363 0.653943896294
vn 0.833188056946 -0.537542462349 -0.129791423678
vn -0.600161015987 -0.493004709482 0.629883587360
vn -0.930318534374 0.053356051445 -0.362850546837
vn -0.843965411186 -0.519740104675 -0.132637470961
vn -0.930318534374 0.053356051445 -0.362850546837
vn -0.014947191812 0.393518865108 -0.919195115566
vn -0.005099628121 -0.187798440456 -0.982194483280
vn -0.005099628121 -0.187798440456 -0.982194483280
vn -0.843965411186 -0.519740104675 -0.132637470961
vn -0.930318534374 0.053356051445 -0.362850546837
vn 0.944578170776 0.044336907566 -0.325278908014
vn 0.833188056946 -0.537542462349 -0.129791423678
vn -0.005099628121 -0.187798440456 -0.982194483280
vn -0.005099628121 -0.187798440456 -0.982194483280
vn -0.014947191812 0.393518865108 -0.919195115566
vn 0.944578170776 0.044336907566 -0.325278908014
vn 0.502958416939 0.373929381371 -0.779236733913
vn 0.000000074386 0.478818982840 -0.877913773060
vn 0.000000076290 0.617359340191 -0.786681473255
vn 0.000000076290 0.617359340191 -0.786681473255
vn 0.429413676262 0.813536882401 -0.392124712467
vn 0.502958416939 0.373929381371 -0.779236733913
vn -0.499460518360 0.384550720453 -0.776311874390
vn -0.429413616657 0.813536882401 -0.392124772072
vn 0.000000076290 0.617359340191 -0.786681473255
vn 0.000000076290 0.617359340191 -0.786681473255
vn 0.000000074386 0.478818982840 -0.877913773060
vn -0.499460518360 0.384550720453 -0.776311874390
vn 0.429413676262 0.813536882401 -0.392124712467
vn 0.760193645954 0.597007811069 0.256295442581
vn 0.979426562786 -0.142612606287 -0.142776787281
vn 0.979426562786 -0.142612606287 -0.142776787281
vn 0.502958416939 0.373929381371 -0.779236733913
vn 0.429413676262 0.813536882401 -0.392124712467
vn 0.760193645954 0.597007811069 0.256295442581
vn 0.449598163366 0.149335622787 0.880659103394
vn 0.562411785126 -0.483094871044 0.671053171158
vn 0.562411785126 -0.483094871044 0.671053171158
vn 0.979426562786 -0.142612606287 -0.142776787281
vn 0.760193645954 0.597007811069 0.256295442581
vn -0.465312272310 0.144041895866 0.873347938061
vn -0.763732552528 0.590959846973 0.259767442942
vn -0.983109533787 -0.133115693927 -0.125602036715
vn -0.983109533787 -0.133115693927 -0.125602036715
vn -0.567918896675 -0.476434409618 0.671177029610
vn -0.465312272310 0.144041895866 0.873347938061
vn -0.983109533787 -0.133115693927 -0.125602036715
vn -0.763732552528 0.590959846973 0.259767442942
vn -0.429413616657 0.813536882401 -0.392124772072
vn -0.429413616657 0.813536882401 -0.392124772072
vn -0.499460518360 0.384550720453 -0.776311874390
vn -0.983109533787 -0.133115693927 -0.125602036715
vn 0.562411785126 -0.483094871044 0.671053171158
vn 0.574196517467 -0.586673378944 0.571062803268
vn 0.979426562786 -0.142612606287 -0.142776787281
vn 0.574196517467 -0.586673378944 0.571062803268
vn 0.807669460773 0.117418698967 -0.577826082706
vn 0.979426562786 -0.142612606287 -0.142776787281
vn 0.979426562786 -0.142612606287 -0.142776787281
vn 0.807669460773 0.117418698967 -0.577826082706
vn 0.502958416939 0.373929381371 -0.779236733913
vn -0.567918896675 -0.476434409618 0.671177029610
vn -0.983109533787 -0.133115693927 -0.125602036715
vn -0.562905073166 -0.583326816559 0.585549235344
vn -0.499460518360 0.384550720453 -0.776311874390
vn -0.818669259548 0.119398213923 -0.561715900898
vn -0.983109533787 -0.133115693927 -0.125602036715
vn -0.983109533787 -0.133115693927 -0.125602036715
vn -0.818669259548 0.119398213923 -0.561715900898
vn -0.562905073166 -0.583326816559 0.585549235344
vn -0.465312272310 0.144041895866 0.873347938061
vn 0.000000016052 0.178004711866 0.984029769897
vn 0.000000008061 0.800828039646 0.598894476891
vn 0.000000008061 0.800828039646 0.598894476891
vn -0.763732552528 0.590959846973 0.259767442942
vn -0.465312272310 0.144041895866 0.873347938061
vn 0.000000008061 0.800828039646 0.598894476891
vn 0.000000016052 0.178004711866 0.984029769897
vn 0.449598163366 0.149335622787 0.880659103394
vn 0.449598163366 0.149335622787 0.880659103394
vn 0.760193645954 0.597007811069 0.256295442581
vn 0.000000008061 0.800828039646 0.598894476891
vn -0.429413616657 0.813536882401 -0.392124772072
vn -0.763732552528 0.590959846973 0.259767442942
vn 0.000000008061 0.800828039646 0.598894476891
vn 0.000000008061 0.800828039646 0.598894476891
vn 0.000000045806 0.986186563969 -0.165638744831
vn -0.429413616657 0.813536882401 -0.392124772072
vn 0.000000008061 0.800828039646 0.598894476891
vn 0.760193645954 0.597007811069 0.256295442581
vn 0.429413676262 0.813536882401 -0.392124712467
vn 0.429413676262 0.813536882401 -0.392124712467
vn 0.000000045806 0.986186563969 -0.165638744831
vn 0.000000008061 0.800828039646 0.598894476891
vn 0.429413676262 0.813536882401 -0.392124712467
vn 0.000000076290 0.617359340191 -0.786681473255
vn 0.000000045806 0.986186563969 -0.165638744831
vn -0.429413616657 0.813536882401 -0.392124772072
vn 0.000000045806 0.986186563969 -0.165638744831
vn 0.000000076290 0.617359340191 -0.786681473255
vn -0.600161015987 -0.493004709482 0.629883587360
vn -0.843965411186 -0.519740104675 -0.132637470961
vn -0.000000022063 -0.997470736504 -0.071080595255
vn -0.000000022063 -0.997470736504 -0.071080595255
vn 0.000000004908 -0.603408932686 0.797432005405
vn -0.600161015987 -0.493004709482 0.629883587360
vn -0.000000022063 -0.997470736504 -0.071080595255
vn 0.833188056946 -0.537542462349 -0.129791423678
vn 0.568927049637 -0.498677760363 0.653943896294
vn 0.568927049637 -0.498677760363 0.653943896294
vn 0.000000004908 -0.603408932686 0.797432005405
vn -0.000000022063 -0.997470736504 -0.071080595255
vn -0.600161015987 -0.493004709482 0.629883587360
vn 0.000000004908 -0.603408932686 0.797432005405
vn -0.000000017714 -0.447483479977 0.894292235374
vn -0.000000017714 -0.447483479977 0.894292235374
vn -0.617513000965 -0.357668936253 0.700536012650
vn -0.600161015987 -0.493004709482 0.629883587360
vn -0.000000017714 -0.447483479977 0.894292235374
vn 0.000000004908 -0.603408932686 0.797432005405
vn 0.568927049637 -0.498677760363 0.653943896294
vn 0.568927049637 -0.498677760363 0.653943896294
vn 0.631664574146 -0.352811276913 0.690307259560
vn -0.000000017714 -0.447483479977 0.894292235374
vn -0.562905073166 -0.583326816559 0.585549235344
vn -0.617513000965 -0.357668936253 0.700536012650
vn -0.000000017714 -0.447483479977 0.894292235374
vn -0.000000017714 -0.447483479977 0.894292235374
vn 0.000000014422 -0.539656579494 0.841885387897
vn -0.562905073166 -0.583326816559 0.585549235344
vn -0.000000017714 -0.447483479977 0.894292235374
vn 0.631664574146 -0.352811276913 0.690307259560
vn 0.574196517467 -0.586673378944 0.571062803268
vn 0.574196517467 -0.586673378944 0.571062803268
vn 0.000000014422 -0.539656579494 0.841885387897
vn -0.000000017714 -0.447483479977 0.894292235374
vn -0.562905073166 -0.583326816559 0.585549235344
vn 0.000000014422 -0.539656579494 0.841885387897
vn -0.000000053194 -0.488944172859 0.872315227985
vn -0.000000053194 -0.488944172859 0.872315227985
vn -0.567918896675 -0.476434409618 0.671177029610
vn -0.562905073166 -0.583326816559 0.585549235344
vn -0.000000053194 -0.488944172859 0.872315227985
vn 0.000000014422 -0.539656579494 0.841885387897
vn 0.574196517467 -0.586673378944 0.571062803268
vn 0.574196517467 -0.586673378944 0.571062803268
vn 0.562411785126 -0.483094871044 0.671053171158
vn -0.000000053194 -0.488944172859 0.872315227985
vn -0.567918896675 -0.476434409618 0.671177029610
vn -0.000000053194 -0.488944172859 0.872315227985
vn 0.000000016052 0.178004711866 0.984029769897
vn 0.000000016052 0.178004711866 0.984029769897
vn -0.465312272310 0.144041895866 0.873347938061
vn -0.567918896675 -0.476434409618 0.671177029610
vn 0.562411785126 -0.483094871044 0.671053171158
vn 0.449598163366 0.149335622787 0.880659103394
vn 0.000000016052 0.178004711866 0.984029769897
vn 0.000000016052 0.178004711866 0.984029769897
vn -0.000000053194 -0.488944172859 0.872315227985
vn 0.562411785126 -0.483094871044 0.671053171158
vn -0.843965411186 -0.519740104675 -0.132637470961
vn -0.005099628121 -0.187798440456 -0.982194483280
vn -0.000000022063 -0.997470736504 -0.071080595255
vn 0.833188056946 -0.537542462349 -0.129791423678
vn -0.000000022063 -0.997470736504 -0.071080595255
vn -0.005099628121 -0.187798440456 -0.982194483280
# 228 vertex normals

vt 0.753035724163 0.886721193790 0.000000000000
vt 0.719503402710 0.904906511307 0.000000000000
vt 0.698215723038 0.858432054520 0.000000000000
vt 0.747072219849 0.845933198929 0.000000000000
vt 0.887873291969 0.889981865883 0.000000000000
vt 0.897057652473 0.850141942501 0.000000000000
vt 0.851314008236 0.848109364510 0.000000000000
vt 0.853834033012 0.730627834797 0.000000000000
vt 0.919037878513 0.730813264847 0.000000000000
vt 0.793623924255 0.846300959587 0.000000000000
vt 0.731680870056 0.727377533913 0.000000000000
vt 0.797187447548 0.729494333267 0.000000000000
vt 0.668630838394 0.729503095150 0.000000000000
vt 0.852950096130 0.549025237560 0.000000000000
vt 0.902869582176 0.549864888191 0.000000000000
vt 0.753911137581 0.545082151890 0.000000000000
vt 0.802278757095 0.547512590885 0.000000000000
vt 0.699471175671 0.522570848465 0.000000000000
vt 0.857750117779 0.436367332935 0.000000000000
vt 0.809522569180 0.433996051550 0.000000000000
vt 0.792045414448 0.400712519884 0.000000000000
vt 0.899026036263 0.926988840103 0.000000000000
vt 0.872659087181 0.907634258270 0.000000000000
vt 0.767565429211 0.905359148979 0.000000000000
vt 0.864694416523 0.900047004223 0.000000000000
vt 0.870684146881 0.883238255978 0.000000000000
vt 0.851395368576 0.896499991417 0.000000000000
vt 0.854031205177 0.879422068596 0.000000000000
vt 0.788714826107 0.877313017845 0.000000000000
vt 0.789521098137 0.894520819187 0.000000000000
vt 0.775916635990 0.898116290569 0.000000000000
vt 0.771221458912 0.880404770374 0.000000000000
vt 0.820262610912 0.913165688515 0.000000000000
vt 0.793155193329 0.931439459324 0.000000000000
vt 0.874265789986 0.936673283577 0.000000000000
vt 0.834874987602 0.405823737383 0.000000000000
vt 0.827715158463 0.548432707787 0.000000000000
vt 0.825474500656 0.729990482330 0.000000000000
vt 0.822474241257 0.845734238625 0.000000000000
vt 0.821426272392 0.877491772175 0.000000000000
vt 0.920006930828 0.909254670143 0.000000000000
vt 0.942755639553 0.864461421967 0.000000000000
vt 0.979405701160 0.736816763878 0.000000000000
vt 0.962355971336 0.529134511948 0.000000000000
vt 0.878073632717 0.404535442591 0.000000000000
vt 0.740020632744 0.923756062984 0.000000000000
vt 0.846273779869 0.932400226593 0.000000000000
vt 0.764673650265 0.934609770775 0.000000000000
# 48 texture coords

g body
f 4/1/1 5/2/2 10/3/3 
f 10/3/4 9/4/5 4/1/6 
f 1/5/7 6/6/8 10/42/9 
f 10/42/10 5/41/11 1/5/12 
f 7/7/13 12/8/14 11/9/15 
f 11/9/16 6/6/17 7/7/18 
f 8/10/19 9/4/20 14/11/21 
f 14/11/22 13/12/23 8/10/24 
f 10/3/25 15/13/26 14/11/27 
f 14/11/28 9/4/29 10/3/30 
f 10/42/31 6/6/32 11/9/33 
f 11/9/34 15/43/35 10/42/36 
f 11/9/37 12/8/38 17/14/39 
f 17/14/40 16/15/41 11/9/42 
f 14/11/43 19/16/44 18/17/45 
f 18/17/46 13/12/47 14/11/48 
f 14/11/49 15/13/50 20/18/51 
f 20/18/52 19/16/53 14/11/54 
f 11/9/55 16/15/56 20/44/57 
f 20/44/58 15/43/59 11/9/60 
f 16/15/61 17/14/62 21/19/63 
f 18/17/64 19/16/65 22/20/66 
f 19/16/67 20/18/68 23/21/69 
f 23/21/70 22/20/71 19/16/72 
f 16/15/73 21/19/74 23/45/75 
f 23/45/76 20/44/77 16/15/78 
f 1/5/79 5/41/80 26/22/81 
f 26/22/82 25/23/83 1/5/84 
f 4/1/85 27/24/86 26/46/87 
f 26/46/88 5/2/89 4/1/90 
f 25/23/91 29/25/92 30/26/93 
f 30/26/94 1/5/95 25/23/96 
f 29/25/97 24/27/98 2/28/99 
f 2/28/100 30/26/101 29/25/102 
f 28/30/103 31/31/104 32/32/105 
f 32/32/106 3/29/107 28/30/108 
f 32/32/109 31/31/110 27/24/111 
f 27/24/112 4/1/113 32/32/114 
f 2/28/115 7/7/116 30/26/117 
f 7/7/118 6/6/119 30/26/120 
f 30/26/121 6/6/122 1/5/123 
f 3/29/124 32/32/125 8/10/126 
f 4/1/127 9/4/128 32/32/129 
f 32/32/130 9/4/131 8/10/132 
f 28/30/133 33/33/134 34/34/135 
f 34/34/136 31/31/137 28/30/138 
f 34/47/139 33/33/140 24/27/141 
f 24/27/142 29/25/143 34/47/144 
f 27/24/145 31/31/146 34/34/147 
f 34/34/148 35/48/149 27/24/150 
f 34/47/151 29/25/152 25/23/153 
f 25/23/154 35/35/155 34/47/156 
f 25/23/157 26/22/158 35/35/159 
f 27/24/160 35/48/161 26/46/162 
f 18/17/163 22/20/164 36/36/165 
f 36/36/166 37/37/167 18/17/168 
f 36/36/169 21/19/170 17/14/171 
f 17/14/172 37/37/173 36/36/174 
f 18/17/175 37/37/176 38/38/177 
f 38/38/178 13/12/179 18/17/180 
f 38/38/181 37/37/182 17/14/183 
f 17/14/184 12/8/185 38/38/186 
f 8/10/187 13/12/188 38/38/189 
f 38/38/190 39/39/191 8/10/192 
f 38/38/193 12/8/194 7/7/195 
f 7/7/196 39/39/197 38/38/198 
f 8/10/199 39/39/200 40/40/201 
f 40/40/202 3/29/203 8/10/204 
f 40/40/205 39/39/206 7/7/207 
f 7/7/208 2/28/209 40/40/210 
f 3/29/211 40/40/212 33/33/213 
f 33/33/214 28/30/215 3/29/216 
f 2/28/217 24/27/218 33/33/219 
f 33/33/220 40/40/221 2/28/222 
f 22/20/223 23/21/224 36/36/225 
f 21/19/226 36/36/227 23/45/228 
# 76 faces

#
# object wing_top001
#

#
# object wing_bottom001
#

