# 3ds Max Wavefront OBJ Exporter v0.97b - (c)2007 guruware
# File Created: 16.02.2019 08:04:25

#
# object wing_top
#

v  -0.653360664845 0.521755099297 -0.160417556763
v  -0.517502665520 0.102811217308 -0.254717797041
v  -0.389585971832 0.065631508827 -0.177429795265
v  -0.264801919460 0.048190951347 -0.088471233845
v  -0.125858291984 0.017989993095 -0.023105531931
v  -0.028162702918 0.012405097485 0.035870224237
v  -0.686320126057 0.688414633274 -0.070996075869
v  -0.587329328060 0.697517573833 0.008588939905
v  -0.467166900635 0.657973766327 0.095169574022
v  -0.331902563572 0.545105934143 0.142684191465
v  -0.186545148492 0.384308934212 0.164969950914
v  -0.041649952531 0.186793565750 0.140530794859
# 12 vertices

vn -0.649807214737 -0.385682076216 0.654981017113
vn -0.581494331360 -0.397498071194 0.709830880165
vn -0.602664947510 -0.406777739525 0.686532676220
vn -0.602664947510 -0.406777739525 0.686532676220
vn -0.521991610527 -0.481126368046 0.704302787781
vn -0.649807214737 -0.385682076216 0.654981017113
vn -0.581494331360 -0.397498071194 0.709830880165
vn -0.563122212887 -0.407159209251 0.719107091427
vn -0.600657165051 -0.389145374298 0.698410391808
vn -0.600657165051 -0.389145374298 0.698410391808
vn -0.602664947510 -0.406777739525 0.686532676220
vn -0.581494331360 -0.397498071194 0.709830880165
vn -0.563122212887 -0.407159209251 0.719107091427
vn -0.524076402187 -0.432282775640 0.733809053898
vn -0.576284468174 -0.404422610998 0.710168123245
vn -0.576284468174 -0.404422610998 0.710168123245
vn -0.600657165051 -0.389145374298 0.698410391808
vn -0.563122212887 -0.407159209251 0.719107091427
vn -0.524076402187 -0.432282775640 0.733809053898
vn -0.471328169107 -0.468689799309 0.747114300728
vn -0.538516223431 -0.427076488733 0.726365029812
vn -0.538516223431 -0.427076488733 0.726365029812
vn -0.576284468174 -0.404422610998 0.710168123245
vn -0.524076402187 -0.432282775640 0.733809053898
vn -0.471328169107 -0.468689799309 0.747114300728
vn -0.473342180252 -0.479922175407 0.738662421703
vn -0.497059494257 -0.463275194168 0.733694851398
vn -0.497059494257 -0.463275194168 0.733694851398
vn -0.538516223431 -0.427076488733 0.726365029812
vn -0.471328169107 -0.468689799309 0.747114300728
# 30 vertex normals

vt 0.172000527382 0.444496572018 0.000000000000
vt 0.532240331173 0.465290009975 0.000000000000
vt 0.029597215354 0.582752406597 0.000000000000
vt 0.029667764902 0.480384379625 0.000000000000
vt 0.570518612862 0.572833836079 0.000000000000
vt 0.071794539690 0.698582351208 0.000000000000
vt 0.601830661297 0.691408395767 0.000000000000
vt 0.177892565727 0.798300266266 0.000000000000
vt 0.640115678310 0.808224797249 0.000000000000
vt 0.311817348003 0.891002118587 0.000000000000
vt 0.662200212479 0.911505401134 0.000000000000
vt 0.508752226830 0.950195789337 0.000000000000
# 12 texture coords

g wing_top
f 1/1/1 2/2/2 8/3/3 
f 8/3/4 7/4/5 1/1/6 
f 2/2/7 3/5/8 9/6/9 
f 9/6/10 8/3/11 2/2/12 
f 3/5/13 4/7/14 10/8/15 
f 10/8/16 9/6/17 3/5/18 
f 4/7/19 5/9/20 11/10/21 
f 11/10/22 10/8/23 4/7/24 
f 5/9/25 6/11/26 12/12/27 
f 12/12/28 11/10/29 5/9/30 
# 10 faces

#
# object wing_bottom
#

v  -0.586351633072 -0.569241344929 -0.723420977592
v  -0.493658304214 -0.616159856319 -0.643239617348
v  -0.353392571211 -0.495951771736 -0.479602038860
v  -0.212488338351 -0.549148857594 -0.384401679039
v  -0.045248508453 -0.107754051685 -0.040268748999
v  -0.529718339443 0.052464619279 -0.403360366821
v  -0.421223789454 0.197236672044 -0.222110539675
v  -0.309791684151 0.137619331479 -0.133168160915
v  -0.173804491758 0.075572907925 -0.036620587111
v  -0.032629132271 0.036230608821 0.022313147783
# 10 vertices

vn -0.706196904182 -0.274666786194 0.652567267418
vn -0.671744823456 -0.298607349396 0.677932560444
vn -0.694062709808 -0.280769079924 0.662907004356
vn -0.694062709808 -0.280769079924 0.662907004356
vn -0.719170987606 -0.265130758286 0.642260730267
vn -0.706196904182 -0.274666786194 0.652567267418
vn -0.671744823456 -0.298607349396 0.677932560444
vn -0.578070282936 -0.363343358040 0.730627417564
vn -0.658120393753 -0.313892781734 0.684360146523
vn -0.658120393753 -0.313892781734 0.684360146523
vn -0.694062709808 -0.280769079924 0.662907004356
vn -0.671744823456 -0.298607349396 0.677932560444
vn -0.578070282936 -0.363343358040 0.730627417564
vn -0.599462866783 -0.357945084572 0.715904653072
vn -0.545240581036 -0.377991318703 0.748221397400
vn -0.545240581036 -0.377991318703 0.748221397400
vn -0.658120393753 -0.313892781734 0.684360146523
vn -0.578070282936 -0.363343358040 0.730627417564
vn -0.599462866783 -0.357945084572 0.715904653072
vn -0.747305154800 -0.208700120449 0.630856037140
vn -0.500105977058 -0.385200709105 0.775573611259
vn -0.500105977058 -0.385200709105 0.775573611259
vn -0.545240581036 -0.377991318703 0.748221397400
vn -0.599462866783 -0.357945084572 0.715904653072
# 24 vertex normals

vt 0.961491942406 0.201067015529 0.000000000000
vt 0.926442384720 0.291900604963 0.000000000000
vt 0.281795173883 0.055390074849 0.000000000000
vt 0.469241410494 0.020468384027 0.000000000000
vt 0.751629769802 0.350132197142 0.000000000000
vt 0.244707003236 0.164150431752 0.000000000000
vt 0.700475394726 0.472647666931 0.000000000000
vt 0.199021831155 0.288672387600 0.000000000000
vt 0.268634766340 0.438634812832 0.000000000000
vt 0.158788844943 0.398334026337 0.000000000000
# 10 texture coords

g wing_bottom
f 13/13/31 14/14/32 19/15/33 
f 19/15/34 18/16/35 13/13/36 
f 14/14/37 15/17/38 20/18/39 
f 20/18/40 19/15/41 14/14/42 
f 15/17/43 16/19/44 21/20/45 
f 21/20/46 20/18/47 15/17/48 
f 16/19/49 17/21/50 22/22/51 
f 22/22/52 21/20/53 16/19/54 
# 8 faces

#
# object body
#

#
# object wing_top001
#

v  0.653360664845 0.521755039692 -0.160417616367
v  0.517502665520 0.102811127901 -0.254717767239
v  0.389585971832 0.065631389618 -0.177429765463
v  0.264801919460 0.048190891743 -0.088471233845
v  0.125858291984 0.017989933491 -0.023105531931
v  0.028162702918 0.012405037880 0.035870254040
v  0.686320126057 0.688414633274 -0.070996165276
v  0.587329328060 0.697517514229 0.008588910103
v  0.467166900635 0.657973766327 0.095169514418
v  0.331902563572 0.545105934143 0.142684102058
v  0.186545148492 0.384308934212 0.164969921112
v  0.041649952531 0.186793535948 0.140530705452
# 12 vertices

vn 0.649807095528 -0.385681957006 0.654981017113
vn 0.581494271755 -0.397497951984 0.709830880165
vn 0.602664887905 -0.406777620316 0.686532676220
vn 0.602664887905 -0.406777620316 0.686532676220
vn 0.521991550922 -0.481126248837 0.704302787781
vn 0.649807095528 -0.385681957006 0.654981017113
vn 0.581494271755 -0.397497951984 0.709830880165
vn 0.563122153282 -0.407159090042 0.719107091427
vn 0.600657105446 -0.389145255089 0.698410391808
vn 0.600657105446 -0.389145255089 0.698410391808
vn 0.602664887905 -0.406777620316 0.686532676220
vn 0.581494271755 -0.397497951984 0.709830880165
vn 0.563122153282 -0.407159090042 0.719107091427
vn 0.524076342583 -0.432282656431 0.733809053898
vn 0.576284408569 -0.404422491789 0.710168123245
vn 0.576284408569 -0.404422491789 0.710168123245
vn 0.600657105446 -0.389145255089 0.698410391808
vn 0.563122153282 -0.407159090042 0.719107091427
vn 0.524076342583 -0.432282656431 0.733809053898
vn 0.471328109503 -0.468689680099 0.747114300728
vn 0.538516163826 -0.427076369524 0.726365029812
vn 0.538516163826 -0.427076369524 0.726365029812
vn 0.576284408569 -0.404422491789 0.710168123245
vn 0.524076342583 -0.432282656431 0.733809053898
vn 0.471328109503 -0.468689680099 0.747114300728
vn 0.473342120647 -0.479922056198 0.738662421703
vn 0.497059434652 -0.463275074959 0.733694851398
vn 0.497059434652 -0.463275074959 0.733694851398
vn 0.538516163826 -0.427076369524 0.726365029812
vn 0.471328109503 -0.468689680099 0.747114300728
# 30 vertex normals

vt 0.172000527382 0.444496572018 0.000000000000
vt 0.532240331173 0.465290009975 0.000000000000
vt 0.029597215354 0.582752406597 0.000000000000
vt 0.029667764902 0.480384379625 0.000000000000
vt 0.570518612862 0.572833836079 0.000000000000
vt 0.071794539690 0.698582351208 0.000000000000
vt 0.601830661297 0.691408395767 0.000000000000
vt 0.177892565727 0.798300266266 0.000000000000
vt 0.640115678310 0.808224797249 0.000000000000
vt 0.311817348003 0.891002118587 0.000000000000
vt 0.662200212479 0.911505401134 0.000000000000
vt 0.508752226830 0.950195789337 0.000000000000
# 12 texture coords

g wing_top001
f 30/25/57 24/24/56 23/23/55 
f 23/23/60 29/26/59 30/25/58 
f 31/28/63 25/27/62 24/24/61 
f 24/24/66 30/25/65 31/28/64 
f 32/30/69 26/29/68 25/27/67 
f 25/27/72 31/28/71 32/30/70 
f 33/32/75 27/31/74 26/29/73 
f 26/29/78 32/30/77 33/32/76 
f 34/34/81 28/33/80 27/31/79 
f 27/31/84 33/32/83 34/34/82 
# 10 faces

#
# object wing_bottom001
#

v  0.586351633072 -0.569241404533 -0.723420977592
v  0.493658304214 -0.616159975529 -0.643239617348
v  0.353392571211 -0.495951831341 -0.479601949453
v  0.212488338351 -0.549148917198 -0.384401589632
v  0.045248508453 -0.107754074037 -0.040268689394
v  0.529718339443 0.052464574575 -0.403360366821
v  0.421223789454 0.197236657143 -0.222110539675
v  0.309791684151 0.137619316578 -0.133168160915
v  0.173804491758 0.075572878122 -0.036620557308
v  0.032629132271 0.036230593920 0.022313177586
# 10 vertices

vn 0.706196904182 -0.274666756392 0.652567327023
vn 0.671744823456 -0.298607259989 0.677932620049
vn 0.694062709808 -0.280769020319 0.662907063961
vn 0.694062709808 -0.280769020319 0.662907063961
vn 0.719170987606 -0.265130698681 0.642260789871
vn 0.706196904182 -0.274666756392 0.652567327023
vn 0.671744823456 -0.298607259989 0.677932620049
vn 0.578070282936 -0.363343298435 0.730627477169
vn 0.658120393753 -0.313892692327 0.684360265732
vn 0.658120393753 -0.313892692327 0.684360265732
vn 0.694062709808 -0.280769020319 0.662907063961
vn 0.671744823456 -0.298607259989 0.677932620049
vn 0.578070282936 -0.363343298435 0.730627477169
vn 0.599462866783 -0.357945054770 0.715904712677
vn 0.545240581036 -0.377991259098 0.748221457005
vn 0.545240581036 -0.377991259098 0.748221457005
vn 0.658120393753 -0.313892692327 0.684360265732
vn 0.578070282936 -0.363343298435 0.730627477169
vn 0.599462866783 -0.357945054770 0.715904712677
vn 0.747305154800 -0.208700075746 0.630856096745
vn 0.500105977058 -0.385200619698 0.775573670864
vn 0.500105977058 -0.385200619698 0.775573670864
vn 0.545240581036 -0.377991259098 0.748221457005
vn 0.599462866783 -0.357945054770 0.715904712677
# 24 vertex normals

vt 0.961491942406 0.201067015529 0.000000000000
vt 0.926442384720 0.291900604963 0.000000000000
vt 0.281795173883 0.055390074849 0.000000000000
vt 0.469241410494 0.020468384027 0.000000000000
vt 0.751629769802 0.350132197142 0.000000000000
vt 0.244707003236 0.164150431752 0.000000000000
vt 0.700475394726 0.472647666931 0.000000000000
vt 0.199021831155 0.288672387600 0.000000000000
vt 0.268634766340 0.438634812832 0.000000000000
vt 0.158788844943 0.398334026337 0.000000000000
# 10 texture coords

g wing_bottom001
f 41/37/87 36/36/86 35/35/85 
f 35/35/90 40/38/89 41/37/88 
f 42/40/93 37/39/92 36/36/91 
f 36/36/96 41/37/95 42/40/94 
f 43/42/99 38/41/98 37/39/97 
f 37/39/102 42/40/101 43/42/100 
f 44/44/105 39/43/104 38/41/103 
f 38/41/108 43/42/107 44/44/106 
# 8 faces

