# 3ds Max Wavefront OBJ Exporter v0.97b - (c)2007 guruware
# File Created: 16.02.2019 08:04:23

#
# object wing_top
#

v  -0.552357792854 0.116427749395 0.719288527966
v  -0.503543615341 -0.166431605816 0.333342194557
v  -0.402517616749 -0.106592595577 0.197740659118
v  -0.276641666889 -0.040606021881 0.102062836289
v  -0.140714049339 -0.000265598297 0.008772596717
v  -0.041342318058 0.040172040462 -0.031087741256
v  -0.513945937157 0.261801779270 0.846767008305
v  -0.488225281239 0.363375097513 0.737127900124
v  -0.417234838009 0.436554998159 0.583703756332
v  -0.315967500210 0.429458260536 0.400027692318
v  -0.178147315979 0.358769536018 0.221731022000
v  -0.039602279663 0.222148045897 0.060720607638
# 12 vertices

vn 0.935499668121 -0.260216355324 0.239014416933
vn 0.852966070175 -0.299763262272 0.427306592464
vn 0.942550897598 -0.258440732956 0.211675047874
vn 0.942550897598 -0.258440732956 0.211675047874
vn 0.967974305153 -0.250990390778 -0.005445599556
vn 0.935499668121 -0.260216355324 0.239014416933
vn 0.852966070175 -0.299763262272 0.427306592464
vn 0.764796674252 -0.332962363958 0.551563501358
vn 0.879931807518 -0.283356159925 0.381352216005
vn 0.879931807518 -0.283356159925 0.381352216005
vn 0.942550897598 -0.258440732956 0.211675047874
vn 0.852966070175 -0.299763262272 0.427306592464
vn 0.764796674252 -0.332962363958 0.551563501358
vn 0.644098997116 -0.357927381992 0.676035881042
vn 0.773031949997 -0.330635190010 0.541388988495
vn 0.773031949997 -0.330635190010 0.541388988495
vn 0.879931807518 -0.283356159925 0.381352216005
vn 0.764796674252 -0.332962363958 0.551563501358
vn 0.644098997116 -0.357927381992 0.676035881042
vn 0.540250957012 -0.383223086596 0.749178946018
vn 0.623123049736 -0.370469272137 0.688818037510
vn 0.623123049736 -0.370469272137 0.688818037510
vn 0.773031949997 -0.330635190010 0.541388988495
vn 0.644098997116 -0.357927381992 0.676035881042
vn 0.540250957012 -0.383223086596 0.749178946018
vn 0.476688235998 -0.399590015411 0.783004641533
vn 0.491359204054 -0.403637707233 0.771779000759
vn 0.491359204054 -0.403637707233 0.771779000759
vn 0.623123049736 -0.370469272137 0.688818037510
vn 0.540250957012 -0.383223086596 0.749178946018
# 30 vertex normals

vt 0.172000527382 0.444496572018 0.000000000000
vt 0.532240331173 0.465290009975 0.000000000000
vt 0.029597215354 0.582752406597 0.000000000000
vt 0.029667764902 0.480384379625 0.000000000000
vt 0.570518612862 0.572833836079 0.000000000000
vt 0.071794539690 0.698582351208 0.000000000000
vt 0.601830661297 0.691408395767 0.000000000000
vt 0.177892565727 0.798300266266 0.000000000000
vt 0.640115678310 0.808224797249 0.000000000000
vt 0.311817348003 0.891002118587 0.000000000000
vt 0.662200212479 0.911505401134 0.000000000000
vt 0.508752226830 0.950195789337 0.000000000000
# 12 texture coords

g wing_top
f 1/1/1 2/2/2 8/3/3 
f 8/3/4 7/4/5 1/1/6 
f 2/2/7 3/5/8 9/6/9 
f 9/6/10 8/3/11 2/2/12 
f 3/5/13 4/7/14 10/8/15 
f 10/8/16 9/6/17 3/5/18 
f 4/7/19 5/9/20 11/10/21 
f 11/10/22 10/8/23 4/7/24 
f 5/9/25 6/11/26 12/12/27 
f 12/12/28 11/10/29 5/9/30 
# 10 faces

#
# object wing_bottom
#

v  -0.443287014961 -0.948607444763 0.062211811543
v  -0.337173074484 -0.917257428169 -0.008353471756
v  -0.247310012579 -0.694370865822 -0.064460098743
v  -0.117862254381 -0.644874691963 -0.176444381475
v  -0.041491240263 -0.078833222389 -0.110809236765
v  -0.514749288559 -0.271408021450 0.230908632278
v  -0.428975880146 -0.030659556389 0.214641809464
v  -0.305742800236 0.000832900405 0.126869797707
v  -0.171085387468 0.042169749737 0.018139123917
v  -0.040331929922 0.066703602672 -0.053671300411
# 10 vertices

vn 0.575366735458 -0.142702817917 0.805350244045
vn 0.614754796028 -0.138461232185 0.776469647884
vn 0.589106976986 -0.138642325997 0.796072423458
vn 0.589106976986 -0.138642325997 0.796072423458
vn 0.559627711773 -0.144241735339 0.816095113754
vn 0.575366735458 -0.142702817917 0.805350244045
vn 0.614754796028 -0.138461232185 0.776469647884
vn 0.708316385746 -0.134479328990 0.692966997623
vn 0.630584120750 -0.143238455057 0.762788653374
vn 0.630584120750 -0.143238455057 0.762788653374
vn 0.589106976986 -0.138642325997 0.796072423458
vn 0.614754796028 -0.138461232185 0.776469647884
vn 0.708316385746 -0.134479328990 0.692966997623
vn 0.669558763504 -0.157654479146 0.725834846497
vn 0.580344796181 -0.175840079784 0.795160591602
vn 0.580344796181 -0.175840079784 0.795160591602
vn 0.630584120750 -0.143238455057 0.762788653374
vn 0.708316385746 -0.134479328990 0.692966997623
vn 0.669558763504 -0.157654479146 0.725834846497
vn 0.895864665508 -0.168542534113 0.411120355129
vn 0.567020356655 -0.199660524726 0.799139320850
vn 0.567020356655 -0.199660524726 0.799139320850
vn 0.580344796181 -0.175840079784 0.795160591602
vn 0.669558763504 -0.157654479146 0.725834846497
# 24 vertex normals

vt 0.961491942406 0.201067015529 0.000000000000
vt 0.926442384720 0.291900604963 0.000000000000
vt 0.281795173883 0.055390074849 0.000000000000
vt 0.469241410494 0.020468384027 0.000000000000
vt 0.751629769802 0.350132197142 0.000000000000
vt 0.244707003236 0.164150431752 0.000000000000
vt 0.700475394726 0.472647666931 0.000000000000
vt 0.199021831155 0.288672387600 0.000000000000
vt 0.268634766340 0.438634812832 0.000000000000
vt 0.158788844943 0.398334026337 0.000000000000
# 10 texture coords

g wing_bottom
f 13/13/31 14/14/32 19/15/33 
f 19/15/34 18/16/35 13/13/36 
f 14/14/37 15/17/38 20/18/39 
f 20/18/40 19/15/41 14/14/42 
f 15/17/43 16/19/44 21/20/45 
f 21/20/46 20/18/47 15/17/48 
f 16/19/49 17/21/50 22/22/51 
f 22/22/52 21/20/53 16/19/54 
# 8 faces

#
# object body
#

#
# object wing_top001
#

v  0.552357792854 0.116427809000 0.719288527966
v  0.503543615341 -0.166431605816 0.333342254162
v  0.402517616749 -0.106592595577 0.197740688920
v  0.276641666889 -0.040606021881 0.102062866092
v  0.140714049339 -0.000265598297 0.008772626519
v  0.041342318058 0.040172040462 -0.031087711453
v  0.513945937157 0.261801838875 0.846767008305
v  0.488225281239 0.363375216722 0.737127840519
v  0.417234838009 0.436555087566 0.583703696728
v  0.315967500210 0.429458290339 0.400027692318
v  0.178147315979 0.358769536018 0.221730992198
v  0.039602279663 0.222148060799 0.060720607638
# 12 vertices

vn -0.935499787331 -0.260216385126 0.239014446735
vn -0.852966129780 -0.299763321877 0.427306652069
vn -0.942550957203 -0.258440732956 0.211675107479
vn -0.942550957203 -0.258440732956 0.211675107479
vn -0.967974364758 -0.250990450382 -0.005445569754
vn -0.935499787331 -0.260216385126 0.239014446735
vn -0.852966129780 -0.299763321877 0.427306652069
vn -0.764796733856 -0.332962363958 0.551563501358
vn -0.879931807518 -0.283356159925 0.381352245808
vn -0.879931807518 -0.283356159925 0.381352245808
vn -0.942550957203 -0.258440732956 0.211675107479
vn -0.852966129780 -0.299763321877 0.427306652069
vn -0.764796733856 -0.332962363958 0.551563501358
vn -0.644099056721 -0.357927381992 0.676035940647
vn -0.773032069206 -0.330635190010 0.541388988495
vn -0.773032069206 -0.330635190010 0.541388988495
vn -0.879931807518 -0.283356159925 0.381352245808
vn -0.764796733856 -0.332962363958 0.551563501358
vn -0.644099056721 -0.357927381992 0.676035940647
vn -0.540251016617 -0.383223056793 0.749179005623
vn -0.623123049736 -0.370469272137 0.688818097115
vn -0.623123049736 -0.370469272137 0.688818097115
vn -0.773032069206 -0.330635190010 0.541388988495
vn -0.644099056721 -0.357927381992 0.676035940647
vn -0.540251016617 -0.383223056793 0.749179005623
vn -0.476688295603 -0.399590015411 0.783004701138
vn -0.491359263659 -0.403637677431 0.771779060364
vn -0.491359263659 -0.403637677431 0.771779060364
vn -0.623123049736 -0.370469272137 0.688818097115
vn -0.540251016617 -0.383223056793 0.749179005623
# 30 vertex normals

vt 0.172000527382 0.444496572018 0.000000000000
vt 0.532240331173 0.465290009975 0.000000000000
vt 0.029597215354 0.582752406597 0.000000000000
vt 0.029667764902 0.480384379625 0.000000000000
vt 0.570518612862 0.572833836079 0.000000000000
vt 0.071794539690 0.698582351208 0.000000000000
vt 0.601830661297 0.691408395767 0.000000000000
vt 0.177892565727 0.798300266266 0.000000000000
vt 0.640115678310 0.808224797249 0.000000000000
vt 0.311817348003 0.891002118587 0.000000000000
vt 0.662200212479 0.911505401134 0.000000000000
vt 0.508752226830 0.950195789337 0.000000000000
# 12 texture coords

g wing_top001
f 30/25/57 24/24/56 23/23/55 
f 23/23/60 29/26/59 30/25/58 
f 31/28/63 25/27/62 24/24/61 
f 24/24/66 30/25/65 31/28/64 
f 32/30/69 26/29/68 25/27/67 
f 25/27/72 31/28/71 32/30/70 
f 33/32/75 27/31/74 26/29/73 
f 26/29/78 32/30/77 33/32/76 
f 34/34/81 28/33/80 27/31/79 
f 27/31/84 33/32/83 34/34/82 
# 10 faces

#
# object wing_bottom001
#

v  0.443287014961 -0.948607444763 0.062211871147
v  0.337173074484 -0.917257428169 -0.008353352547
v  0.247310012579 -0.694370865822 -0.064459979534
v  0.117862254381 -0.644874691963 -0.176444321871
v  0.041491240263 -0.078833252192 -0.110809206963
v  0.514749288559 -0.271407991648 0.230908632278
v  0.428975880146 -0.030659541488 0.214641869068
v  0.305742800236 0.000832870603 0.126869797707
v  0.171085387468 0.042169749737 0.018139123917
v  0.040331929922 0.066703602672 -0.053671300411
# 10 vertices

vn -0.575366735458 -0.142702743411 0.805350303650
vn -0.614754796028 -0.138461172581 0.776469647884
vn -0.589106976986 -0.138642236590 0.796072483063
vn -0.589106976986 -0.138642236590 0.796072483063
vn -0.559627711773 -0.144241660833 0.816095113754
vn -0.575366735458 -0.142702743411 0.805350303650
vn -0.614754796028 -0.138461172581 0.776469647884
vn -0.708316385746 -0.134479269385 0.692967057228
vn -0.630584120750 -0.143238365650 0.762788593769
vn -0.630584120750 -0.143238365650 0.762788593769
vn -0.589106976986 -0.138642236590 0.796072483063
vn -0.614754796028 -0.138461172581 0.776469647884
vn -0.708316385746 -0.134479269385 0.692967057228
vn -0.669558763504 -0.157654404640 0.725834846497
vn -0.580344796181 -0.175839975476 0.795160531998
vn -0.580344796181 -0.175839975476 0.795160531998
vn -0.630584120750 -0.143238365650 0.762788593769
vn -0.708316385746 -0.134479269385 0.692967057228
vn -0.669558763504 -0.157654404640 0.725834846497
vn -0.895864665508 -0.168542504311 0.411120384932
vn -0.567020356655 -0.199660420418 0.799139320850
vn -0.567020356655 -0.199660420418 0.799139320850
vn -0.580344796181 -0.175839975476 0.795160531998
vn -0.669558763504 -0.157654404640 0.725834846497
# 24 vertex normals

vt 0.961491942406 0.201067015529 0.000000000000
vt 0.926442384720 0.291900604963 0.000000000000
vt 0.281795173883 0.055390074849 0.000000000000
vt 0.469241410494 0.020468384027 0.000000000000
vt 0.751629769802 0.350132197142 0.000000000000
vt 0.244707003236 0.164150431752 0.000000000000
vt 0.700475394726 0.472647666931 0.000000000000
vt 0.199021831155 0.288672387600 0.000000000000
vt 0.268634766340 0.438634812832 0.000000000000
vt 0.158788844943 0.398334026337 0.000000000000
# 10 texture coords

g wing_bottom001
f 41/37/87 36/36/86 35/35/85 
f 35/35/90 40/38/89 41/37/88 
f 42/40/93 37/39/92 36/36/91 
f 36/36/96 41/37/95 42/40/94 
f 43/42/99 38/41/98 37/39/97 
f 37/39/102 42/40/101 43/42/100 
f 44/44/105 39/43/104 38/41/103 
f 38/41/108 43/42/107 44/44/106 
# 8 faces

