# 3ds Max Wavefront OBJ Exporter v0.97b - (c)2007 guruware
# File Created: 16.02.2019 08:04:27

#
# object wing_top
#

v  -0.656350731850 0.169062823057 0.613978981972
v  -0.560898721218 -0.133273571730 0.260046213865
v  -0.434426009655 -0.085697025061 0.148057848215
v  -0.292695939541 -0.030423849821 0.075941681862
v  -0.145636677742 0.001582831144 0.003717422485
v  -0.040231585503 0.036916762590 -0.023288905621
v  -0.631298184395 0.316435277462 0.740537881851
v  -0.571362018585 0.407501429319 0.644446730614
v  -0.466136395931 0.465673565865 0.516696691513
v  -0.338980644941 0.444046080112 0.362549692392
v  -0.186395585537 0.361190080643 0.213059186935
v  -0.039830744267 0.217547744513 0.071153461933
# 12 vertices

vn 0.819951415062 -0.350129485130 0.452867686749
vn 0.720184922218 -0.366806566715 0.588886082172
vn 0.835594654083 -0.348521709442 0.424634397030
vn 0.835594654083 -0.348521709442 0.424634397030
vn 0.906696915627 -0.352731883526 0.231259822845
vn 0.819951415062 -0.350129485130 0.452867686749
vn 0.720184922218 -0.366806566715 0.588886082172
vn 0.625864863396 -0.386751472950 0.677286267281
vn 0.748916268349 -0.357694566250 0.557834386826
vn 0.748916268349 -0.357694566250 0.557834386826
vn 0.835594654083 -0.348521709442 0.424634397030
vn 0.720184922218 -0.366806566715 0.588886082172
vn 0.625864863396 -0.386751472950 0.677286267281
vn 0.508036613464 -0.400999426842 0.762298166752
vn 0.630454778671 -0.387553185225 0.672554433346
vn 0.630454778671 -0.387553185225 0.672554433346
vn 0.748916268349 -0.357694566250 0.557834386826
vn 0.625864863396 -0.386751472950 0.677286267281
vn 0.508036613464 -0.400999426842 0.762298166752
vn 0.416153162718 -0.419882386923 0.806545376778
vn 0.483476191759 -0.411486297846 0.772612452507
vn 0.483476191759 -0.411486297846 0.772612452507
vn 0.630454778671 -0.387553185225 0.672554433346
vn 0.508036613464 -0.400999426842 0.762298166752
vn 0.416153162718 -0.419882386923 0.806545376778
vn 0.357263207436 -0.433381408453 0.827371537685
vn 0.365485757589 -0.435874849558 0.822455763817
vn 0.365485757589 -0.435874849558 0.822455763817
vn 0.483476191759 -0.411486297846 0.772612452507
vn 0.416153162718 -0.419882386923 0.806545376778
# 30 vertex normals

vt 0.172000527382 0.444496572018 0.000000000000
vt 0.532240331173 0.465290009975 0.000000000000
vt 0.029597215354 0.582752406597 0.000000000000
vt 0.029667764902 0.480384379625 0.000000000000
vt 0.570518612862 0.572833836079 0.000000000000
vt 0.071794539690 0.698582351208 0.000000000000
vt 0.601830661297 0.691408395767 0.000000000000
vt 0.177892565727 0.798300266266 0.000000000000
vt 0.640115678310 0.808224797249 0.000000000000
vt 0.311817348003 0.891002118587 0.000000000000
vt 0.662200212479 0.911505401134 0.000000000000
vt 0.508752226830 0.950195789337 0.000000000000
# 12 texture coords

g wing_top
f 1/1/1 2/2/2 8/3/3 
f 8/3/4 7/4/5 1/1/6 
f 2/2/7 3/5/8 9/6/9 
f 9/6/10 8/3/11 2/2/12 
f 3/5/13 4/7/14 10/8/15 
f 10/8/16 9/6/17 3/5/18 
f 4/7/19 5/9/20 11/10/21 
f 11/10/22 10/8/23 4/7/24 
f 5/9/25 6/11/26 12/12/27 
f 12/12/28 11/10/29 5/9/30 
# 10 faces

#
# object wing_bottom
#

v  -0.543520331383 -0.916404128075 -0.020050674677
v  -0.424873948097 -0.893859028816 -0.071404248476
v  -0.307503074408 -0.679377555847 -0.104922145605
v  -0.157501354814 -0.640222191811 -0.192748069763
v  -0.042623937130 -0.082900449634 -0.100921988487
v  -0.581139326096 -0.238531738520 0.156692355871
v  -0.472751200199 -0.006580963731 0.162380725145
v  -0.334443598986 0.014809563756 0.096840351820
v  -0.180586814880 0.045300006866 0.012803971767
v  -0.039443492889 0.062689825892 -0.043580621481
# 10 vertices

vn 0.419935524464 -0.209715276957 0.882991373539
vn 0.463758826256 -0.208661809564 0.861038923264
vn 0.435322225094 -0.206792339683 0.876202821732
vn 0.435322225094 -0.206792339683 0.876202821732
vn 0.402569591999 -0.209967002273 0.890983462334
vn 0.419935524464 -0.209715276957 0.882991373539
vn 0.463758826256 -0.208661809564 0.861038923264
vn 0.569765269756 -0.211966067553 0.794001221657
vn 0.481134653091 -0.214654818177 0.849960446358
vn 0.481134653091 -0.214654818177 0.849960446358
vn 0.435322225094 -0.206792339683 0.876202821732
vn 0.463758826256 -0.208661809564 0.861038923264
vn 0.569765269756 -0.211966067553 0.794001221657
vn 0.526994705200 -0.230617851019 0.817980408669
vn 0.447515130043 -0.238936677575 0.861765325069
vn 0.447515130043 -0.238936677575 0.861765325069
vn 0.481134653091 -0.214654818177 0.849960446358
vn 0.569765269756 -0.211966067553 0.794001221657
vn 0.526994705200 -0.230617851019 0.817980408669
vn 0.753406882286 -0.255147457123 0.606034517288
vn 0.441252291203 -0.256596386433 0.859915494919
vn 0.441252291203 -0.256596386433 0.859915494919
vn 0.447515130043 -0.238936677575 0.861765325069
vn 0.526994705200 -0.230617851019 0.817980408669
# 24 vertex normals

vt 0.961491942406 0.201067015529 0.000000000000
vt 0.926442384720 0.291900604963 0.000000000000
vt 0.281795173883 0.055390074849 0.000000000000
vt 0.469241410494 0.020468384027 0.000000000000
vt 0.751629769802 0.350132197142 0.000000000000
vt 0.244707003236 0.164150431752 0.000000000000
vt 0.700475394726 0.472647666931 0.000000000000
vt 0.199021831155 0.288672387600 0.000000000000
vt 0.268634766340 0.438634812832 0.000000000000
vt 0.158788844943 0.398334026337 0.000000000000
# 10 texture coords

g wing_bottom
f 13/13/31 14/14/32 19/15/33 
f 19/15/34 18/16/35 13/13/36 
f 14/14/37 15/17/38 20/18/39 
f 20/18/40 19/15/41 14/14/42 
f 15/17/43 16/19/44 21/20/45 
f 21/20/46 20/18/47 15/17/48 
f 16/19/49 17/21/50 22/22/51 
f 22/22/52 21/20/53 16/19/54 
# 8 faces

#
# object body
#

#
# object wing_top001
#

v  0.656350731850 0.169062942266 0.613978922367
v  0.560898721218 -0.133273541927 0.260046213865
v  0.434426009655 -0.085696995258 0.148057848215
v  0.292695939541 -0.030423879623 0.075941681862
v  0.145636677742 0.001582801342 0.003717437387
v  0.040231585503 0.036916732788 -0.023288875818
v  0.631298184395 0.316435426474 0.740537822247
v  0.571362018585 0.407501608133 0.644446611404
v  0.466136395931 0.465673685074 0.516696572304
v  0.338980644941 0.444046199322 0.362549662590
v  0.186395585537 0.361190140247 0.213059157133
v  0.039830744267 0.217547774315 0.071153461933
# 12 vertices

vn -0.819951415062 -0.350129485130 0.452867716551
vn -0.720184862614 -0.366806536913 0.588886082172
vn -0.835594654083 -0.348521679640 0.424634456635
vn -0.835594654083 -0.348521679640 0.424634456635
vn -0.906696915627 -0.352731943130 0.231259852648
vn -0.819951415062 -0.350129485130 0.452867716551
vn -0.720184862614 -0.366806536913 0.588886082172
vn -0.625864863396 -0.386751472950 0.677286267281
vn -0.748916268349 -0.357694506645 0.557834386826
vn -0.748916268349 -0.357694506645 0.557834386826
vn -0.835594654083 -0.348521679640 0.424634456635
vn -0.720184862614 -0.366806536913 0.588886082172
vn -0.625864863396 -0.386751472950 0.677286267281
vn -0.508036613464 -0.400999367237 0.762298166752
vn -0.630454778671 -0.387553155422 0.672554492950
vn -0.630454778671 -0.387553155422 0.672554492950
vn -0.748916268349 -0.357694506645 0.557834386826
vn -0.625864863396 -0.386751472950 0.677286267281
vn -0.508036613464 -0.400999367237 0.762298166752
vn -0.416153162718 -0.419882357121 0.806545376778
vn -0.483476191759 -0.411486238241 0.772612452507
vn -0.483476191759 -0.411486238241 0.772612452507
vn -0.630454778671 -0.387553155422 0.672554492950
vn -0.508036613464 -0.400999367237 0.762298166752
vn -0.416153162718 -0.419882357121 0.806545376778
vn -0.357263207436 -0.433381348848 0.827371537685
vn -0.365485757589 -0.435874789953 0.822455763817
vn -0.365485757589 -0.435874789953 0.822455763817
vn -0.483476191759 -0.411486238241 0.772612452507
vn -0.416153162718 -0.419882357121 0.806545376778
# 30 vertex normals

vt 0.172000527382 0.444496572018 0.000000000000
vt 0.532240331173 0.465290009975 0.000000000000
vt 0.029597215354 0.582752406597 0.000000000000
vt 0.029667764902 0.480384379625 0.000000000000
vt 0.570518612862 0.572833836079 0.000000000000
vt 0.071794539690 0.698582351208 0.000000000000
vt 0.601830661297 0.691408395767 0.000000000000
vt 0.177892565727 0.798300266266 0.000000000000
vt 0.640115678310 0.808224797249 0.000000000000
vt 0.311817348003 0.891002118587 0.000000000000
vt 0.662200212479 0.911505401134 0.000000000000
vt 0.508752226830 0.950195789337 0.000000000000
# 12 texture coords

g wing_top001
f 30/25/57 24/24/56 23/23/55 
f 23/23/60 29/26/59 30/25/58 
f 31/28/63 25/27/62 24/24/61 
f 24/24/66 30/25/65 31/28/64 
f 32/30/69 26/29/68 25/27/67 
f 25/27/72 31/28/71 32/30/70 
f 33/32/75 27/31/74 26/29/73 
f 26/29/78 32/30/77 33/32/76 
f 34/34/81 28/33/80 27/31/79 
f 27/31/84 33/32/83 34/34/82 
# 10 faces

#
# object wing_bottom001
#

v  0.543520331383 -0.916404128075 -0.020050615072
v  0.424873948097 -0.893859088421 -0.071404188871
v  0.307503074408 -0.679377496243 -0.104922056198
v  0.157501354814 -0.640222191811 -0.192747995257
v  0.042623937130 -0.082900464535 -0.100921958685
v  0.581139326096 -0.238531723619 0.156692415476
v  0.472751200199 -0.006580948830 0.162380725145
v  0.334443598986 0.014809578657 0.096840351820
v  0.180586814880 0.045300036669 0.012803971767
v  0.039443492889 0.062689840794 -0.043580621481
# 10 vertices

vn -0.419935524464 -0.209715187550 0.882991433144
vn -0.463758826256 -0.208661735058 0.861038982868
vn -0.435322225094 -0.206792265177 0.876202881336
vn -0.435322225094 -0.206792265177 0.876202881336
vn -0.402569591999 -0.209966897964 0.890983521938
vn -0.419935524464 -0.209715187550 0.882991433144
vn -0.463758826256 -0.208661735058 0.861038982868
vn -0.569765269756 -0.211965948343 0.794001281261
vn -0.481134653091 -0.214654743671 0.849960505962
vn -0.481134653091 -0.214654743671 0.849960505962
vn -0.435322225094 -0.206792265177 0.876202881336
vn -0.463758826256 -0.208661735058 0.861038982868
vn -0.569765269756 -0.211965948343 0.794001281261
vn -0.526994705200 -0.230617731810 0.817980468273
vn -0.447515130043 -0.238936603069 0.861765384674
vn -0.447515130043 -0.238936603069 0.861765384674
vn -0.481134653091 -0.214654743671 0.849960505962
vn -0.569765269756 -0.211965948343 0.794001281261
vn -0.526994705200 -0.230617731810 0.817980468273
vn -0.753406882286 -0.255147427320 0.606034576893
vn -0.441252291203 -0.256596326828 0.859915554523
vn -0.441252291203 -0.256596326828 0.859915554523
vn -0.447515130043 -0.238936603069 0.861765384674
vn -0.526994705200 -0.230617731810 0.817980468273
# 24 vertex normals

vt 0.961491942406 0.201067015529 0.000000000000
vt 0.926442384720 0.291900604963 0.000000000000
vt 0.281795173883 0.055390074849 0.000000000000
vt 0.469241410494 0.020468384027 0.000000000000
vt 0.751629769802 0.350132197142 0.000000000000
vt 0.244707003236 0.164150431752 0.000000000000
vt 0.700475394726 0.472647666931 0.000000000000
vt 0.199021831155 0.288672387600 0.000000000000
vt 0.268634766340 0.438634812832 0.000000000000
vt 0.158788844943 0.398334026337 0.000000000000
# 10 texture coords

g wing_bottom001
f 41/37/87 36/36/86 35/35/85 
f 35/35/90 40/38/89 41/37/88 
f 42/40/93 37/39/92 36/36/91 
f 36/36/96 41/37/95 42/40/94 
f 43/42/99 38/41/98 37/39/97 
f 37/39/102 42/40/101 43/42/100 
f 44/44/105 39/43/104 38/41/103 
f 38/41/108 43/42/107 44/44/106 
# 8 faces

