# 3ds Max Wavefront OBJ Exporter v0.97b - (c)2007 guruware
# File Created: 16.02.2019 08:06:26

#
# object wing_top
#

#
# object wing_bottom
#

#
# object body
#

v  0.048046335578 0.242206439376 0.079620286822
v  0.056162253022 0.206732586026 0.133534833789
v  -0.056162238121 0.206732586026 0.133534833789
v  -0.048046320677 0.242206439376 0.079620271921
v  0.000000007936 0.248231604695 0.068055324256
v  0.043789066374 0.195605039597 0.055935181677
v  0.031223701313 0.178383439779 0.102821022272
v  -0.031223695725 0.178383439779 0.102821022272
v  -0.046484149992 0.195605039597 0.055935174227
v  0.000000009313 0.203058153391 0.043119937181
v  0.052614811808 0.094337001443 0.004387870431
v  0.030973909423 0.069233223796 0.060830768198
v  -0.030973905697 0.069233223796 0.060830768198
v  -0.055309880525 0.094337001443 0.004387859255
v  0.000000005664 0.101875364780 -0.008895922452
v  0.052268475294 -0.061368495226 -0.054497223347
v  0.026134239510 -0.081722706556 -0.018244151026
v  -0.026134230196 -0.081722706556 -0.018244151026
v  -0.046878270805 -0.061368495226 -0.054497223347
v  0.000000006995 -0.054409027100 -0.071898654103
v  0.023743003607 -0.160356640816 -0.074590772390
v  -0.023743003607 -0.160356640816 -0.074590772390
v  0.000000006487 -0.162347584963 -0.094274252653
v  0.052376620471 0.241915568709 0.143690124154
v  0.048026133329 0.278463363647 0.103066816926
v  0.000000007959 0.270937085152 0.084339775145
v  -0.048026122153 0.278463363647 0.103066816926
v  -0.052376613021 0.241915568709 0.143690124154
v  0.067752040923 0.267344236374 0.124565958977
v  0.076082013547 0.223717600107 0.101253360510
v  -0.067752040923 0.267344236374 0.124565944076
v  -0.076082013547 0.223717600107 0.101253360510
v  0.000000005655 0.244393333793 0.151212260127
v  0.000000003813 0.275760143995 0.135719209909
v  0.000000003693 0.287182241678 0.107702285051
v  0.000000000907 -0.177504599094 -0.075037777424
v  0.000000004166 -0.083724737167 -0.013412360102
v  0.000000003780 0.066993653774 0.065558433533
v  0.000000005588 0.175736695528 0.107979193330
v  0.000000003750 0.204021200538 0.138658866286
# 40 vertices

vn -0.499107569456 0.435935407877 -0.748900473118
vn 0.000000074554 0.533279716969 -0.845938980579
vn 0.006427661516 0.465007960796 -0.885283172131
vn 0.006427661516 0.465007960796 -0.885283172131
vn -0.813435137272 0.142849773169 -0.563841521740
vn -0.499107569456 0.435935407877 -0.748900473118
vn 0.502571463585 0.425822764635 -0.752394139767
vn 0.802538454533 0.141204148531 -0.579649329185
vn 0.006427661516 0.465007960796 -0.885283172131
vn 0.006427661516 0.465007960796 -0.885283172131
vn 0.000000074554 0.533279716969 -0.845938980579
vn 0.502571463585 0.425822764635 -0.752394139767
vn 0.580722332001 -0.604921102524 0.544822990894
vn 0.637998521328 -0.325909495354 0.697668135166
vn 0.886938631535 0.191181287169 -0.420463562012
vn 0.886938631535 0.191181287169 -0.420463562012
vn 0.802538454533 0.141204148531 -0.579649329185
vn 0.580722332001 -0.604921102524 0.544822990894
vn -0.569256305695 -0.602029919624 0.559917211533
vn -0.813435137272 0.142849773169 -0.563841521740
vn -0.892999887466 0.182660222054 -0.411322772503
vn -0.892999887466 0.182660222054 -0.411322772503
vn -0.623589754105 -0.330549031496 0.708429992199
vn -0.569256305695 -0.602029919624 0.559917211533
vn 0.006427661516 0.465007960796 -0.885283172131
vn 0.006475753151 0.416595995426 -0.909068703651
vn -0.892999887466 0.182660222054 -0.411322772503
vn -0.892999887466 0.182660222054 -0.411322772503
vn -0.813435137272 0.142849773169 -0.563841521740
vn 0.006427661516 0.465007960796 -0.885283172131
vn 0.006427661516 0.465007960796 -0.885283172131
vn 0.802538454533 0.141204148531 -0.579649329185
vn 0.886938631535 0.191181287169 -0.420463562012
vn 0.886938631535 0.191181287169 -0.420463562012
vn 0.006475753151 0.416595995426 -0.909068703651
vn 0.006427661516 0.465007960796 -0.885283172131
vn 0.886938631535 0.191181287169 -0.420463562012
vn 0.637998521328 -0.325909495354 0.697668135166
vn 0.573943555355 -0.417448759079 0.704503595829
vn 0.573943555355 -0.417448759079 0.704503595829
vn 0.938448250294 0.006877318025 -0.345351308584
vn 0.886938631535 0.191181287169 -0.420463562012
vn -0.892999887466 0.182660222054 -0.411322772503
vn -0.923826813698 0.011750891805 -0.382630258799
vn -0.605601668358 -0.414677828550 0.679182529449
vn -0.605601668358 -0.414677828550 0.679182529449
vn -0.623589754105 -0.330549031496 0.708429992199
vn -0.892999887466 0.182660222054 -0.411322772503
vn -0.892999887466 0.182660222054 -0.411322772503
vn 0.006475753151 0.416595995426 -0.909068703651
vn -0.014798508026 0.279112637043 -0.960144281387
vn -0.014798508026 0.279112637043 -0.960144281387
vn -0.923826813698 0.011750891805 -0.382630258799
vn -0.892999887466 0.182660222054 -0.411322772503
vn 0.886938631535 0.191181287169 -0.420463562012
vn 0.938448250294 0.006877318025 -0.345351308584
vn -0.014798508026 0.279112637043 -0.960144281387
vn -0.014798508026 0.279112637043 -0.960144281387
vn 0.006475753151 0.416595995426 -0.909068703651
vn 0.886938631535 0.191181287169 -0.420463562012
vn 0.938448250294 0.006877318025 -0.345351308584
vn 0.573943555355 -0.417448759079 0.704503595829
vn 0.830110013485 -0.554873704910 -0.055068582296
vn -0.605601668358 -0.414677828550 0.679182529449
vn -0.923826813698 0.011750891805 -0.382630258799
vn -0.841064155102 -0.537479162216 -0.061051562428
vn -0.923826813698 0.011750891805 -0.382630258799
vn -0.014798508026 0.279112637043 -0.960144281387
vn -0.005198918749 -0.358158826828 -0.933646261692
vn -0.005198918749 -0.358158826828 -0.933646261692
vn -0.841064155102 -0.537479162216 -0.061051562428
vn -0.923826813698 0.011750891805 -0.382630258799
vn 0.938448250294 0.006877318025 -0.345351308584
vn 0.830110013485 -0.554873704910 -0.055068582296
vn -0.005198918749 -0.358158826828 -0.933646261692
vn -0.005198918749 -0.358158826828 -0.933646261692
vn -0.014798508026 0.279112637043 -0.960144281387
vn 0.938448250294 0.006877318025 -0.345351308584
vn 0.502571463585 0.425822764635 -0.752394139767
vn 0.000000074554 0.533279716969 -0.845938980579
vn 0.000000096402 0.675838887691 -0.737049460411
vn 0.000000096402 0.675838887691 -0.737049460411
vn 0.431004315615 0.842881083488 -0.322159439325
vn 0.502571463585 0.425822764635 -0.752394139767
vn -0.499107569456 0.435935407877 -0.748900473118
vn -0.431004196405 0.842881143093 -0.322159409523
vn 0.000000096402 0.675838887691 -0.737049460411
vn 0.000000096402 0.675838887691 -0.737049460411
vn 0.000000074554 0.533279716969 -0.845938980579
vn -0.499107569456 0.435935407877 -0.748900473118
vn 0.431004315615 0.842881083488 -0.322159439325
vn 0.760741472244 0.572374522686 0.306038826704
vn 0.979386150837 -0.130816236138 -0.153915137053
vn 0.979386150837 -0.130816236138 -0.153915137053
vn 0.502571463585 0.425822764635 -0.752394139767
vn 0.431004315615 0.842881083488 -0.322159439325
vn 0.760741472244 0.572374522686 0.306038826704
vn 0.447929263115 0.075829029083 0.890847563744
vn 0.563036978245 -0.528881907463 0.635038018227
vn 0.563036978245 -0.528881907463 0.635038018227
vn 0.979386150837 -0.130816236138 -0.153915137053
vn 0.760741472244 0.572374522686 0.306038826704
vn -0.465724408627 0.070517838001 0.882115662098
vn -0.764617621899 0.565423786640 0.309282690287
vn -0.983220398426 -0.122188679874 -0.135453358293
vn -0.983220398426 -0.122188679874 -0.135453358293
vn -0.569207072258 -0.521409273148 0.635716676712
vn -0.465724408627 0.070517838001 0.882115662098
vn -0.983220398426 -0.122188679874 -0.135453358293
vn -0.764617621899 0.565423786640 0.309282690287
vn -0.431004196405 0.842881143093 -0.322159409523
vn -0.431004196405 0.842881143093 -0.322159409523
vn -0.499107569456 0.435935407877 -0.748900473118
vn -0.983220398426 -0.122188679874 -0.135453358293
vn 0.563036978245 -0.528881907463 0.635038018227
vn 0.580722332001 -0.604921102524 0.544822990894
vn 0.979386150837 -0.130816236138 -0.153915137053
vn 0.580722332001 -0.604921102524 0.544822990894
vn 0.802538454533 0.141204148531 -0.579649329185
vn 0.979386150837 -0.130816236138 -0.153915137053
vn 0.979386150837 -0.130816236138 -0.153915137053
vn 0.802538454533 0.141204148531 -0.579649329185
vn 0.502571463585 0.425822764635 -0.752394139767
vn -0.569207072258 -0.521409273148 0.635716676712
vn -0.983220398426 -0.122188679874 -0.135453358293
vn -0.569256305695 -0.602029919624 0.559917211533
vn -0.499107569456 0.435935407877 -0.748900473118
vn -0.813435137272 0.142849773169 -0.563841521740
vn -0.983220398426 -0.122188679874 -0.135453358293
vn -0.983220398426 -0.122188679874 -0.135453358293
vn -0.813435137272 0.142849773169 -0.563841521740
vn -0.569256305695 -0.602029919624 0.559917211533
vn -0.465724408627 0.070517838001 0.882115662098
vn -0.000000005322 0.092195361853 0.995740950108
vn 0.000000043066 0.741412401199 0.671049654484
vn 0.000000043066 0.741412401199 0.671049654484
vn -0.764617621899 0.565423786640 0.309282690287
vn -0.465724408627 0.070517838001 0.882115662098
vn 0.000000043066 0.741412401199 0.671049654484
vn -0.000000005322 0.092195361853 0.995740950108
vn 0.447929263115 0.075829029083 0.890847563744
vn 0.447929263115 0.075829029083 0.890847563744
vn 0.760741472244 0.572374522686 0.306038826704
vn 0.000000043066 0.741412401199 0.671049654484
vn -0.431004196405 0.842881143093 -0.322159409523
vn -0.764617621899 0.565423786640 0.309282690287
vn 0.000000043066 0.741412401199 0.671049654484
vn 0.000000043066 0.741412401199 0.671049654484
vn 0.000000077723 0.996951818466 -0.078019618988
vn -0.431004196405 0.842881143093 -0.322159409523
vn 0.000000043066 0.741412401199 0.671049654484
vn 0.760741472244 0.572374522686 0.306038826704
vn 0.431004315615 0.842881083488 -0.322159439325
vn 0.431004315615 0.842881083488 -0.322159439325
vn 0.000000077723 0.996951818466 -0.078019618988
vn 0.000000043066 0.741412401199 0.671049654484
vn 0.431004315615 0.842881083488 -0.322159439325
vn 0.000000096402 0.675838887691 -0.737049460411
vn 0.000000077723 0.996951818466 -0.078019618988
vn -0.431004196405 0.842881143093 -0.322159409523
vn 0.000000077723 0.996951818466 -0.078019618988
vn 0.000000096402 0.675838887691 -0.737049460411
vn -0.605601668358 -0.414677828550 0.679182529449
vn -0.841064155102 -0.537479162216 -0.061051562428
vn -0.000000105913 -0.993979096413 0.109569519758
vn -0.000000105913 -0.993979096413 0.109569519758
vn -0.000000014613 -0.506528556347 0.862223148346
vn -0.605601668358 -0.414677828550 0.679182529449
vn -0.000000105913 -0.993979096413 0.109569519758
vn 0.830110013485 -0.554873704910 -0.055068582296
vn 0.573943555355 -0.417448759079 0.704503595829
vn 0.573943555355 -0.417448759079 0.704503595829
vn -0.000000014613 -0.506528556347 0.862223148346
vn -0.000000105913 -0.993979096413 0.109569519758
vn -0.605601668358 -0.414677828550 0.679182529449
vn -0.000000014613 -0.506528556347 0.862223148346
vn -0.000000015154 -0.414772152901 0.909925341606
vn -0.000000015154 -0.414772152901 0.909925341606
vn -0.623589754105 -0.330549031496 0.708429992199
vn -0.605601668358 -0.414677828550 0.679182529449
vn -0.000000015154 -0.414772152901 0.909925341606
vn -0.000000014613 -0.506528556347 0.862223148346
vn 0.573943555355 -0.417448759079 0.704503595829
vn 0.573943555355 -0.417448759079 0.704503595829
vn 0.637998521328 -0.325909495354 0.697668135166
vn -0.000000015154 -0.414772152901 0.909925341606
vn -0.569256305695 -0.602029919624 0.559917211533
vn -0.623589754105 -0.330549031496 0.708429992199
vn -0.000000015154 -0.414772152901 0.909925341606
vn -0.000000015154 -0.414772152901 0.909925341606
vn -0.000000096414 -0.566586911678 0.824001967907
vn -0.569256305695 -0.602029919624 0.559917211533
vn -0.000000015154 -0.414772152901 0.909925341606
vn 0.637998521328 -0.325909495354 0.697668135166
vn 0.580722332001 -0.604921102524 0.544822990894
vn 0.580722332001 -0.604921102524 0.544822990894
vn -0.000000096414 -0.566586911678 0.824001967907
vn -0.000000015154 -0.414772152901 0.909925341606
vn -0.569256305695 -0.602029919624 0.559917211533
vn -0.000000096414 -0.566586911678 0.824001967907
vn -0.000000095973 -0.546916663647 0.837187051773
vn -0.000000095973 -0.546916663647 0.837187051773
vn -0.569207072258 -0.521409273148 0.635716676712
vn -0.569256305695 -0.602029919624 0.559917211533
vn -0.000000095973 -0.546916663647 0.837187051773
vn -0.000000096414 -0.566586911678 0.824001967907
vn 0.580722332001 -0.604921102524 0.544822990894
vn 0.580722332001 -0.604921102524 0.544822990894
vn 0.563036978245 -0.528881907463 0.635038018227
vn -0.000000095973 -0.546916663647 0.837187051773
vn -0.569207072258 -0.521409273148 0.635716676712
vn -0.000000095973 -0.546916663647 0.837187051773
vn -0.000000005322 0.092195361853 0.995740950108
vn -0.000000005322 0.092195361853 0.995740950108
vn -0.465724408627 0.070517838001 0.882115662098
vn -0.569207072258 -0.521409273148 0.635716676712
vn 0.563036978245 -0.528881907463 0.635038018227
vn 0.447929263115 0.075829029083 0.890847563744
vn -0.000000005322 0.092195361853 0.995740950108
vn -0.000000005322 0.092195361853 0.995740950108
vn -0.000000095973 -0.546916663647 0.837187051773
vn 0.563036978245 -0.528881907463 0.635038018227
vn -0.841064155102 -0.537479162216 -0.061051562428
vn -0.005198918749 -0.358158826828 -0.933646261692
vn -0.000000105913 -0.993979096413 0.109569519758
vn 0.830110013485 -0.554873704910 -0.055068582296
vn -0.000000105913 -0.993979096413 0.109569519758
vn -0.005198918749 -0.358158826828 -0.933646261692
# 228 vertex normals

vt 0.753035724163 0.886721193790 0.000000000000
vt 0.719503402710 0.904906511307 0.000000000000
vt 0.698215723038 0.858432054520 0.000000000000
vt 0.747072219849 0.845933198929 0.000000000000
vt 0.887873291969 0.889981865883 0.000000000000
vt 0.897057652473 0.850141942501 0.000000000000
vt 0.851314008236 0.848109364510 0.000000000000
vt 0.853834033012 0.730627834797 0.000000000000
vt 0.919037878513 0.730813264847 0.000000000000
vt 0.793623924255 0.846300959587 0.000000000000
vt 0.731680870056 0.727377533913 0.000000000000
vt 0.797187447548 0.729494333267 0.000000000000
vt 0.668630838394 0.729503095150 0.000000000000
vt 0.852950096130 0.549025237560 0.000000000000
vt 0.902869582176 0.549864888191 0.000000000000
vt 0.753911137581 0.545082151890 0.000000000000
vt 0.802278757095 0.547512590885 0.000000000000
vt 0.699471175671 0.522570848465 0.000000000000
vt 0.857750117779 0.436367332935 0.000000000000
vt 0.809522569180 0.433996051550 0.000000000000
vt 0.792045414448 0.400712519884 0.000000000000
vt 0.899026036263 0.926988840103 0.000000000000
vt 0.872659087181 0.907634258270 0.000000000000
vt 0.767565429211 0.905359148979 0.000000000000
vt 0.864694416523 0.900047004223 0.000000000000
vt 0.870684146881 0.883238255978 0.000000000000
vt 0.851395368576 0.896499991417 0.000000000000
vt 0.854031205177 0.879422068596 0.000000000000
vt 0.788714826107 0.877313017845 0.000000000000
vt 0.789521098137 0.894520819187 0.000000000000
vt 0.775916635990 0.898116290569 0.000000000000
vt 0.771221458912 0.880404770374 0.000000000000
vt 0.820262610912 0.913165688515 0.000000000000
vt 0.793155193329 0.931439459324 0.000000000000
vt 0.874265789986 0.936673283577 0.000000000000
vt 0.834874987602 0.405823737383 0.000000000000
vt 0.827715158463 0.548432707787 0.000000000000
vt 0.825474500656 0.729990482330 0.000000000000
vt 0.822474241257 0.845734238625 0.000000000000
vt 0.821426272392 0.877491772175 0.000000000000
vt 0.920006930828 0.909254670143 0.000000000000
vt 0.942755639553 0.864461421967 0.000000000000
vt 0.979405701160 0.736816763878 0.000000000000
vt 0.962355971336 0.529134511948 0.000000000000
vt 0.878073632717 0.404535442591 0.000000000000
vt 0.740020632744 0.923756062984 0.000000000000
vt 0.846273779869 0.932400226593 0.000000000000
vt 0.764673650265 0.934609770775 0.000000000000
# 48 texture coords

g body
f 4/1/1 5/2/2 10/3/3 
f 10/3/4 9/4/5 4/1/6 
f 1/5/7 6/6/8 10/42/9 
f 10/42/10 5/41/11 1/5/12 
f 7/7/13 12/8/14 11/9/15 
f 11/9/16 6/6/17 7/7/18 
f 8/10/19 9/4/20 14/11/21 
f 14/11/22 13/12/23 8/10/24 
f 10/3/25 15/13/26 14/11/27 
f 14/11/28 9/4/29 10/3/30 
f 10/42/31 6/6/32 11/9/33 
f 11/9/34 15/43/35 10/42/36 
f 11/9/37 12/8/38 17/14/39 
f 17/14/40 16/15/41 11/9/42 
f 14/11/43 19/16/44 18/17/45 
f 18/17/46 13/12/47 14/11/48 
f 14/11/49 15/13/50 20/18/51 
f 20/18/52 19/16/53 14/11/54 
f 11/9/55 16/15/56 20/44/57 
f 20/44/58 15/43/59 11/9/60 
f 16/15/61 17/14/62 21/19/63 
f 18/17/64 19/16/65 22/20/66 
f 19/16/67 20/18/68 23/21/69 
f 23/21/70 22/20/71 19/16/72 
f 16/15/73 21/19/74 23/45/75 
f 23/45/76 20/44/77 16/15/78 
f 1/5/79 5/41/80 26/22/81 
f 26/22/82 25/23/83 1/5/84 
f 4/1/85 27/24/86 26/46/87 
f 26/46/88 5/2/89 4/1/90 
f 25/23/91 29/25/92 30/26/93 
f 30/26/94 1/5/95 25/23/96 
f 29/25/97 24/27/98 2/28/99 
f 2/28/100 30/26/101 29/25/102 
f 28/30/103 31/31/104 32/32/105 
f 32/32/106 3/29/107 28/30/108 
f 32/32/109 31/31/110 27/24/111 
f 27/24/112 4/1/113 32/32/114 
f 2/28/115 7/7/116 30/26/117 
f 7/7/118 6/6/119 30/26/120 
f 30/26/121 6/6/122 1/5/123 
f 3/29/124 32/32/125 8/10/126 
f 4/1/127 9/4/128 32/32/129 
f 32/32/130 9/4/131 8/10/132 
f 28/30/133 33/33/134 34/34/135 
f 34/34/136 31/31/137 28/30/138 
f 34/47/139 33/33/140 24/27/141 
f 24/27/142 29/25/143 34/47/144 
f 27/24/145 31/31/146 34/34/147 
f 34/34/148 35/48/149 27/24/150 
f 34/47/151 29/25/152 25/23/153 
f 25/23/154 35/35/155 34/47/156 
f 25/23/157 26/22/158 35/35/159 
f 27/24/160 35/48/161 26/46/162 
f 18/17/163 22/20/164 36/36/165 
f 36/36/166 37/37/167 18/17/168 
f 36/36/169 21/19/170 17/14/171 
f 17/14/172 37/37/173 36/36/174 
f 18/17/175 37/37/176 38/38/177 
f 38/38/178 13/12/179 18/17/180 
f 38/38/181 37/37/182 17/14/183 
f 17/14/184 12/8/185 38/38/186 
f 8/10/187 13/12/188 38/38/189 
f 38/38/190 39/39/191 8/10/192 
f 38/38/193 12/8/194 7/7/195 
f 7/7/196 39/39/197 38/38/198 
f 8/10/199 39/39/200 40/40/201 
f 40/40/202 3/29/203 8/10/204 
f 40/40/205 39/39/206 7/7/207 
f 7/7/208 2/28/209 40/40/210 
f 3/29/211 40/40/212 33/33/213 
f 33/33/214 28/30/215 3/29/216 
f 2/28/217 24/27/218 33/33/219 
f 33/33/220 40/40/221 2/28/222 
f 22/20/223 23/21/224 36/36/225 
f 21/19/226 36/36/227 23/45/228 
# 76 faces

#
# object wing_top001
#

#
# object wing_bottom001
#

