# 3ds Max Wavefront OBJ Exporter v0.97b - (c)2007 guruware
# File Created: 16.02.2019 08:04:24

#
# object wing_top
#

v  -0.755455613136 0.210591763258 0.493672966957
v  -0.606923282146 -0.101529359818 0.172293007374
v  -0.459357857704 -0.064382433891 0.091417431831
v  -0.305342018604 -0.019145429134 0.047213673592
v  -0.148581892252 0.004025846720 -0.001940429211
v  -0.038722187281 0.033298730850 -0.014561116695
v  -0.751262128353 0.356007128954 0.624267637730
v  -0.660129666328 0.439915686846 0.550446689129
v  -0.522921323776 0.487877219915 0.453522086143
v  -0.368122011423 0.456207513809 0.328910648823
v  -0.196924000978 0.363600909710 0.205995827913
v  -0.040079295635 0.212571561337 0.082426011562
# 12 vertices

vn 0.639985501766 -0.424581706524 0.640428781509
vn 0.541483044624 -0.424453914165 0.725696265697
vn 0.666194498539 -0.421991884708 0.614904761314
vn 0.666194498539 -0.421991884708 0.614904761314
vn 0.773705959320 -0.435524374247 0.460106194019
vn 0.639985501766 -0.424581706524 0.640428781509
vn 0.541483044624 -0.424453914165 0.725696265697
vn 0.451541304588 -0.434133678675 0.779511690140
vn 0.569979071617 -0.418920516968 0.706844806671
vn 0.569979071617 -0.418920516968 0.706844806671
vn 0.666194498539 -0.421991884708 0.614904761314
vn 0.541483044624 -0.424453914165 0.725696265697
vn 0.451541304588 -0.434133678675 0.779511690140
vn 0.348253071308 -0.439540684223 0.827963709831
vn 0.455453991890 -0.435213834047 0.776627719402
vn 0.455453991890 -0.435213834047 0.776627719402
vn 0.569979071617 -0.418920516968 0.706844806671
vn 0.451541304588 -0.434133678675 0.779511690140
vn 0.348253071308 -0.439540684223 0.827963709831
vn 0.274531453848 -0.452513426542 0.848448097706
vn 0.324946194887 -0.446783304214 0.833543479443
vn 0.324946194887 -0.446783304214 0.833543479443
vn 0.455453991890 -0.435213834047 0.776627719402
vn 0.348253071308 -0.439540684223 0.827963709831
vn 0.274531453848 -0.452513426542 0.848448097706
vn 0.221884757280 -0.462670713663 0.858314096928
vn 0.226134598255 -0.464116454124 0.856422245502
vn 0.226134598255 -0.464116454124 0.856422245502
vn 0.324946194887 -0.446783304214 0.833543479443
vn 0.274531453848 -0.452513426542 0.848448097706
# 30 vertex normals

vt 0.172000527382 0.444496572018 0.000000000000
vt 0.532240331173 0.465290009975 0.000000000000
vt 0.029597215354 0.582752406597 0.000000000000
vt 0.029667764902 0.480384379625 0.000000000000
vt 0.570518612862 0.572833836079 0.000000000000
vt 0.071794539690 0.698582351208 0.000000000000
vt 0.601830661297 0.691408395767 0.000000000000
vt 0.177892565727 0.798300266266 0.000000000000
vt 0.640115678310 0.808224797249 0.000000000000
vt 0.311817348003 0.891002118587 0.000000000000
vt 0.662200212479 0.911505401134 0.000000000000
vt 0.508752226830 0.950195789337 0.000000000000
# 12 texture coords

g wing_top
f 1/1/1 2/2/2 8/3/3 
f 8/3/4 7/4/5 1/1/6 
f 2/2/7 3/5/8 9/6/9 
f 9/6/10 8/3/11 2/2/12 
f 3/5/13 4/7/14 10/8/15 
f 10/8/16 9/6/17 3/5/18 
f 4/7/19 5/9/20 11/10/21 
f 11/10/22 10/8/23 4/7/24 
f 5/9/25 6/11/26 12/12/27 
f 12/12/28 11/10/29 5/9/30 
# 10 faces

#
# object wing_bottom
#

v  -0.627393245697 -0.871129035950 -0.124722242355
v  -0.499910771847 -0.859398603439 -0.153585135937
v  -0.358942538500 -0.656895637512 -0.158296942711
v  -0.192689821124 -0.631044149399 -0.216938078403
v  -0.043666332960 -0.087181411684 -0.090484112501
v  -0.632493615150 -0.196213051677 0.066659331322
v  -0.505687713623 0.023830793798 0.099560499191
v  -0.356523633003 0.032743550837 0.060156017542
v  -0.187979668379 0.049525089562 0.005612373352
v  -0.038442492485 0.058359734714 -0.032720744610
# 10 vertices

vn 0.234236732125 -0.266178607941 0.935030579567
vn 0.281176865101 -0.269028276205 0.921175062656
vn 0.250791668892 -0.264655888081 0.931161046028
vn 0.250791668892 -0.264655888081 0.931161046028
vn 0.215776905417 -0.264871418476 0.939831674099
vn 0.234236732125 -0.266178607941 0.935030579567
vn 0.281176865101 -0.269028276205 0.921175062656
vn 0.396662831306 -0.281487792730 0.873740971088
vn 0.299613356590 -0.276493132114 0.913117468357
vn 0.299613356590 -0.276493132114 0.913117468357
vn 0.250791668892 -0.264655888081 0.931161046028
vn 0.281176865101 -0.269028276205 0.921175062656
vn 0.396662831306 -0.281487792730 0.873740971088
vn 0.352267563343 -0.295016109943 0.888185322285
vn 0.290354073048 -0.295258820057 0.910229027271
vn 0.290354073048 -0.295258820057 0.910229027271
vn 0.299613356590 -0.276493132114 0.913117468357
vn 0.396662831306 -0.281487792730 0.873740971088
vn 0.352267563343 -0.295016109943 0.888185322285
vn 0.536705553532 -0.327834457159 0.777477800846
vn 0.293260335922 -0.307502806187 0.905229508877
vn 0.293260335922 -0.307502806187 0.905229508877
vn 0.290354073048 -0.295258820057 0.910229027271
vn 0.352267563343 -0.295016109943 0.888185322285
# 24 vertex normals

vt 0.961491942406 0.201067015529 0.000000000000
vt 0.926442384720 0.291900604963 0.000000000000
vt 0.281795173883 0.055390074849 0.000000000000
vt 0.469241410494 0.020468384027 0.000000000000
vt 0.751629769802 0.350132197142 0.000000000000
vt 0.244707003236 0.164150431752 0.000000000000
vt 0.700475394726 0.472647666931 0.000000000000
vt 0.199021831155 0.288672387600 0.000000000000
vt 0.268634766340 0.438634812832 0.000000000000
vt 0.158788844943 0.398334026337 0.000000000000
# 10 texture coords

g wing_bottom
f 13/13/31 14/14/32 19/15/33 
f 19/15/34 18/16/35 13/13/36 
f 14/14/37 15/17/38 20/18/39 
f 20/18/40 19/15/41 14/14/42 
f 15/17/43 16/19/44 21/20/45 
f 21/20/46 20/18/47 15/17/48 
f 16/19/49 17/21/50 22/22/51 
f 22/22/52 21/20/53 16/19/54 
# 8 faces

#
# object body
#

#
# object wing_top001
#

v  0.755455613136 0.210591763258 0.493672966957
v  0.606923282146 -0.101529389620 0.172293066978
v  0.459357857704 -0.064382463694 0.091417431831
v  0.305342018604 -0.019145458937 0.047213673592
v  0.148581892252 0.004025787115 -0.001940429211
v  0.038722187281 0.033298671246 -0.014561086893
v  0.751262128353 0.356007128954 0.624267637730
v  0.660129666328 0.439915686846 0.550446629524
v  0.522921323776 0.487877219915 0.453521966934
v  0.368122011423 0.456207543612 0.328910589218
v  0.196924000978 0.363600909710 0.205995798111
v  0.040079295635 0.212571501732 0.082426011562
# 12 vertices

vn -0.639985501766 -0.424581587315 0.640428841114
vn -0.541483044624 -0.424453824759 0.725696265697
vn -0.666194498539 -0.421991765499 0.614904820919
vn -0.666194498539 -0.421991765499 0.614904820919
vn -0.773705959320 -0.435524314642 0.460106223822
vn -0.639985501766 -0.424581587315 0.640428841114
vn -0.541483044624 -0.424453824759 0.725696265697
vn -0.451541304588 -0.434133559465 0.779511749744
vn -0.569979071617 -0.418920397758 0.706844866276
vn -0.569979071617 -0.418920397758 0.706844866276
vn -0.666194498539 -0.421991765499 0.614904820919
vn -0.541483044624 -0.424453824759 0.725696265697
vn -0.451541304588 -0.434133559465 0.779511749744
vn -0.348253071308 -0.439540565014 0.827963769436
vn -0.455453991890 -0.435213714838 0.776627779007
vn -0.455453991890 -0.435213714838 0.776627779007
vn -0.569979071617 -0.418920397758 0.706844866276
vn -0.451541304588 -0.434133559465 0.779511749744
vn -0.348253071308 -0.439540565014 0.827963769436
vn -0.274531453848 -0.452513307333 0.848448157310
vn -0.324946194887 -0.446783185005 0.833543539047
vn -0.324946194887 -0.446783185005 0.833543539047
vn -0.455453991890 -0.435213714838 0.776627779007
vn -0.348253071308 -0.439540565014 0.827963769436
vn -0.274531453848 -0.452513307333 0.848448157310
vn -0.221884757280 -0.462670594454 0.858314156532
vn -0.226134598255 -0.464116334915 0.856422305107
vn -0.226134598255 -0.464116334915 0.856422305107
vn -0.324946194887 -0.446783185005 0.833543539047
vn -0.274531453848 -0.452513307333 0.848448157310
# 30 vertex normals

vt 0.172000527382 0.444496572018 0.000000000000
vt 0.532240331173 0.465290009975 0.000000000000
vt 0.029597215354 0.582752406597 0.000000000000
vt 0.029667764902 0.480384379625 0.000000000000
vt 0.570518612862 0.572833836079 0.000000000000
vt 0.071794539690 0.698582351208 0.000000000000
vt 0.601830661297 0.691408395767 0.000000000000
vt 0.177892565727 0.798300266266 0.000000000000
vt 0.640115678310 0.808224797249 0.000000000000
vt 0.311817348003 0.891002118587 0.000000000000
vt 0.662200212479 0.911505401134 0.000000000000
vt 0.508752226830 0.950195789337 0.000000000000
# 12 texture coords

g wing_top001
f 30/25/57 24/24/56 23/23/55 
f 23/23/60 29/26/59 30/25/58 
f 31/28/63 25/27/62 24/24/61 
f 24/24/66 30/25/65 31/28/64 
f 32/30/69 26/29/68 25/27/67 
f 25/27/72 31/28/71 32/30/70 
f 33/32/75 27/31/74 26/29/73 
f 26/29/78 32/30/77 33/32/76 
f 34/34/81 28/33/80 27/31/79 
f 27/31/84 33/32/83 34/34/82 
# 10 faces

#
# object wing_bottom001
#

v  0.627393245697 -0.871128976345 -0.124722123146
v  0.499910771847 -0.859398663044 -0.153585076332
v  0.358942538500 -0.656895577908 -0.158296883106
v  0.192689821124 -0.631044149399 -0.216938018799
v  0.043666332960 -0.087181396782 -0.090484082699
v  0.632493615150 -0.196213036776 0.066659390926
v  0.505687713623 0.023830808699 0.099560499191
v  0.356523633003 0.032743565738 0.060155987740
v  0.187979668379 0.049525089562 0.005612373352
v  0.038442492485 0.058359764516 -0.032720744610
# 10 vertices

vn -0.234236732125 -0.266178488731 0.935030579567
vn -0.281176865101 -0.269028186798 0.921175122261
vn -0.250791668892 -0.264655768871 0.931161105633
vn -0.250791668892 -0.264655768871 0.931161105633
vn -0.215776905417 -0.264871329069 0.939831733704
vn -0.234236732125 -0.266178488731 0.935030579567
vn -0.281176865101 -0.269028186798 0.921175122261
vn -0.396662831306 -0.281487703323 0.873741030693
vn -0.299613356590 -0.276493012905 0.913117527962
vn -0.299613356590 -0.276493012905 0.913117527962
vn -0.250791668892 -0.264655768871 0.931161105633
vn -0.281176865101 -0.269028186798 0.921175122261
vn -0.396662831306 -0.281487703323 0.873741030693
vn -0.352267563343 -0.295016020536 0.888185381889
vn -0.290354073048 -0.295258700848 0.910229086876
vn -0.290354073048 -0.295258700848 0.910229086876
vn -0.299613356590 -0.276493012905 0.913117527962
vn -0.396662831306 -0.281487703323 0.873741030693
vn -0.352267563343 -0.295016020536 0.888185381889
vn -0.536705553532 -0.327834367752 0.777477860451
vn -0.293260335922 -0.307502686977 0.905229568481
vn -0.293260335922 -0.307502686977 0.905229568481
vn -0.290354073048 -0.295258700848 0.910229086876
vn -0.352267563343 -0.295016020536 0.888185381889
# 24 vertex normals

vt 0.961491942406 0.201067015529 0.000000000000
vt 0.926442384720 0.291900604963 0.000000000000
vt 0.281795173883 0.055390074849 0.000000000000
vt 0.469241410494 0.020468384027 0.000000000000
vt 0.751629769802 0.350132197142 0.000000000000
vt 0.244707003236 0.164150431752 0.000000000000
vt 0.700475394726 0.472647666931 0.000000000000
vt 0.199021831155 0.288672387600 0.000000000000
vt 0.268634766340 0.438634812832 0.000000000000
vt 0.158788844943 0.398334026337 0.000000000000
# 10 texture coords

g wing_bottom001
f 41/37/87 36/36/86 35/35/85 
f 35/35/90 40/38/89 41/37/88 
f 42/40/93 37/39/92 36/36/91 
f 36/36/96 41/37/95 42/40/94 
f 43/42/99 38/41/98 37/39/97 
f 37/39/102 42/40/101 43/42/100 
f 44/44/105 39/43/104 38/41/103 
f 38/41/108 43/42/107 44/44/106 
# 8 faces

