# 3ds Max Wavefront OBJ Exporter v0.97b - (c)2007 guruware
# File Created: 16.02.2019 08:04:26

#
# object wing_top
#

v  -0.455269157887 0.588689804077 -0.283435434103
v  -0.391318619251 0.153401851654 -0.343334645033
v  -0.307189762592 0.099468290806 -0.234107196331
v  -0.219014883041 0.066590368748 -0.116858512163
v  -0.106277406216 0.020860016346 -0.023098051548
v  -0.024537947029 0.004366755486 0.054948359728
v  -0.480212330818 0.761933743954 -0.206845805049
v  -0.425268679857 0.756013154984 -0.097325980663
v  -0.359914124012 0.699684917927 0.022240012884
v  -0.272876381874 0.568448126316 0.104366987944
v  -0.166025400162 0.389966815710 0.158675640821
v  -0.042491521686 0.177999705076 0.160192608833
# 12 vertices

vn -0.922074377537 -0.201911836863 0.330167293549
vn -0.849506735802 -0.261299788952 0.458323836327
vn -0.892940104008 -0.233600482345 0.384823054075
vn -0.892940104008 -0.233600482345 0.384823054075
vn -0.857401967049 -0.306287258863 0.413581907749
vn -0.922074377537 -0.201911836863 0.330167293549
vn -0.849506735802 -0.261299788952 0.458323836327
vn -0.814908504486 -0.294298291206 0.499312222004
vn -0.871731877327 -0.239957720041 0.427204608917
vn -0.871731877327 -0.239957720041 0.427204608917
vn -0.892940104008 -0.233600482345 0.384823054075
vn -0.849506735802 -0.261299788952 0.458323836327
vn -0.814908504486 -0.294298291206 0.499312222004
vn -0.752567887306 -0.353063046932 0.555866956711
vn -0.827151298523 -0.287123650312 0.483094871044
vn -0.827151298523 -0.287123650312 0.483094871044
vn -0.871731877327 -0.239957720041 0.427204608917
vn -0.814908504486 -0.294298291206 0.499312222004
vn -0.752567887306 -0.353063046932 0.555866956711
vn -0.677364468575 -0.417379885912 0.605781674385
vn -0.761488616467 -0.345608562231 0.548351943493
vn -0.761488616467 -0.345608562231 0.548351943493
vn -0.827151298523 -0.287123650312 0.483094871044
vn -0.752567887306 -0.353063046932 0.555866956711
vn -0.677364468575 -0.417379885912 0.605781674385
vn -0.665992140770 -0.435818552971 0.605406284332
vn -0.693441331387 -0.409781664610 0.592636585236
vn -0.693441331387 -0.409781664610 0.592636585236
vn -0.761488616467 -0.345608562231 0.548351943493
vn -0.677364468575 -0.417379885912 0.605781674385
# 30 vertex normals

vt 0.172000527382 0.444496572018 0.000000000000
vt 0.532240331173 0.465290009975 0.000000000000
vt 0.029597215354 0.582752406597 0.000000000000
vt 0.029667764902 0.480384379625 0.000000000000
vt 0.570518612862 0.572833836079 0.000000000000
vt 0.071794539690 0.698582351208 0.000000000000
vt 0.601830661297 0.691408395767 0.000000000000
vt 0.177892565727 0.798300266266 0.000000000000
vt 0.640115678310 0.808224797249 0.000000000000
vt 0.311817348003 0.891002118587 0.000000000000
vt 0.662200212479 0.911505401134 0.000000000000
vt 0.508752226830 0.950195789337 0.000000000000
# 12 texture coords

g wing_top
f 1/1/1 2/2/2 8/3/3 
f 8/3/4 7/4/5 1/1/6 
f 2/2/7 3/5/8 9/6/9 
f 9/6/10 8/3/11 2/2/12 
f 3/5/13 4/7/14 10/8/15 
f 10/8/16 9/6/17 3/5/18 
f 4/7/19 5/9/20 11/10/21 
f 11/10/22 10/8/23 4/7/24 
f 5/9/25 6/11/26 12/12/27 
f 12/12/28 11/10/29 5/9/30 
# 10 faces

#
# object wing_bottom
#

v  -0.408264875412 -0.483102977276 -0.864896178246
v  -0.351590216160 -0.544284403324 -0.763568699360
v  -0.254873842001 -0.448530375957 -0.557707428932
v  -0.158189758658 -0.522988975048 -0.427880048752
v  -0.044124692678 -0.114348173141 -0.024316877127
v  -0.375710964203 0.117255702615 -0.503407180309
v  -0.311301618814 0.241360470653 -0.288858920336
v  -0.241270005703 0.164796903729 -0.174335166812
v  -0.150750130415 0.082233071327 -0.045288413763
v  -0.030425697565 0.028824195266 0.040544748306
# 10 vertices

vn -0.902047157288 -0.188151106238 0.388471424580
vn -0.880427777767 -0.217227578163 0.421496272087
vn -0.894574880600 -0.196117088199 0.401589155197
vn -0.894574880600 -0.196117088199 0.401589155197
vn -0.909890055656 -0.176668882370 0.375350773335
vn -0.902047157288 -0.188151106238 0.388471424580
vn -0.880427777767 -0.217227578163 0.421496272087
vn -0.816567003727 -0.295564830303 0.495842516422
vn -0.871495366096 -0.234404295683 0.430755704641
vn -0.871495366096 -0.234404295683 0.430755704641
vn -0.894574880600 -0.196117088199 0.401589155197
vn -0.880427777767 -0.217227578163 0.421496272087
vn -0.816567003727 -0.295564830303 0.495842516422
vn -0.827137649059 -0.288972020149 0.482014894485
vn -0.760475158691 -0.336692392826 0.555261909962
vn -0.760475158691 -0.336692392826 0.555261909962
vn -0.871495366096 -0.234404295683 0.430755704641
vn -0.816567003727 -0.295564830303 0.495842516422
vn -0.827137649059 -0.288972020149 0.482014894485
vn -0.944339454174 -0.056467093527 0.324090331793
vn -0.713417828083 -0.350101232529 0.607012450695
vn -0.713417828083 -0.350101232529 0.607012450695
vn -0.760475158691 -0.336692392826 0.555261909962
vn -0.827137649059 -0.288972020149 0.482014894485
# 24 vertex normals

vt 0.961491942406 0.201067015529 0.000000000000
vt 0.926442384720 0.291900604963 0.000000000000
vt 0.281795173883 0.055390074849 0.000000000000
vt 0.469241410494 0.020468384027 0.000000000000
vt 0.751629769802 0.350132197142 0.000000000000
vt 0.244707003236 0.164150431752 0.000000000000
vt 0.700475394726 0.472647666931 0.000000000000
vt 0.199021831155 0.288672387600 0.000000000000
vt 0.268634766340 0.438634812832 0.000000000000
vt 0.158788844943 0.398334026337 0.000000000000
# 10 texture coords

g wing_bottom
f 13/13/31 14/14/32 19/15/33 
f 19/15/34 18/16/35 13/13/36 
f 14/14/37 15/17/38 20/18/39 
f 20/18/40 19/15/41 14/14/42 
f 15/17/43 16/19/44 21/20/45 
f 21/20/46 20/18/47 15/17/48 
f 16/19/49 17/21/50 22/22/51 
f 22/22/52 21/20/53 16/19/54 
# 8 faces

#
# object body
#

#
# object wing_top001
#

v  0.455269157887 0.588689804077 -0.283435493708
v  0.391318619251 0.153401821852 -0.343334645033
v  0.307189762592 0.099468261003 -0.234107226133
v  0.219014883041 0.066590428352 -0.116858512163
v  0.106277406216 0.020860075951 -0.023098051548
v  0.024537947029 0.004366815090 0.054948359728
v  0.480212330818 0.761933803558 -0.206845894456
v  0.425268679857 0.756013214588 -0.097326070070
v  0.359914124012 0.699684977531 0.022239983082
v  0.272876381874 0.568448185921 0.104366958141
v  0.166025400162 0.389966875315 0.158675581217
v  0.042491521686 0.177999734879 0.160192579031
# 12 vertices

vn 0.922074377537 -0.201911792159 0.330167323351
vn 0.849506735802 -0.261299729347 0.458323866129
vn 0.892940104008 -0.233600422740 0.384823083878
vn 0.892940104008 -0.233600422740 0.384823083878
vn 0.857401967049 -0.306287199259 0.413581937551
vn 0.922074377537 -0.201911792159 0.330167323351
vn 0.849506735802 -0.261299729347 0.458323866129
vn 0.814908504486 -0.294298231602 0.499312281609
vn 0.871731877327 -0.239957660437 0.427204668522
vn 0.871731877327 -0.239957660437 0.427204668522
vn 0.892940104008 -0.233600422740 0.384823083878
vn 0.849506735802 -0.261299729347 0.458323866129
vn 0.814908504486 -0.294298231602 0.499312281609
vn 0.752567887306 -0.353062987328 0.555867016315
vn 0.827151298523 -0.287123590708 0.483094930649
vn 0.827151298523 -0.287123590708 0.483094930649
vn 0.871731877327 -0.239957660437 0.427204668522
vn 0.814908504486 -0.294298231602 0.499312281609
vn 0.752567887306 -0.353062987328 0.555867016315
vn 0.677364468575 -0.417379826307 0.605781733990
vn 0.761488616467 -0.345608502626 0.548352003098
vn 0.761488616467 -0.345608502626 0.548352003098
vn 0.827151298523 -0.287123590708 0.483094930649
vn 0.752567887306 -0.353062987328 0.555867016315
vn 0.677364468575 -0.417379826307 0.605781733990
vn 0.665992140770 -0.435818493366 0.605406343937
vn 0.693441331387 -0.409781605005 0.592636644840
vn 0.693441331387 -0.409781605005 0.592636644840
vn 0.761488616467 -0.345608502626 0.548352003098
vn 0.677364468575 -0.417379826307 0.605781733990
# 30 vertex normals

vt 0.172000527382 0.444496572018 0.000000000000
vt 0.532240331173 0.465290009975 0.000000000000
vt 0.029597215354 0.582752406597 0.000000000000
vt 0.029667764902 0.480384379625 0.000000000000
vt 0.570518612862 0.572833836079 0.000000000000
vt 0.071794539690 0.698582351208 0.000000000000
vt 0.601830661297 0.691408395767 0.000000000000
vt 0.177892565727 0.798300266266 0.000000000000
vt 0.640115678310 0.808224797249 0.000000000000
vt 0.311817348003 0.891002118587 0.000000000000
vt 0.662200212479 0.911505401134 0.000000000000
vt 0.508752226830 0.950195789337 0.000000000000
# 12 texture coords

g wing_top001
f 30/25/57 24/24/56 23/23/55 
f 23/23/60 29/26/59 30/25/58 
f 31/28/63 25/27/62 24/24/61 
f 24/24/66 30/25/65 31/28/64 
f 32/30/69 26/29/68 25/27/67 
f 25/27/72 31/28/71 32/30/70 
f 33/32/75 27/31/74 26/29/73 
f 26/29/78 32/30/77 33/32/76 
f 34/34/81 28/33/80 27/31/79 
f 27/31/84 33/32/83 34/34/82 
# 10 faces

#
# object wing_bottom001
#

v  0.408264875412 -0.483103066683 -0.864896178246
v  0.351590216160 -0.544284522533 -0.763568639755
v  0.254873842001 -0.448530495167 -0.557707369328
v  0.158189758658 -0.522989034653 -0.427879989147
v  0.044124692678 -0.114348180592 -0.024316847324
v  0.375710964203 0.117255657911 -0.503407239914
v  0.311301618814 0.241360455751 -0.288858950138
v  0.241270005703 0.164796859026 -0.174335196614
v  0.150750130415 0.082233041525 -0.045288443565
v  0.030425697565 0.028824210167 0.040544748306
# 10 vertices

vn 0.902047157288 -0.188151061535 0.388471484184
vn 0.880427777767 -0.217227533460 0.421496331692
vn 0.894574880600 -0.196117043495 0.401589155197
vn 0.894574880600 -0.196117043495 0.401589155197
vn 0.909890055656 -0.176668852568 0.375350803137
vn 0.902047157288 -0.188151061535 0.388471484184
vn 0.880427777767 -0.217227533460 0.421496331692
vn 0.816567003727 -0.295564770699 0.495842576027
vn 0.871495366096 -0.234404265881 0.430755704641
vn 0.871495366096 -0.234404265881 0.430755704641
vn 0.894574880600 -0.196117043495 0.401589155197
vn 0.880427777767 -0.217227533460 0.421496331692
vn 0.816567003727 -0.295564770699 0.495842576027
vn 0.827137649059 -0.288971990347 0.482014954090
vn 0.760475158691 -0.336692333221 0.555261909962
vn 0.760475158691 -0.336692333221 0.555261909962
vn 0.871495366096 -0.234404265881 0.430755704641
vn 0.816567003727 -0.295564770699 0.495842576027
vn 0.827137649059 -0.288971990347 0.482014954090
vn 0.944339454174 -0.056467063725 0.324090361595
vn 0.713417828083 -0.350101172924 0.607012510300
vn 0.713417828083 -0.350101172924 0.607012510300
vn 0.760475158691 -0.336692333221 0.555261909962
vn 0.827137649059 -0.288971990347 0.482014954090
# 24 vertex normals

vt 0.961491942406 0.201067015529 0.000000000000
vt 0.926442384720 0.291900604963 0.000000000000
vt 0.281795173883 0.055390074849 0.000000000000
vt 0.469241410494 0.020468384027 0.000000000000
vt 0.751629769802 0.350132197142 0.000000000000
vt 0.244707003236 0.164150431752 0.000000000000
vt 0.700475394726 0.472647666931 0.000000000000
vt 0.199021831155 0.288672387600 0.000000000000
vt 0.268634766340 0.438634812832 0.000000000000
vt 0.158788844943 0.398334026337 0.000000000000
# 10 texture coords

g wing_bottom001
f 41/37/87 36/36/86 35/35/85 
f 35/35/90 40/38/89 41/37/88 
f 42/40/93 37/39/92 36/36/91 
f 36/36/96 41/37/95 42/40/94 
f 43/42/99 38/41/98 37/39/97 
f 37/39/102 42/40/101 43/42/100 
f 44/44/105 39/43/104 38/41/103 
f 38/41/108 43/42/107 44/44/106 
# 8 faces

