# 3ds Max Wavefront OBJ Exporter v0.97b - (c)2007 guruware
# File Created: 16.02.2019 08:06:27

#
# object wing_top
#

#
# object wing_bottom
#

#
# object body
#

v  0.048046335578 0.246356025338 0.069463282824
v  0.056162253022 0.211745694280 0.123935662210
v  -0.056162238121 0.211745694280 0.123935662210
v  -0.048046320677 0.246356025338 0.069463275373
v  0.000000007927 0.252214729786 0.057816483080
v  0.043789066374 0.199659258127 0.046481892467
v  0.031223701313 0.182876855135 0.093524143100
v  -0.031223695725 0.182876855135 0.093524143100
v  -0.046484149992 0.199659258127 0.046481885016
v  0.000000009313 0.207013726234 0.033611275256
v  0.052614811808 0.098581641912 -0.004841845483
v  0.030973909423 0.073151499033 0.051464304328
v  -0.030973905697 0.073151499033 0.051464304328
v  -0.055309880525 0.098581641912 -0.004841856658
v  0.000000005627 0.106221303344 -0.018067158759
v  0.052268475294 -0.056231260300 -0.066794596612
v  0.026134239510 -0.077644944191 -0.031155318022
v  -0.026134230196 -0.077644944191 -0.031155318022
v  -0.046878270805 -0.056231260300 -0.066794596612
v  0.000000006768 -0.048755288124 -0.083983063698
v  0.023743003607 -0.154971033335 -0.090912669897
v  -0.023743003607 -0.154971033335 -0.090912669897
v  0.000000006060 -0.156169623137 -0.110723569989
v  0.052376620471 0.247186109424 0.133483305573
v  0.048026133329 0.282852590084 0.092084392905
v  0.000000007939 0.275038957596 0.073586225510
v  -0.048026122153 0.282852590084 0.092084392905
v  -0.052376613021 0.247186109424 0.133483320475
v  0.067752040923 0.272190123796 0.113808520138
v  0.076082013547 0.228207334876 0.091382376850
v  -0.067752040923 0.272190123796 0.113808512688
v  -0.076082013547 0.228207334876 0.091382369399
v  0.000000005623 0.249837011099 0.140958249569
v  0.000000003771 0.280836910009 0.124742873013
v  0.000000003657 0.291626304388 0.096488535404
v  0.000000000478 -0.172210484743 -0.092213407159
v  0.000000003958 -0.079780727625 -0.026378907263
v  0.000000003754 0.070892751217 0.056184485555
v  0.000000005587 0.180288001895 0.098712369800
v  0.000000003738 0.209122925997 0.129106566310
# 40 vertices

vn -0.499191552401 0.423813045025 -0.755771458149
vn 0.000000069545 0.520438611507 -0.853899180889
vn 0.006427251268 0.458859443665 -0.888485789299
vn 0.006427251268 0.458859443665 -0.888485789299
vn -0.814685523510 0.137239247561 -0.563429653645
vn -0.499191552401 0.423813045025 -0.755771458149
vn 0.502663552761 0.413576930761 -0.759133517742
vn 0.803763687611 0.135513499379 -0.579309999943
vn 0.006427251268 0.458859443665 -0.888485789299
vn 0.006427251268 0.458859443665 -0.888485789299
vn 0.000000069545 0.520438611507 -0.853899180889
vn 0.502663552761 0.413576930761 -0.759133517742
vn 0.579149484634 -0.600656867027 0.551178157330
vn 0.636469066143 -0.332364469767 0.696018099785
vn 0.888746500015 0.193506568670 -0.415553659201
vn 0.888746500015 0.193506568670 -0.415553659201
vn 0.803763687611 0.135513499379 -0.579309999943
vn 0.579149484634 -0.600656867027 0.551178157330
vn -0.567725062370 -0.597653090954 0.566126465797
vn -0.814685523510 0.137239247561 -0.563429653645
vn -0.894795954227 0.184888020158 -0.406394690275
vn -0.894795954227 0.184888020158 -0.406394690275
vn -0.622122645378 -0.337059497833 0.706650197506
vn -0.567725062370 -0.597653090954 0.566126465797
vn 0.006427251268 0.458859443665 -0.888485789299
vn 0.006487081759 0.424562603235 -0.905375480652
vn -0.894795954227 0.184888020158 -0.406394690275
vn -0.894795954227 0.184888020158 -0.406394690275
vn -0.814685523510 0.137239247561 -0.563429653645
vn 0.006427251268 0.458859443665 -0.888485789299
vn 0.006427251268 0.458859443665 -0.888485789299
vn 0.803763687611 0.135513499379 -0.579309999943
vn 0.888746500015 0.193506568670 -0.415553659201
vn 0.888746500015 0.193506568670 -0.415553659201
vn 0.006487081759 0.424562603235 -0.905375480652
vn 0.006427251268 0.458859443665 -0.888485789299
vn 0.888746500015 0.193506568670 -0.415553659201
vn 0.636469066143 -0.332364469767 0.696018099785
vn 0.572736024857 -0.437385648489 0.693301796913
vn 0.572736024857 -0.437385648489 0.693301796913
vn 0.939932048321 0.016241274774 -0.340974986553
vn 0.888746500015 0.193506568670 -0.415553659201
vn -0.894795954227 0.184888020158 -0.406394690275
vn -0.925394117832 0.022096469998 -0.378361582756
vn -0.604291915894 -0.433898687363 0.668253958225
vn -0.604291915894 -0.433898687363 0.668253958225
vn -0.622122645378 -0.337059497833 0.706650197506
vn -0.894795954227 0.184888020158 -0.406394690275
vn -0.894795954227 0.184888020158 -0.406394690275
vn 0.006487081759 0.424562603235 -0.905375480652
vn -0.014833885245 0.306936651468 -0.951614439487
vn -0.014833885245 0.306936651468 -0.951614439487
vn -0.925394117832 0.022096469998 -0.378361582756
vn -0.894795954227 0.184888020158 -0.406394690275
vn 0.888746500015 0.193506568670 -0.415553659201
vn 0.939932048321 0.016241274774 -0.340974986553
vn -0.014833885245 0.306936651468 -0.951614439487
vn -0.014833885245 0.306936651468 -0.951614439487
vn 0.006487081759 0.424562603235 -0.905375480652
vn 0.888746500015 0.193506568670 -0.415553659201
vn 0.939932048321 0.016241274774 -0.340974986553
vn 0.572736024857 -0.437385648489 0.693301796913
vn 0.830922007561 -0.551536321640 -0.073323741555
vn -0.604291915894 -0.433898687363 0.668253958225
vn -0.925394117832 0.022096469998 -0.378361582756
vn -0.841830074787 -0.533995270729 -0.078557327390
vn -0.925394117832 0.022096469998 -0.378361582756
vn -0.014833885245 0.306936651468 -0.951614439487
vn -0.005174338352 -0.318192154169 -0.948012173176
vn -0.005174338352 -0.318192154169 -0.948012173176
vn -0.841830074787 -0.533995270729 -0.078557327390
vn -0.925394117832 0.022096469998 -0.378361582756
vn 0.939932048321 0.016241274774 -0.340974986553
vn 0.830922007561 -0.551536321640 -0.073323741555
vn -0.005174338352 -0.318192154169 -0.948012173176
vn -0.005174338352 -0.318192154169 -0.948012173176
vn -0.014833885245 0.306936651468 -0.951614439487
vn 0.939932048321 0.016241274774 -0.340974986553
vn 0.502663552761 0.413576930761 -0.759133517742
vn 0.000000069545 0.520438611507 -0.853899180889
vn 0.000000081357 0.662177145481 -0.749347507954
vn 0.000000081357 0.662177145481 -0.749347507954
vn 0.430624842644 0.836394369602 -0.339126557112
vn 0.502663552761 0.413576930761 -0.759133517742
vn -0.499191552401 0.423813045025 -0.755771458149
vn -0.430624723434 0.836394429207 -0.339126646519
vn 0.000000081357 0.662177145481 -0.749347507954
vn 0.000000081357 0.662177145481 -0.749347507954
vn 0.000000069545 0.520438611507 -0.853899180889
vn -0.499191552401 0.423813045025 -0.755771458149
vn 0.430624842644 0.836394369602 -0.339126557112
vn 0.760609924793 0.578657329082 0.294326990843
vn 0.979396641254 -0.133723095059 -0.151328563690
vn 0.979396641254 -0.133723095059 -0.151328563690
vn 0.502663552761 0.413576930761 -0.759133517742
vn 0.430624842644 0.836394369602 -0.339126557112
vn 0.760609924793 0.578657329082 0.294326990843
vn 0.448338270187 0.093504697084 0.888960003853
vn 0.562889218330 -0.518147647381 0.643955647945
vn 0.562889218330 -0.518147647381 0.643955647945
vn 0.979396641254 -0.133723095059 -0.151328563690
vn 0.760609924793 0.578657329082 0.294326990843
vn -0.465627402067 0.088182240725 0.880576610565
vn -0.764406144619 0.571922361851 0.297637611628
vn -0.983195006847 -0.124873742461 -0.133169740438
vn -0.983195006847 -0.124873742461 -0.133169740438
vn -0.568899333477 -0.510867595673 0.644490480423
vn -0.465627402067 0.088182240725 0.880576610565
vn -0.983195006847 -0.124873742461 -0.133169740438
vn -0.764406144619 0.571922361851 0.297637611628
vn -0.430624723434 0.836394429207 -0.339126646519
vn -0.430624723434 0.836394429207 -0.339126646519
vn -0.499191552401 0.423813045025 -0.755771458149
vn -0.983195006847 -0.124873742461 -0.133169740438
vn 0.562889218330 -0.518147647381 0.643955647945
vn 0.579149484634 -0.600656867027 0.551178157330
vn 0.979396641254 -0.133723095059 -0.151328563690
vn 0.579149484634 -0.600656867027 0.551178157330
vn 0.803763687611 0.135513499379 -0.579309999943
vn 0.979396641254 -0.133723095059 -0.151328563690
vn 0.979396641254 -0.133723095059 -0.151328563690
vn 0.803763687611 0.135513499379 -0.579309999943
vn 0.502663552761 0.413576930761 -0.759133517742
vn -0.568899333477 -0.510867595673 0.644490480423
vn -0.983195006847 -0.124873742461 -0.133169740438
vn -0.567725062370 -0.597653090954 0.566126465797
vn -0.499191552401 0.423813045025 -0.755771458149
vn -0.814685523510 0.137239247561 -0.563429653645
vn -0.983195006847 -0.124873742461 -0.133169740438
vn -0.983195006847 -0.124873742461 -0.133169740438
vn -0.814685523510 0.137239247561 -0.563429653645
vn -0.567725062370 -0.597653090954 0.566126465797
vn -0.465627402067 0.088182240725 0.880576610565
vn 0.000000042630 0.112824589014 0.993615031242
vn 0.000000024215 0.756249785423 0.654283165932
vn 0.000000024215 0.756249785423 0.654283165932
vn -0.764406144619 0.571922361851 0.297637611628
vn -0.465627402067 0.088182240725 0.880576610565
vn 0.000000024215 0.756249785423 0.654283165932
vn 0.000000042630 0.112824589014 0.993615031242
vn 0.448338270187 0.093504697084 0.888960003853
vn 0.448338270187 0.093504697084 0.888960003853
vn 0.760609924793 0.578657329082 0.294326990843
vn 0.000000024215 0.756249785423 0.654283165932
vn -0.430624723434 0.836394429207 -0.339126646519
vn -0.764406144619 0.571922361851 0.297637611628
vn 0.000000024215 0.756249785423 0.654283165932
vn 0.000000024215 0.756249785423 0.654283165932
vn 0.000000025874 0.995077669621 -0.099098891020
vn -0.430624723434 0.836394429207 -0.339126646519
vn 0.000000024215 0.756249785423 0.654283165932
vn 0.760609924793 0.578657329082 0.294326990843
vn 0.430624842644 0.836394369602 -0.339126557112
vn 0.430624842644 0.836394369602 -0.339126557112
vn 0.000000025874 0.995077669621 -0.099098891020
vn 0.000000024215 0.756249785423 0.654283165932
vn 0.430624842644 0.836394369602 -0.339126557112
vn 0.000000081357 0.662177145481 -0.749347507954
vn 0.000000025874 0.995077669621 -0.099098891020
vn -0.430624723434 0.836394429207 -0.339126646519
vn 0.000000025874 0.995077669621 -0.099098891020
vn 0.000000081357 0.662177145481 -0.749347507954
vn -0.604291915894 -0.433898687363 0.668253958225
vn -0.841830074787 -0.533995270729 -0.078557327390
vn -0.000000128333 -0.997791111469 0.066431373358
vn -0.000000128333 -0.997791111469 0.066431373358
vn 0.000000004879 -0.530408382416 0.847742378712
vn -0.604291915894 -0.433898687363 0.668253958225
vn -0.000000128333 -0.997791111469 0.066431373358
vn 0.830922007561 -0.551536321640 -0.073323741555
vn 0.572736024857 -0.437385648489 0.693301796913
vn 0.572736024857 -0.437385648489 0.693301796913
vn 0.000000004879 -0.530408382416 0.847742378712
vn -0.000000128333 -0.997791111469 0.066431373358
vn -0.604291915894 -0.433898687363 0.668253958225
vn 0.000000004879 -0.530408382416 0.847742378712
vn 0.000000023680 -0.422676801682 0.906280636787
vn 0.000000023680 -0.422676801682 0.906280636787
vn -0.622122645378 -0.337059497833 0.706650197506
vn -0.604291915894 -0.433898687363 0.668253958225
vn 0.000000023680 -0.422676801682 0.906280636787
vn 0.000000004879 -0.530408382416 0.847742378712
vn 0.572736024857 -0.437385648489 0.693301796913
vn 0.572736024857 -0.437385648489 0.693301796913
vn 0.636469066143 -0.332364469767 0.696018099785
vn 0.000000023680 -0.422676801682 0.906280636787
vn -0.567725062370 -0.597653090954 0.566126465797
vn -0.622122645378 -0.337059497833 0.706650197506
vn 0.000000023680 -0.422676801682 0.906280636787
vn 0.000000023680 -0.422676801682 0.906280636787
vn 0.000000009634 -0.560199975967 0.828357517719
vn -0.567725062370 -0.597653090954 0.566126465797
vn 0.000000023680 -0.422676801682 0.906280636787
vn 0.636469066143 -0.332364469767 0.696018099785
vn 0.579149484634 -0.600656867027 0.551178157330
vn 0.579149484634 -0.600656867027 0.551178157330
vn 0.000000009634 -0.560199975967 0.828357517719
vn 0.000000023680 -0.422676801682 0.906280636787
vn -0.567725062370 -0.597653090954 0.566126465797
vn 0.000000009634 -0.560199975967 0.828357517719
vn -0.000000007582 -0.533256530762 0.845953762531
vn -0.000000007582 -0.533256530762 0.845953762531
vn -0.568899333477 -0.510867595673 0.644490480423
vn -0.567725062370 -0.597653090954 0.566126465797
vn -0.000000007582 -0.533256530762 0.845953762531
vn 0.000000009634 -0.560199975967 0.828357517719
vn 0.579149484634 -0.600656867027 0.551178157330
vn 0.579149484634 -0.600656867027 0.551178157330
vn 0.562889218330 -0.518147647381 0.643955647945
vn -0.000000007582 -0.533256530762 0.845953762531
vn -0.568899333477 -0.510867595673 0.644490480423
vn -0.000000007582 -0.533256530762 0.845953762531
vn 0.000000042630 0.112824589014 0.993615031242
vn 0.000000042630 0.112824589014 0.993615031242
vn -0.465627402067 0.088182240725 0.880576610565
vn -0.568899333477 -0.510867595673 0.644490480423
vn 0.562889218330 -0.518147647381 0.643955647945
vn 0.448338270187 0.093504697084 0.888960003853
vn 0.000000042630 0.112824589014 0.993615031242
vn 0.000000042630 0.112824589014 0.993615031242
vn -0.000000007582 -0.533256530762 0.845953762531
vn 0.562889218330 -0.518147647381 0.643955647945
vn -0.841830074787 -0.533995270729 -0.078557327390
vn -0.005174338352 -0.318192154169 -0.948012173176
vn -0.000000128333 -0.997791111469 0.066431373358
vn 0.830922007561 -0.551536321640 -0.073323741555
vn -0.000000128333 -0.997791111469 0.066431373358
vn -0.005174338352 -0.318192154169 -0.948012173176
# 228 vertex normals

vt 0.753035724163 0.886721193790 0.000000000000
vt 0.719503402710 0.904906511307 0.000000000000
vt 0.698215723038 0.858432054520 0.000000000000
vt 0.747072219849 0.845933198929 0.000000000000
vt 0.887873291969 0.889981865883 0.000000000000
vt 0.897057652473 0.850141942501 0.000000000000
vt 0.851314008236 0.848109364510 0.000000000000
vt 0.853834033012 0.730627834797 0.000000000000
vt 0.919037878513 0.730813264847 0.000000000000
vt 0.793623924255 0.846300959587 0.000000000000
vt 0.731680870056 0.727377533913 0.000000000000
vt 0.797187447548 0.729494333267 0.000000000000
vt 0.668630838394 0.729503095150 0.000000000000
vt 0.852950096130 0.549025237560 0.000000000000
vt 0.902869582176 0.549864888191 0.000000000000
vt 0.753911137581 0.545082151890 0.000000000000
vt 0.802278757095 0.547512590885 0.000000000000
vt 0.699471175671 0.522570848465 0.000000000000
vt 0.857750117779 0.436367332935 0.000000000000
vt 0.809522569180 0.433996051550 0.000000000000
vt 0.792045414448 0.400712519884 0.000000000000
vt 0.899026036263 0.926988840103 0.000000000000
vt 0.872659087181 0.907634258270 0.000000000000
vt 0.767565429211 0.905359148979 0.000000000000
vt 0.864694416523 0.900047004223 0.000000000000
vt 0.870684146881 0.883238255978 0.000000000000
vt 0.851395368576 0.896499991417 0.000000000000
vt 0.854031205177 0.879422068596 0.000000000000
vt 0.788714826107 0.877313017845 0.000000000000
vt 0.789521098137 0.894520819187 0.000000000000
vt 0.775916635990 0.898116290569 0.000000000000
vt 0.771221458912 0.880404770374 0.000000000000
vt 0.820262610912 0.913165688515 0.000000000000
vt 0.793155193329 0.931439459324 0.000000000000
vt 0.874265789986 0.936673283577 0.000000000000
vt 0.834874987602 0.405823737383 0.000000000000
vt 0.827715158463 0.548432707787 0.000000000000
vt 0.825474500656 0.729990482330 0.000000000000
vt 0.822474241257 0.845734238625 0.000000000000
vt 0.821426272392 0.877491772175 0.000000000000
vt 0.920006930828 0.909254670143 0.000000000000
vt 0.942755639553 0.864461421967 0.000000000000
vt 0.979405701160 0.736816763878 0.000000000000
vt 0.962355971336 0.529134511948 0.000000000000
vt 0.878073632717 0.404535442591 0.000000000000
vt 0.740020632744 0.923756062984 0.000000000000
vt 0.846273779869 0.932400226593 0.000000000000
vt 0.764673650265 0.934609770775 0.000000000000
# 48 texture coords

g body
f 4/1/1 5/2/2 10/3/3 
f 10/3/4 9/4/5 4/1/6 
f 1/5/7 6/6/8 10/42/9 
f 10/42/10 5/41/11 1/5/12 
f 7/7/13 12/8/14 11/9/15 
f 11/9/16 6/6/17 7/7/18 
f 8/10/19 9/4/20 14/11/21 
f 14/11/22 13/12/23 8/10/24 
f 10/3/25 15/13/26 14/11/27 
f 14/11/28 9/4/29 10/3/30 
f 10/42/31 6/6/32 11/9/33 
f 11/9/34 15/43/35 10/42/36 
f 11/9/37 12/8/38 17/14/39 
f 17/14/40 16/15/41 11/9/42 
f 14/11/43 19/16/44 18/17/45 
f 18/17/46 13/12/47 14/11/48 
f 14/11/49 15/13/50 20/18/51 
f 20/18/52 19/16/53 14/11/54 
f 11/9/55 16/15/56 20/44/57 
f 20/44/58 15/43/59 11/9/60 
f 16/15/61 17/14/62 21/19/63 
f 18/17/64 19/16/65 22/20/66 
f 19/16/67 20/18/68 23/21/69 
f 23/21/70 22/20/71 19/16/72 
f 16/15/73 21/19/74 23/45/75 
f 23/45/76 20/44/77 16/15/78 
f 1/5/79 5/41/80 26/22/81 
f 26/22/82 25/23/83 1/5/84 
f 4/1/85 27/24/86 26/46/87 
f 26/46/88 5/2/89 4/1/90 
f 25/23/91 29/25/92 30/26/93 
f 30/26/94 1/5/95 25/23/96 
f 29/25/97 24/27/98 2/28/99 
f 2/28/100 30/26/101 29/25/102 
f 28/30/103 31/31/104 32/32/105 
f 32/32/106 3/29/107 28/30/108 
f 32/32/109 31/31/110 27/24/111 
f 27/24/112 4/1/113 32/32/114 
f 2/28/115 7/7/116 30/26/117 
f 7/7/118 6/6/119 30/26/120 
f 30/26/121 6/6/122 1/5/123 
f 3/29/124 32/32/125 8/10/126 
f 4/1/127 9/4/128 32/32/129 
f 32/32/130 9/4/131 8/10/132 
f 28/30/133 33/33/134 34/34/135 
f 34/34/136 31/31/137 28/30/138 
f 34/47/139 33/33/140 24/27/141 
f 24/27/142 29/25/143 34/47/144 
f 27/24/145 31/31/146 34/34/147 
f 34/34/148 35/48/149 27/24/150 
f 34/47/151 29/25/152 25/23/153 
f 25/23/154 35/35/155 34/47/156 
f 25/23/157 26/22/158 35/35/159 
f 27/24/160 35/48/161 26/46/162 
f 18/17/163 22/20/164 36/36/165 
f 36/36/166 37/37/167 18/17/168 
f 36/36/169 21/19/170 17/14/171 
f 17/14/172 37/37/173 36/36/174 
f 18/17/175 37/37/176 38/38/177 
f 38/38/178 13/12/179 18/17/180 
f 38/38/181 37/37/182 17/14/183 
f 17/14/184 12/8/185 38/38/186 
f 8/10/187 13/12/188 38/38/189 
f 38/38/190 39/39/191 8/10/192 
f 38/38/193 12/8/194 7/7/195 
f 7/7/196 39/39/197 38/38/198 
f 8/10/199 39/39/200 40/40/201 
f 40/40/202 3/29/203 8/10/204 
f 40/40/205 39/39/206 7/7/207 
f 7/7/208 2/28/209 40/40/210 
f 3/29/211 40/40/212 33/33/213 
f 33/33/214 28/30/215 3/29/216 
f 2/28/217 24/27/218 33/33/219 
f 33/33/220 40/40/221 2/28/222 
f 22/20/223 23/21/224 36/36/225 
f 21/19/226 36/36/227 23/45/228 
# 76 faces

#
# object wing_top001
#

#
# object wing_bottom001
#

