# 3ds Max Wavefront OBJ Exporter v0.97b - (c)2007 guruware
# File Created: 16.02.2019 08:04:27

#
# object wing_top
#

v  -0.815496921539 0.373123884201 0.140972852707
v  -0.625597238541 0.003447651863 -0.057569175959
v  -0.462592244148 0.001985669136 -0.054026514292
v  -0.305312693119 0.014786422253 -0.026468515396
v  -0.144792348146 0.011294126511 -0.015271395445
v  -0.033812105656 0.023447632790 0.009303122759
v  -0.841139495373 0.527459740639 0.254910230637
v  -0.714285016060 0.573073685169 0.259580969810
v  -0.551571249962 0.574860930443 0.260770559311
v  -0.379054635763 0.501061558723 0.228215813637
v  -0.201921731234 0.373611003160 0.183154523373
v  -0.040757507086 0.199814766645 0.111251533031
# 12 vertices

vn -0.005014449358 -0.508296966553 0.861167252064
vn -0.024144440889 -0.485633850098 0.873828828335
vn 0.042536705732 -0.513868033886 0.856814086437
vn 0.042536705732 -0.513868033886 0.856814086437
vn 0.173858523369 -0.566024661064 0.805847048759
vn -0.005014449358 -0.508296966553 0.861167252064
vn -0.024144440889 -0.485633850098 0.873828828335
vn -0.063982911408 -0.480740666389 0.874525368214
vn -0.018808379769 -0.486352413893 0.873560249805
vn -0.018808379769 -0.486352413893 0.873560249805
vn 0.042536705732 -0.513868033886 0.856814086437
vn -0.024144440889 -0.485633850098 0.873828828335
vn -0.063982911408 -0.480740666389 0.874525368214
vn -0.097789794207 -0.479938775301 0.871834814548
vn -0.070852696896 -0.482385784388 0.873088717461
vn -0.070852696896 -0.482385784388 0.873088717461
vn -0.018808379769 -0.486352413893 0.873560249805
vn -0.063982911408 -0.480740666389 0.874525368214
vn -0.097789794207 -0.479938775301 0.871834814548
vn -0.106535486877 -0.492905884981 0.863535761833
vn -0.119340188801 -0.480230152607 0.868986189365
vn -0.119340188801 -0.480230152607 0.868986189365
vn -0.070852696896 -0.482385784388 0.873088717461
vn -0.097789794207 -0.479938775301 0.871834814548
vn -0.106535486877 -0.492905884981 0.863535761833
vn -0.134709239006 -0.499861419201 0.855565249920
vn -0.146417587996 -0.494283497334 0.856881380081
vn -0.146417587996 -0.494283497334 0.856881380081
vn -0.119340188801 -0.480230152607 0.868986189365
vn -0.106535486877 -0.492905884981 0.863535761833
# 30 vertex normals

vt 0.172000527382 0.444496572018 0.000000000000
vt 0.532240331173 0.465290009975 0.000000000000
vt 0.029597215354 0.582752406597 0.000000000000
vt 0.029667764902 0.480384379625 0.000000000000
vt 0.570518612862 0.572833836079 0.000000000000
vt 0.071794539690 0.698582351208 0.000000000000
vt 0.601830661297 0.691408395767 0.000000000000
vt 0.177892565727 0.798300266266 0.000000000000
vt 0.640115678310 0.808224797249 0.000000000000
vt 0.311817348003 0.891002118587 0.000000000000
vt 0.662200212479 0.911505401134 0.000000000000
vt 0.508752226830 0.950195789337 0.000000000000
# 12 texture coords

g wing_top
f 1/1/1 2/2/2 8/3/3 
f 8/3/4 7/4/5 1/1/6 
f 2/2/7 3/5/8 9/6/9 
f 9/6/10 8/3/11 2/2/12 
f 3/5/13 4/7/14 10/8/15 
f 10/8/16 9/6/17 3/5/18 
f 4/7/19 5/9/20 11/10/21 
f 11/10/22 10/8/23 4/7/24 
f 5/9/25 6/11/26 12/12/27 
f 12/12/28 11/10/29 5/9/30 
# 10 faces

#
# object wing_bottom
#

v  -0.707607090473 -0.724505007267 -0.431291639805
v  -0.581292629242 -0.743143498898 -0.400965541601
v  -0.414399176836 -0.580122709274 -0.320513606071
v  -0.238122209907 -0.593877375126 -0.298506408930
v  -0.045314311981 -0.097654931247 -0.064885824919
v  -0.657240033150 -0.070756085217 -0.181812196970
v  -0.515797793865 0.112132161856 -0.071686983109
v  -0.366489350796 0.085732698441 -0.041818261147
v  -0.191925168037 0.062564715743 -0.016238868237
v  -0.035692274570 0.047335594893 -0.005203038454
# 10 vertices

vn -0.267861455679 -0.327971875668 0.905916571617
vn -0.221400856972 -0.341748476028 0.913339853287
vn -0.251403778791 -0.330391108990 0.909746050835
vn -0.251403778791 -0.330391108990 0.909746050835
vn -0.285804450512 -0.322363793850 0.902439773083
vn -0.267861455679 -0.327971875668 0.905916571617
vn -0.221400856972 -0.341748476028 0.913339853287
vn -0.102279335260 -0.380739331245 0.919008433819
vn -0.203303992748 -0.353282809258 0.913158655167
vn -0.203303992748 -0.353282809258 0.913158655167
vn -0.251403778791 -0.330391108990 0.909746050835
vn -0.221400856972 -0.341748476028 0.913339853287
vn -0.102279335260 -0.380739331245 0.919008433819
vn -0.139834031463 -0.382391780615 0.913358092308
vn -0.139554768801 -0.379008442163 0.914809942245
vn -0.139554768801 -0.379008442163 0.914809942245
vn -0.203303992748 -0.353282809258 0.913158655167
vn -0.102279335260 -0.380739331245 0.919008433819
vn -0.139834031463 -0.382391780615 0.913358092308
vn -0.168107569218 -0.365667998791 0.915438055992
vn -0.111722953618 -0.383980423212 0.916557133198
vn -0.111722953618 -0.383980423212 0.916557133198
vn -0.139554768801 -0.379008442163 0.914809942245
vn -0.139834031463 -0.382391780615 0.913358092308
# 24 vertex normals

vt 0.961491942406 0.201067015529 0.000000000000
vt 0.926442384720 0.291900604963 0.000000000000
vt 0.281795173883 0.055390074849 0.000000000000
vt 0.469241410494 0.020468384027 0.000000000000
vt 0.751629769802 0.350132197142 0.000000000000
vt 0.244707003236 0.164150431752 0.000000000000
vt 0.700475394726 0.472647666931 0.000000000000
vt 0.199021831155 0.288672387600 0.000000000000
vt 0.268634766340 0.438634812832 0.000000000000
vt 0.158788844943 0.398334026337 0.000000000000
# 10 texture coords

g wing_bottom
f 13/13/31 14/14/32 19/15/33 
f 19/15/34 18/16/35 13/13/36 
f 14/14/37 15/17/38 20/18/39 
f 20/18/40 19/15/41 14/14/42 
f 15/17/43 16/19/44 21/20/45 
f 21/20/46 20/18/47 15/17/48 
f 16/19/49 17/21/50 22/22/51 
f 22/22/52 21/20/53 16/19/54 
# 8 faces

#
# object body
#

#
# object wing_top001
#

v  0.815496921539 0.373123854399 0.140972852707
v  0.625597238541 0.003447592258 -0.057569175959
v  0.462592244148 0.001985609531 -0.054026514292
v  0.305312693119 0.014786362648 -0.026468515396
v  0.144792348146 0.011294066906 -0.015271395445
v  0.033812105656 0.023447573185 0.009303122759
v  0.841139495373 0.527459740639 0.254910171032
v  0.714285016060 0.573073685169 0.259580910206
v  0.551571249962 0.574860930443 0.260770499706
v  0.379054635763 0.501061558723 0.228215754032
v  0.201921731234 0.373610973358 0.183154523373
v  0.040757507086 0.199814736843 0.111251503229
# 12 vertices

vn 0.005014449358 -0.508296906948 0.861167311668
vn 0.024144440889 -0.485633790493 0.873828887939
vn -0.042536705732 -0.513867974281 0.856814146042
vn -0.042536705732 -0.513867974281 0.856814146042
vn -0.173858523369 -0.566024541855 0.805847108364
vn 0.005014449358 -0.508296906948 0.861167311668
vn 0.024144440889 -0.485633790493 0.873828887939
vn 0.063982911408 -0.480740606785 0.874525427818
vn 0.018808379769 -0.486352354288 0.873560309410
vn 0.018808379769 -0.486352354288 0.873560309410
vn -0.042536705732 -0.513867974281 0.856814146042
vn 0.024144440889 -0.485633790493 0.873828887939
vn 0.063982911408 -0.480740606785 0.874525427818
vn 0.097789794207 -0.479938715696 0.871834874153
vn 0.070852696896 -0.482385724783 0.873088777065
vn 0.070852696896 -0.482385724783 0.873088777065
vn 0.018808379769 -0.486352354288 0.873560309410
vn 0.063982911408 -0.480740606785 0.874525427818
vn 0.097789794207 -0.479938715696 0.871834874153
vn 0.106535486877 -0.492905825377 0.863535821438
vn 0.119340188801 -0.480230093002 0.868986248970
vn 0.119340188801 -0.480230093002 0.868986248970
vn 0.070852696896 -0.482385724783 0.873088777065
vn 0.097789794207 -0.479938715696 0.871834874153
vn 0.106535486877 -0.492905825377 0.863535821438
vn 0.134709239006 -0.499861359596 0.855565309525
vn 0.146417587996 -0.494283437729 0.856881439686
vn 0.146417587996 -0.494283437729 0.856881439686
vn 0.119340188801 -0.480230093002 0.868986248970
vn 0.106535486877 -0.492905825377 0.863535821438
# 30 vertex normals

vt 0.172000527382 0.444496572018 0.000000000000
vt 0.532240331173 0.465290009975 0.000000000000
vt 0.029597215354 0.582752406597 0.000000000000
vt 0.029667764902 0.480384379625 0.000000000000
vt 0.570518612862 0.572833836079 0.000000000000
vt 0.071794539690 0.698582351208 0.000000000000
vt 0.601830661297 0.691408395767 0.000000000000
vt 0.177892565727 0.798300266266 0.000000000000
vt 0.640115678310 0.808224797249 0.000000000000
vt 0.311817348003 0.891002118587 0.000000000000
vt 0.662200212479 0.911505401134 0.000000000000
vt 0.508752226830 0.950195789337 0.000000000000
# 12 texture coords

g wing_top001
f 30/25/57 24/24/56 23/23/55 
f 23/23/60 29/26/59 30/25/58 
f 31/28/63 25/27/62 24/24/61 
f 24/24/66 30/25/65 31/28/64 
f 32/30/69 26/29/68 25/27/67 
f 25/27/72 31/28/71 32/30/70 
f 33/32/75 27/31/74 26/29/73 
f 26/29/78 32/30/77 33/32/76 
f 34/34/81 28/33/80 27/31/79 
f 27/31/84 33/32/83 34/34/82 
# 10 faces

#
# object wing_bottom001
#

v  0.707607090473 -0.724505007267 -0.431291550398
v  0.581292629242 -0.743143618107 -0.400965481997
v  0.414399176836 -0.580122709274 -0.320513546467
v  0.238122209907 -0.593877434731 -0.298506349325
v  0.045314311981 -0.097654953599 -0.064885854721
v  0.657240033150 -0.070756115019 -0.181812196970
v  0.515797793865 0.112132117152 -0.071686983109
v  0.366489350796 0.085732683539 -0.041818290949
v  0.191925168037 0.062564715743 -0.016238927841
v  0.035692274570 0.047335565090 -0.005203008652
# 10 vertices

vn 0.267861455679 -0.327971756458 0.905916631222
vn 0.221400856972 -0.341748386621 0.913339912891
vn 0.251403778791 -0.330391019583 0.909746110439
vn 0.251403778791 -0.330391019583 0.909746110439
vn 0.285804450512 -0.322363704443 0.902439832687
vn 0.267861455679 -0.327971756458 0.905916631222
vn 0.221400856972 -0.341748386621 0.913339912891
vn 0.102279335260 -0.380739241838 0.919008493423
vn 0.203303992748 -0.353282690048 0.913158714771
vn 0.203303992748 -0.353282690048 0.913158714771
vn 0.251403778791 -0.330391019583 0.909746110439
vn 0.221400856972 -0.341748386621 0.913339912891
vn 0.102279335260 -0.380739241838 0.919008493423
vn 0.139834031463 -0.382391691208 0.913358211517
vn 0.139554768801 -0.379008352757 0.914810001850
vn 0.139554768801 -0.379008352757 0.914810001850
vn 0.203303992748 -0.353282690048 0.913158714771
vn 0.102279335260 -0.380739241838 0.919008493423
vn 0.139834031463 -0.382391691208 0.913358211517
vn 0.168107569218 -0.365667909384 0.915438115597
vn 0.111722953618 -0.383980333805 0.916557192802
vn 0.111722953618 -0.383980333805 0.916557192802
vn 0.139554768801 -0.379008352757 0.914810001850
vn 0.139834031463 -0.382391691208 0.913358211517
# 24 vertex normals

vt 0.961491942406 0.201067015529 0.000000000000
vt 0.926442384720 0.291900604963 0.000000000000
vt 0.281795173883 0.055390074849 0.000000000000
vt 0.469241410494 0.020468384027 0.000000000000
vt 0.751629769802 0.350132197142 0.000000000000
vt 0.244707003236 0.164150431752 0.000000000000
vt 0.700475394726 0.472647666931 0.000000000000
vt 0.199021831155 0.288672387600 0.000000000000
vt 0.268634766340 0.438634812832 0.000000000000
vt 0.158788844943 0.398334026337 0.000000000000
# 10 texture coords

g wing_bottom001
f 41/37/87 36/36/86 35/35/85 
f 35/35/90 40/38/89 41/37/88 
f 42/40/93 37/39/92 36/36/91 
f 36/36/96 41/37/95 42/40/94 
f 43/42/99 38/41/98 37/39/97 
f 37/39/102 42/40/101 43/42/100 
f 44/44/105 39/43/104 38/41/103 
f 38/41/108 43/42/107 44/44/106 
# 8 faces

