# 3ds Max Wavefront OBJ Exporter v0.97b - (c)2007 guruware
# File Created: 16.02.2019 08:04:25

#
# object wing_top
#

v  -0.421815663576 0.595649957657 -0.294988989830
v  -0.369840562344 0.159460544586 -0.352884680033
v  -0.293125182390 0.103677988052 -0.240384638309
v  -0.211128085852 0.068934500217 -0.119983866811
v  -0.102964743972 0.021129667759 -0.022661685944
v  -0.024029109627 0.003119349480 0.057886362076
v  -0.444849789143 0.769575119019 -0.219699919224
v  -0.397419303656 0.762305736542 -0.107578411698
v  -0.341246843338 0.704475402832 0.014786243439
v  -0.262502133846 0.571260213852 0.100366890430
v  -0.162338614464 0.390618771315 0.158284008503
v  -0.042641196400 0.176677644253 0.163139283657
# 12 vertices

vn -0.946734309196 -0.169383466244 0.273867249489
vn -0.879008293152 -0.236634880304 0.413942337036
vn -0.921521186829 -0.202430158854 0.331392198801
vn -0.921521186829 -0.202430158854 0.331392198801
vn -0.892030656338 -0.273802816868 0.359601497650
vn -0.946734309196 -0.169383466244 0.273867249489
vn -0.879008293152 -0.236634880304 0.413942337036
vn -0.844388961792 -0.273690402508 0.460543990135
vn -0.900332927704 -0.213060677052 0.379480868578
vn -0.900332927704 -0.213060677052 0.379480868578
vn -0.921521186829 -0.202430158854 0.331392198801
vn -0.879008293152 -0.236634880304 0.413942337036
vn -0.844388961792 -0.273690402508 0.460543990135
vn -0.781256377697 -0.338307917118 0.524581968784
vn -0.856114506721 -0.265797466040 0.443192422390
vn -0.856114506721 -0.265797466040 0.443192422390
vn -0.900332927704 -0.213060677052 0.379480868578
vn -0.844388961792 -0.273690402508 0.460543990135
vn -0.781256377697 -0.338307917118 0.524581968784
vn -0.704563558102 -0.407491594553 0.580982685089
vn -0.789414703846 -0.330606549978 0.517226874828
vn -0.789414703846 -0.330606549978 0.517226874828
vn -0.856114506721 -0.265797466040 0.443192422390
vn -0.781256377697 -0.338307917118 0.524581968784
vn -0.704563558102 -0.407491594553 0.580982685089
vn -0.691655933857 -0.427285134792 0.582270920277
vn -0.719306647778 -0.399721860886 0.568172872066
vn -0.719306647778 -0.399721860886 0.568172872066
vn -0.789414703846 -0.330606549978 0.517226874828
vn -0.704563558102 -0.407491594553 0.580982685089
# 30 vertex normals

vt 0.172000527382 0.444496572018 0.000000000000
vt 0.532240331173 0.465290009975 0.000000000000
vt 0.029597215354 0.582752406597 0.000000000000
vt 0.029667764902 0.480384379625 0.000000000000
vt 0.570518612862 0.572833836079 0.000000000000
vt 0.071794539690 0.698582351208 0.000000000000
vt 0.601830661297 0.691408395767 0.000000000000
vt 0.177892565727 0.798300266266 0.000000000000
vt 0.640115678310 0.808224797249 0.000000000000
vt 0.311817348003 0.891002118587 0.000000000000
vt 0.662200212479 0.911505401134 0.000000000000
vt 0.508752226830 0.950195789337 0.000000000000
# 12 texture coords

g wing_top
f 1/1/1 2/2/2 8/3/3 
f 8/3/4 7/4/5 1/1/6 
f 2/2/7 3/5/8 9/6/9 
f 9/6/10 8/3/11 2/2/12 
f 3/5/13 4/7/14 10/8/15 
f 10/8/16 9/6/17 3/5/18 
f 4/7/19 5/9/20 11/10/21 
f 11/10/22 10/8/23 4/7/24 
f 5/9/25 6/11/26 12/12/27 
f 12/12/28 11/10/29 5/9/30 
# 10 faces

#
# object wing_bottom
#

v  -0.376417398453 -0.472209930420 -0.880723357201
v  -0.325748533010 -0.535102188587 -0.777284026146
v  -0.236944645643 -0.442507922649 -0.566471576691
v  -0.147910341620 -0.519633233547 -0.432786732912
v  -0.043879151344 -0.115329466760 -0.021954536438
v  -0.349202960730 0.125211343169 -0.513964831829
v  -0.292522013187 0.246734276414 -0.295788317919
v  -0.229429811239 0.168120965362 -0.178649932146
v  -0.146672323346 0.083018168807 -0.046088933945
v  -0.030085444450 0.027716889977 0.043262004852
# 10 vertices

vn -0.922733366489 -0.172684550285 0.344591498375
vn -0.903252482414 -0.202378675342 0.378388524055
vn -0.916039645672 -0.180874571204 0.357988476753
vn -0.916039645672 -0.180874571204 0.357988476753
vn -0.929728984833 -0.160971388221 0.331198275089
vn -0.922733366489 -0.172684550285 0.344591498375
vn -0.903252482414 -0.202378675342 0.378388524055
vn -0.844475269318 -0.282402694225 0.455093741417
vn -0.895098328590 -0.219783157110 0.387936115265
vn -0.895098328590 -0.219783157110 0.387936115265
vn -0.916039645672 -0.180874571204 0.357988476753
vn -0.903252482414 -0.202378675342 0.378388524055
vn -0.844475269318 -0.282402694225 0.455093741417
vn -0.853645682335 -0.275856137276 0.441806018353
vn -0.787334740162 -0.328252673149 0.521875739098
vn -0.787334740162 -0.328252673149 0.521875739098
vn -0.895098328590 -0.219783157110 0.387936115265
vn -0.844475269318 -0.282402694225 0.455093741417
vn -0.853645682335 -0.275856137276 0.441806018353
vn -0.960626482964 -0.033136293292 0.275860249996
vn -0.740844011307 -0.342861533165 0.577577888966
vn -0.740844011307 -0.342861533165 0.577577888966
vn -0.787334740162 -0.328252673149 0.521875739098
vn -0.853645682335 -0.275856137276 0.441806018353
# 24 vertex normals

vt 0.961491942406 0.201067015529 0.000000000000
vt 0.926442384720 0.291900604963 0.000000000000
vt 0.281795173883 0.055390074849 0.000000000000
vt 0.469241410494 0.020468384027 0.000000000000
vt 0.751629769802 0.350132197142 0.000000000000
vt 0.244707003236 0.164150431752 0.000000000000
vt 0.700475394726 0.472647666931 0.000000000000
vt 0.199021831155 0.288672387600 0.000000000000
vt 0.268634766340 0.438634812832 0.000000000000
vt 0.158788844943 0.398334026337 0.000000000000
# 10 texture coords

g wing_bottom
f 13/13/31 14/14/32 19/15/33 
f 19/15/34 18/16/35 13/13/36 
f 14/14/37 15/17/38 20/18/39 
f 20/18/40 19/15/41 14/14/42 
f 15/17/43 16/19/44 21/20/45 
f 21/20/46 20/18/47 15/17/48 
f 16/19/49 17/21/50 22/22/51 
f 22/22/52 21/20/53 16/19/54 
# 8 faces

#
# object body
#

#
# object wing_top001
#

v  0.421815663576 0.595649957657 -0.294989109039
v  0.369840562344 0.159460514784 -0.352884709835
v  0.293125182390 0.103678017855 -0.240384653211
v  0.211128085852 0.068934500217 -0.119983881712
v  0.102964743972 0.021129667759 -0.022661685944
v  0.024029109627 0.003119349480 0.057886362076
v  0.444849789143 0.769575119019 -0.219700053334
v  0.397419303656 0.762305736542 -0.107578545809
v  0.341246843338 0.704475402832 0.014786154032
v  0.262502133846 0.571260213852 0.100366830826
v  0.162338614464 0.390618801117 0.158283948898
v  0.042641196400 0.176677674055 0.163139313459
# 12 vertices

vn 0.946734309196 -0.169383466244 0.273867338896
vn 0.879008293152 -0.236634880304 0.413942426443
vn 0.921521127224 -0.202430158854 0.331392288208
vn 0.921521127224 -0.202430158854 0.331392288208
vn 0.892030656338 -0.273802816868 0.359601616859
vn 0.946734309196 -0.169383466244 0.273867338896
vn 0.879008293152 -0.236634880304 0.413942426443
vn 0.844388961792 -0.273690372705 0.460544049740
vn 0.900332927704 -0.213060677052 0.379480957985
vn 0.900332927704 -0.213060677052 0.379480957985
vn 0.921521127224 -0.202430158854 0.331392288208
vn 0.879008293152 -0.236634880304 0.413942426443
vn 0.844388961792 -0.273690372705 0.460544049740
vn 0.781256318092 -0.338307887316 0.524582087994
vn 0.856114506721 -0.265797436237 0.443192541599
vn 0.856114506721 -0.265797436237 0.443192541599
vn 0.900332927704 -0.213060677052 0.379480957985
vn 0.844388961792 -0.273690372705 0.460544049740
vn 0.781256318092 -0.338307887316 0.524582087994
vn 0.704563558102 -0.407491564751 0.580982804298
vn 0.789414703846 -0.330606520176 0.517226994038
vn 0.789414703846 -0.330606520176 0.517226994038
vn 0.856114506721 -0.265797436237 0.443192541599
vn 0.781256318092 -0.338307887316 0.524582087994
vn 0.704563558102 -0.407491564751 0.580982804298
vn 0.691655933857 -0.427285104990 0.582271039486
vn 0.719306647778 -0.399721831083 0.568172991276
vn 0.719306647778 -0.399721831083 0.568172991276
vn 0.789414703846 -0.330606520176 0.517226994038
vn 0.704563558102 -0.407491564751 0.580982804298
# 30 vertex normals

vt 0.172000527382 0.444496572018 0.000000000000
vt 0.532240331173 0.465290009975 0.000000000000
vt 0.029597215354 0.582752406597 0.000000000000
vt 0.029667764902 0.480384379625 0.000000000000
vt 0.570518612862 0.572833836079 0.000000000000
vt 0.071794539690 0.698582351208 0.000000000000
vt 0.601830661297 0.691408395767 0.000000000000
vt 0.177892565727 0.798300266266 0.000000000000
vt 0.640115678310 0.808224797249 0.000000000000
vt 0.311817348003 0.891002118587 0.000000000000
vt 0.662200212479 0.911505401134 0.000000000000
vt 0.508752226830 0.950195789337 0.000000000000
# 12 texture coords

g wing_top001
f 30/25/57 24/24/56 23/23/55 
f 23/23/60 29/26/59 30/25/58 
f 31/28/63 25/27/62 24/24/61 
f 24/24/66 30/25/65 31/28/64 
f 32/30/69 26/29/68 25/27/67 
f 25/27/72 31/28/71 32/30/70 
f 33/32/75 27/31/74 26/29/73 
f 26/29/78 32/30/77 33/32/76 
f 34/34/81 28/33/80 27/31/79 
f 27/31/84 33/32/83 34/34/82 
# 10 faces

#
# object wing_bottom001
#

v  0.376417398453 -0.472210049629 -0.880723297596
v  0.325748533010 -0.535102307796 -0.777284026146
v  0.236944645643 -0.442508041859 -0.566471517086
v  0.147910341620 -0.519633293152 -0.432786703110
v  0.043879151344 -0.115329466760 -0.021954536438
v  0.349202960730 0.125211268663 -0.513964891434
v  0.292522013187 0.246734231710 -0.295788347721
v  0.229429811239 0.168120950460 -0.178649947047
v  0.146672323346 0.083018168807 -0.046088933945
v  0.030085444450 0.027716904879 0.043262004852
# 10 vertices

vn 0.922733366489 -0.172684490681 0.344591498375
vn 0.903252482414 -0.202378630638 0.378388494253
vn 0.916039645672 -0.180874526501 0.357988417149
vn 0.916039645672 -0.180874526501 0.357988417149
vn 0.929728984833 -0.160971343517 0.331198215485
vn 0.922733366489 -0.172684490681 0.344591498375
vn 0.903252482414 -0.202378630638 0.378388494253
vn 0.844475269318 -0.282402634621 0.455093741417
vn 0.895098328590 -0.219783127308 0.387936055660
vn 0.895098328590 -0.219783127308 0.387936055660
vn 0.916039645672 -0.180874526501 0.357988417149
vn 0.903252482414 -0.202378630638 0.378388494253
vn 0.844475269318 -0.282402634621 0.455093741417
vn 0.853645682335 -0.275856077671 0.441805958748
vn 0.787334740162 -0.328252613544 0.521875739098
vn 0.787334740162 -0.328252613544 0.521875739098
vn 0.895098328590 -0.219783127308 0.387936055660
vn 0.844475269318 -0.282402634621 0.455093741417
vn 0.853645682335 -0.275856077671 0.441805958748
vn 0.960626482964 -0.033136256039 0.275860190392
vn 0.740844011307 -0.342861473560 0.577577888966
vn 0.740844011307 -0.342861473560 0.577577888966
vn 0.787334740162 -0.328252613544 0.521875739098
vn 0.853645682335 -0.275856077671 0.441805958748
# 24 vertex normals

vt 0.961491942406 0.201067015529 0.000000000000
vt 0.926442384720 0.291900604963 0.000000000000
vt 0.281795173883 0.055390074849 0.000000000000
vt 0.469241410494 0.020468384027 0.000000000000
vt 0.751629769802 0.350132197142 0.000000000000
vt 0.244707003236 0.164150431752 0.000000000000
vt 0.700475394726 0.472647666931 0.000000000000
vt 0.199021831155 0.288672387600 0.000000000000
vt 0.268634766340 0.438634812832 0.000000000000
vt 0.158788844943 0.398334026337 0.000000000000
# 10 texture coords

g wing_bottom001
f 41/37/87 36/36/86 35/35/85 
f 35/35/90 40/38/89 41/37/88 
f 42/40/93 37/39/92 36/36/91 
f 36/36/96 41/37/95 42/40/94 
f 43/42/99 38/41/98 37/39/97 
f 37/39/102 42/40/101 43/42/100 
f 44/44/105 39/43/104 38/41/103 
f 38/41/108 43/42/107 44/44/106 
# 8 faces

