# 3ds Max Wavefront OBJ Exporter v0.97b - (c)2007 guruware
# File Created: 16.02.2019 08:04:26

#
# object wing_top
#

v  -0.654133260250 0.521522700787 -0.160920724273
v  -0.517606675625 0.102629572153 -0.254863679409
v  -0.389666140079 0.065561473370 -0.177502349019
v  -0.264857709408 0.048182070255 -0.088498502970
v  -0.125859454274 0.017990291119 -0.023105770350
v  -0.028162792325 0.012405037880 0.035870224237
v  -0.687466740608 0.688226342201 -0.071669489145
v  -0.588387787342 0.697452962399 0.008045941591
v  -0.468002259731 0.657999336720 0.094803392887
v  -0.332398653030 0.545159518719 0.142501980066
v  -0.186710700393 0.384342849255 0.164923220873
v  -0.041650071740 0.186793446541 0.140530854464
# 12 vertices

vn -0.649635136127 -0.386172533035 0.654862642288
vn -0.581423163414 -0.397787332535 0.709726989269
vn -0.602433502674 -0.407184809446 0.686494231224
vn -0.602433502674 -0.407184809446 0.686494231224
vn -0.521797358990 -0.481392443180 0.704264700413
vn -0.649635136127 -0.386172533035 0.654862642288
vn -0.581423163414 -0.397787332535 0.709726989269
vn -0.563053548336 -0.407381385565 0.719034850597
vn -0.600394487381 -0.389517098665 0.698428869247
vn -0.600394487381 -0.389517098665 0.698428869247
vn -0.602433502674 -0.407184809446 0.686494231224
vn -0.581423163414 -0.397787332535 0.709726989269
vn -0.563053548336 -0.407381385565 0.719034850597
vn -0.523987650871 -0.432424515486 0.733788788319
vn -0.576008439064 -0.404706388712 0.710230231285
vn -0.576008439064 -0.404706388712 0.710230231285
vn -0.600394487381 -0.389517098665 0.698428869247
vn -0.563053548336 -0.407381385565 0.719034850597
vn -0.523987650871 -0.432424515486 0.733788788319
vn -0.471284717321 -0.468732833862 0.747114539146
vn -0.538276374340 -0.427260607481 0.726434409618
vn -0.538276374340 -0.427260607481 0.726434409618
vn -0.576008439064 -0.404706388712 0.710230231285
vn -0.523987650871 -0.432424515486 0.733788788319
vn -0.471284717321 -0.468732833862 0.747114539146
vn -0.473341584206 -0.479922503233 0.738662362099
vn -0.496962428093 -0.463344663382 0.733716607094
vn -0.496962428093 -0.463344663382 0.733716607094
vn -0.538276374340 -0.427260607481 0.726434409618
vn -0.471284717321 -0.468732833862 0.747114539146
# 30 vertex normals

vt 0.172000527382 0.444496572018 0.000000000000
vt 0.532240331173 0.465290009975 0.000000000000
vt 0.029597215354 0.582752406597 0.000000000000
vt 0.029667764902 0.480384379625 0.000000000000
vt 0.570518612862 0.572833836079 0.000000000000
vt 0.071794539690 0.698582351208 0.000000000000
vt 0.601830661297 0.691408395767 0.000000000000
vt 0.177892565727 0.798300266266 0.000000000000
vt 0.640115678310 0.808224797249 0.000000000000
vt 0.311817348003 0.891002118587 0.000000000000
vt 0.662200212479 0.911505401134 0.000000000000
vt 0.508752226830 0.950195789337 0.000000000000
# 12 texture coords

g wing_top
f 1/1/1 2/2/2 8/3/3 
f 8/3/4 7/4/5 1/1/6 
f 2/2/7 3/5/8 9/6/9 
f 9/6/10 8/3/11 2/2/12 
f 3/5/13 4/7/14 10/8/15 
f 10/8/16 9/6/17 3/5/18 
f 4/7/19 5/9/20 11/10/21 
f 11/10/22 10/8/23 4/7/24 
f 5/9/25 6/11/26 12/12/27 
f 12/12/28 11/10/29 5/9/30 
# 10 faces

#
# object wing_bottom
#

v  -0.586351573467 -0.569241344929 -0.723420977592
v  -0.493658304214 -0.616159856319 -0.643239736557
v  -0.353392571211 -0.495951741934 -0.479602068663
v  -0.212488338351 -0.549148857594 -0.384401649237
v  -0.045248508453 -0.107754066586 -0.040268719196
v  -0.529718279839 0.052464663982 -0.403360396624
v  -0.421223729849 0.197236657143 -0.222110539675
v  -0.309791624546 0.137619346380 -0.133168131113
v  -0.173804491758 0.075572893023 -0.036620557308
v  -0.032629132271 0.036230593920 0.022313177586
# 10 vertices

vn -0.706196725368 -0.274666875601 0.652567386627
vn -0.671744704247 -0.298607409000 0.677932679653
vn -0.694062769413 -0.280769079924 0.662906944752
vn -0.694062769413 -0.280769079924 0.662906944752
vn -0.719171345234 -0.265130430460 0.642260372639
vn -0.706196725368 -0.274666875601 0.652567386627
vn -0.671744704247 -0.298607409000 0.677932679653
vn -0.578070402145 -0.363343328238 0.730627238750
vn -0.658120453358 -0.313892751932 0.684360086918
vn -0.658120453358 -0.313892751932 0.684360086918
vn -0.694062769413 -0.280769079924 0.662906944752
vn -0.671744704247 -0.298607409000 0.677932679653
vn -0.578070402145 -0.363343328238 0.730627238750
vn -0.599463105202 -0.357945084572 0.715904533863
vn -0.545240759850 -0.377991318703 0.748221278191
vn -0.545240759850 -0.377991318703 0.748221278191
vn -0.658120453358 -0.313892751932 0.684360086918
vn -0.578070402145 -0.363343328238 0.730627238750
vn -0.599463105202 -0.357945084572 0.715904533863
vn -0.747305274010 -0.208700090647 0.630855917931
vn -0.500106036663 -0.385200738907 0.775573611259
vn -0.500106036663 -0.385200738907 0.775573611259
vn -0.545240759850 -0.377991318703 0.748221278191
vn -0.599463105202 -0.357945084572 0.715904533863
# 24 vertex normals

vt 0.961491942406 0.201067015529 0.000000000000
vt 0.926442384720 0.291900604963 0.000000000000
vt 0.281795173883 0.055390074849 0.000000000000
vt 0.469241410494 0.020468384027 0.000000000000
vt 0.751629769802 0.350132197142 0.000000000000
vt 0.244707003236 0.164150431752 0.000000000000
vt 0.700475394726 0.472647666931 0.000000000000
vt 0.199021831155 0.288672387600 0.000000000000
vt 0.268634766340 0.438634812832 0.000000000000
vt 0.158788844943 0.398334026337 0.000000000000
# 10 texture coords

g wing_bottom
f 13/13/31 14/14/32 19/15/33 
f 19/15/34 18/16/35 13/13/36 
f 14/14/37 15/17/38 20/18/39 
f 20/18/40 19/15/41 14/14/42 
f 15/17/43 16/19/44 21/20/45 
f 21/20/46 20/18/47 15/17/48 
f 16/19/49 17/21/50 22/22/51 
f 22/22/52 21/20/53 16/19/54 
# 8 faces

#
# object body
#

#
# object wing_top001
#

v  0.654133260250 0.521522700787 -0.160920739174
v  0.517606675625 0.102629542351 -0.254863619804
v  0.389666140079 0.065561473370 -0.177502304316
v  0.264857709408 0.048182070255 -0.088498443365
v  0.125859454274 0.017990291119 -0.023105740547
v  0.028162792325 0.012404978275 0.035870283842
v  0.687466740608 0.688226342201 -0.071669518948
v  0.588387787342 0.697452902794 0.008045911789
v  0.468002259731 0.657999336720 0.094803333282
v  0.332398653030 0.545159518719 0.142501950264
v  0.186710700393 0.384342849255 0.164923250675
v  0.041650071740 0.186793446541 0.140530884266
# 12 vertices

vn 0.649635136127 -0.386172443628 0.654862642288
vn 0.581423163414 -0.397787243128 0.709727048874
vn 0.602433502674 -0.407184720039 0.686494290829
vn 0.602433502674 -0.407184720039 0.686494290829
vn 0.521797358990 -0.481392353773 0.704264760017
vn 0.649635136127 -0.386172443628 0.654862642288
vn 0.581423163414 -0.397787243128 0.709727048874
vn 0.563053548336 -0.407381296158 0.719034910202
vn 0.600394487381 -0.389517009258 0.698428869247
vn 0.600394487381 -0.389517009258 0.698428869247
vn 0.602433502674 -0.407184720039 0.686494290829
vn 0.581423163414 -0.397787243128 0.709727048874
vn 0.563053548336 -0.407381296158 0.719034910202
vn 0.523987650871 -0.432424426079 0.733788847923
vn 0.576008439064 -0.404706299305 0.710230290890
vn 0.576008439064 -0.404706299305 0.710230290890
vn 0.600394487381 -0.389517009258 0.698428869247
vn 0.563053548336 -0.407381296158 0.719034910202
vn 0.523987650871 -0.432424426079 0.733788847923
vn 0.471284717321 -0.468732744455 0.747114598751
vn 0.538276374340 -0.427260518074 0.726434469223
vn 0.538276374340 -0.427260518074 0.726434469223
vn 0.576008439064 -0.404706299305 0.710230290890
vn 0.523987650871 -0.432424426079 0.733788847923
vn 0.471284717321 -0.468732744455 0.747114598751
vn 0.473341584206 -0.479922413826 0.738662421703
vn 0.496962428093 -0.463344544172 0.733716666698
vn 0.496962428093 -0.463344544172 0.733716666698
vn 0.538276374340 -0.427260518074 0.726434469223
vn 0.471284717321 -0.468732744455 0.747114598751
# 30 vertex normals

vt 0.172000527382 0.444496572018 0.000000000000
vt 0.532240331173 0.465290009975 0.000000000000
vt 0.029597215354 0.582752406597 0.000000000000
vt 0.029667764902 0.480384379625 0.000000000000
vt 0.570518612862 0.572833836079 0.000000000000
vt 0.071794539690 0.698582351208 0.000000000000
vt 0.601830661297 0.691408395767 0.000000000000
vt 0.177892565727 0.798300266266 0.000000000000
vt 0.640115678310 0.808224797249 0.000000000000
vt 0.311817348003 0.891002118587 0.000000000000
vt 0.662200212479 0.911505401134 0.000000000000
vt 0.508752226830 0.950195789337 0.000000000000
# 12 texture coords

g wing_top001
f 30/25/57 24/24/56 23/23/55 
f 23/23/60 29/26/59 30/25/58 
f 31/28/63 25/27/62 24/24/61 
f 24/24/66 30/25/65 31/28/64 
f 32/30/69 26/29/68 25/27/67 
f 25/27/72 31/28/71 32/30/70 
f 33/32/75 27/31/74 26/29/73 
f 26/29/78 32/30/77 33/32/76 
f 34/34/81 28/33/80 27/31/79 
f 27/31/84 33/32/83 34/34/82 
# 10 faces

#
# object wing_bottom001
#

v  0.586351573467 -0.569241404533 -0.723420977592
v  0.493658304214 -0.616159975529 -0.643239676952
v  0.353392571211 -0.495951831341 -0.479602038860
v  0.212488338351 -0.549148917198 -0.384401619434
v  0.045248508453 -0.107754088938 -0.040268689394
v  0.529718279839 0.052464604378 -0.403360426426
v  0.421223729849 0.197236642241 -0.222110569477
v  0.309791624546 0.137619331479 -0.133168160915
v  0.173804491758 0.075572863221 -0.036620557308
v  0.032629132271 0.036230579019 0.022313177586
# 10 vertices

vn 0.706196725368 -0.274666845798 0.652567446232
vn 0.671744704247 -0.298607349396 0.677932739258
vn 0.694062769413 -0.280768990517 0.662907004356
vn 0.694062769413 -0.280768990517 0.662907004356
vn 0.719171345234 -0.265130400658 0.642260432243
vn 0.706196725368 -0.274666845798 0.652567446232
vn 0.671744704247 -0.298607349396 0.677932739258
vn 0.578070402145 -0.363343268633 0.730627298355
vn 0.658120453358 -0.313892692327 0.684360146523
vn 0.658120453358 -0.313892692327 0.684360146523
vn 0.694062769413 -0.280768990517 0.662907004356
vn 0.671744704247 -0.298607349396 0.677932739258
vn 0.578070402145 -0.363343268633 0.730627298355
vn 0.599463105202 -0.357944995165 0.715904593468
vn 0.545240759850 -0.377991259098 0.748221337795
vn 0.545240759850 -0.377991259098 0.748221337795
vn 0.658120453358 -0.313892692327 0.684360146523
vn 0.578070402145 -0.363343268633 0.730627298355
vn 0.599463105202 -0.357944995165 0.715904593468
vn 0.747305274010 -0.208700001240 0.630855977535
vn 0.500106036663 -0.385200679302 0.775573670864
vn 0.500106036663 -0.385200679302 0.775573670864
vn 0.545240759850 -0.377991259098 0.748221337795
vn 0.599463105202 -0.357944995165 0.715904593468
# 24 vertex normals

vt 0.961491942406 0.201067015529 0.000000000000
vt 0.926442384720 0.291900604963 0.000000000000
vt 0.281795173883 0.055390074849 0.000000000000
vt 0.469241410494 0.020468384027 0.000000000000
vt 0.751629769802 0.350132197142 0.000000000000
vt 0.244707003236 0.164150431752 0.000000000000
vt 0.700475394726 0.472647666931 0.000000000000
vt 0.199021831155 0.288672387600 0.000000000000
vt 0.268634766340 0.438634812832 0.000000000000
vt 0.158788844943 0.398334026337 0.000000000000
# 10 texture coords

g wing_bottom001
f 41/37/87 36/36/86 35/35/85 
f 35/35/90 40/38/89 41/37/88 
f 42/40/93 37/39/92 36/36/91 
f 36/36/96 41/37/95 42/40/94 
f 43/42/99 38/41/98 37/39/97 
f 37/39/102 42/40/101 43/42/100 
f 44/44/105 39/43/104 38/41/103 
f 38/41/108 43/42/107 44/44/106 
# 8 faces

