# 3ds Max Wavefront OBJ Exporter v0.97b - (c)2007 guruware
# File Created: 16.02.2019 08:06:26

#
# object wing_top
#

#
# object wing_bottom
#

#
# object body
#

v  0.048046335578 0.235576555133 0.095749169588
v  0.056162253022 0.198749810457 0.148749664426
v  -0.056162238121 0.198749810457 0.148749649525
v  -0.048046320677 0.235576570034 0.095749169588
v  0.000000007950 0.241863787174 0.084319055080
v  0.043789066374 0.189148113132 0.070944488049
v  0.031223701313 0.171232059598 0.117573417723
v  -0.031223695725 0.171232059598 0.117573417723
v  -0.046484149992 0.189148128033 0.070944480598
v  0.000000009313 0.196757018566 0.058218743652
v  0.052614811808 0.087583407760 0.019042503089
v  0.030973909423 0.062999516726 0.075698651373
v  -0.030973905697 0.062999516726 0.075698651373
v  -0.055309880525 0.087583407760 0.019042491913
v  0.000000005723 0.094960004091 0.005667455494
v  0.052268479019 -0.069397360086 -0.034948214889
v  0.026134239510 -0.088033258915 0.002214729786
v  -0.026134230196 -0.088033258915 0.002214729786
v  -0.046878267080 -0.069397360086 -0.034948214889
v  0.000000007354 -0.063270568848 -0.052655950189
v  0.023743003607 -0.168443858624 -0.048684932292
v  -0.023743003607 -0.168443858624 -0.048684932292
v  0.000000007149 -0.171674817801 -0.068102210760
v  0.052376620471 0.233502626419 0.159857064486
v  0.048026133329 0.271415323019 0.120504043996
v  0.000000007993 0.264357984066 0.101421937346
v  -0.048026122153 0.271415323019 0.120504036546
v  -0.052376613021 0.233502626419 0.159857064486
v  0.067752040923 0.259580761194 0.141626179218
v  0.076082013547 0.216556802392 0.116917170584
v  -0.067752040923 0.259580761194 0.141626179218
v  -0.076082013547 0.216556802392 0.116917163134
v  0.000000005705 0.235703825951 0.167445987463
v  0.000000003880 0.267618656158 0.153117090464
v  0.000000003752 0.280034840107 0.125506252050
v  0.000000001565 -0.185361355543 -0.047799348831
v  0.000000004487 -0.089819937944 0.007126852870
v  0.000000003820 0.060790419579 0.080438077450
v  0.000000005590 0.168494075537 0.122682504356
v  0.000000003769 0.195899426937 0.153796106577
# 40 vertices

vn -0.498975157738 0.454943269491 -0.737597763538
vn 0.000000084569 0.553407132626 -0.832910895348
vn 0.006428180728 0.474725663662 -0.880110383034
vn 0.006428180728 0.474725663662 -0.880110383034
vn -0.811453104019 0.151752978563 -0.564371228218
vn -0.498975157738 0.454943269491 -0.737597763538
vn 0.502425909042 0.445028573275 -0.741294622421
vn 0.800596892834 0.150234699249 -0.580063879490
vn 0.006428180728 0.474725663662 -0.880110383034
vn 0.006428180728 0.474725663662 -0.880110383034
vn 0.000000084569 0.553407132626 -0.832910895348
vn 0.502425909042 0.445028573275 -0.741294622421
vn 0.583233714104 -0.611555576324 0.534638464451
vn 0.640444219112 -0.315642267466 0.700143694878
vn 0.884066939354 0.187296420336 -0.428188890219
vn 0.884066939354 0.187296420336 -0.428188890219
vn 0.800596892834 0.150234699249 -0.580063879490
vn 0.583233714104 -0.611555576324 0.534638464451
vn -0.571701407433 -0.608847737312 0.549965441227
vn -0.811453104019 0.151752978563 -0.564371228218
vn -0.890146076679 0.178925573826 -0.419077068567
vn -0.890146076679 0.178925573826 -0.419077068567
vn -0.625935554504 -0.320189505816 0.711114168167
vn -0.571701407433 -0.608847737312 0.549965441227
vn 0.006428180728 0.474725663662 -0.880110383034
vn 0.006457864307 0.403901338577 -0.914779782295
vn -0.890146076679 0.178925573826 -0.419077068567
vn -0.890146076679 0.178925573826 -0.419077068567
vn -0.811453104019 0.151752978563 -0.564371228218
vn 0.006428180728 0.474725663662 -0.880110383034
vn 0.006428180728 0.474725663662 -0.880110383034
vn 0.800596892834 0.150234699249 -0.580063879490
vn 0.884066939354 0.187296420336 -0.428188890219
vn 0.884066939354 0.187296420336 -0.428188890219
vn 0.006457864307 0.403901338577 -0.914779782295
vn 0.006428180728 0.474725663662 -0.880110383034
vn 0.884066939354 0.187296420336 -0.428188890219
vn 0.640444219112 -0.315642267466 0.700143694878
vn 0.575869560242 -0.385221749544 0.721095323563
vn 0.575869560242 -0.385221749544 0.721095323563
vn 0.936072647572 -0.008469492197 -0.351704776287
vn 0.884066939354 0.187296420336 -0.428188890219
vn -0.890146076679 0.178925573826 -0.419077068567
vn -0.921322405338 -0.005138739944 -0.388765543699
vn -0.607690870762 -0.383613616228 0.695379316807
vn -0.607690870762 -0.383613616228 0.695379316807
vn -0.625935554504 -0.320189505816 0.711114168167
vn -0.890146076679 0.178925573826 -0.419077068567
vn -0.890146076679 0.178925573826 -0.419077068567
vn 0.006457864307 0.403901338577 -0.914779782295
vn -0.014742570929 0.234456866980 -0.972014725208
vn -0.014742570929 0.234456866980 -0.972014725208
vn -0.921322405338 -0.005138739944 -0.388765543699
vn -0.890146076679 0.178925573826 -0.419077068567
vn 0.884066939354 0.187296420336 -0.428188890219
vn 0.936072647572 -0.008469492197 -0.351704776287
vn -0.014742570929 0.234456866980 -0.972014725208
vn -0.014742570929 0.234456866980 -0.972014725208
vn 0.006457864307 0.403901338577 -0.914779782295
vn 0.884066939354 0.187296420336 -0.428188890219
vn 0.936072647572 -0.008469492197 -0.351704776287
vn 0.575869560242 -0.385221749544 0.721095323563
vn 0.828725397587 -0.559067487717 -0.025647833943
vn -0.607690870762 -0.383613616228 0.695379316807
vn -0.921322405338 -0.005138739944 -0.388765543699
vn -0.839757442474 -0.541969239712 -0.032813742757
vn -0.921322405338 -0.005138739944 -0.388765543699
vn -0.014742570929 0.234456866980 -0.972014725208
vn -0.005238639191 -0.420284658670 -0.907377123833
vn -0.005238639191 -0.420284658670 -0.907377123833
vn -0.839757442474 -0.541969239712 -0.032813742757
vn -0.921322405338 -0.005138739944 -0.388765543699
vn 0.936072647572 -0.008469492197 -0.351704776287
vn 0.828725397587 -0.559067487717 -0.025647833943
vn -0.005238639191 -0.420284658670 -0.907377123833
vn -0.005238639191 -0.420284658670 -0.907377123833
vn -0.014742570929 0.234456866980 -0.972014725208
vn 0.936072647572 -0.008469492197 -0.351704776287
vn 0.502425909042 0.445028573275 -0.741294622421
vn 0.000000084569 0.553407132626 -0.832910895348
vn 0.000000061373 0.697076678276 -0.716996550560
vn 0.000000061373 0.697076678276 -0.716996550560
vn 0.431605160236 0.852476000786 -0.294960618019
vn 0.502425909042 0.445028573275 -0.741294622421
vn -0.498975157738 0.454943269491 -0.737597763538
vn -0.431605070829 0.852475881577 -0.294960796833
vn 0.000000061373 0.697076678276 -0.716996550560
vn 0.000000061373 0.697076678276 -0.716996550560
vn 0.000000084569 0.553407132626 -0.832910895348
vn -0.498975157738 0.454943269491 -0.737597763538
vn 0.431605160236 0.852476000786 -0.294960618019
vn 0.760950624943 0.561909377575 0.324364036322
vn 0.979368388653 -0.126096338034 -0.157915443182
vn 0.979368388653 -0.126096338034 -0.157915443182
vn 0.502425909042 0.445028573275 -0.741294622421
vn 0.431605160236 0.852476000786 -0.294960618019
vn 0.760950624943 0.561909377575 0.324364036322
vn 0.447267204523 0.047685176134 0.893128335476
vn 0.563269257545 -0.545622169971 0.620503187180
vn 0.563269257545 -0.545622169971 0.620503187180
vn 0.979368388653 -0.126096338034 -0.157915443182
vn 0.760950624943 0.561909377575 0.324364036322
vn -0.465876251459 0.042412638664 0.883832871914
vn -0.764952778816 0.554617047310 0.327486068010
vn -0.983259201050 -0.117838442326 -0.138979956508
vn -0.983259201050 -0.117838442326 -0.138979956508
vn -0.569695234299 -0.537846505642 0.621424555779
vn -0.465876251459 0.042412638664 0.883832871914
vn -0.983259201050 -0.117838442326 -0.138979956508
vn -0.764952778816 0.554617047310 0.327486068010
vn -0.431605070829 0.852475881577 -0.294960796833
vn -0.431605070829 0.852475881577 -0.294960796833
vn -0.498975157738 0.454943269491 -0.737597763538
vn -0.983259201050 -0.117838442326 -0.138979956508
vn 0.563269257545 -0.545622169971 0.620503187180
vn 0.583233714104 -0.611555576324 0.534638464451
vn 0.979368388653 -0.126096338034 -0.157915443182
vn 0.583233714104 -0.611555576324 0.534638464451
vn 0.800596892834 0.150234699249 -0.580063879490
vn 0.979368388653 -0.126096338034 -0.157915443182
vn 0.979368388653 -0.126096338034 -0.157915443182
vn 0.800596892834 0.150234699249 -0.580063879490
vn 0.502425909042 0.445028573275 -0.741294622421
vn -0.569695234299 -0.537846505642 0.621424555779
vn -0.983259201050 -0.117838442326 -0.138979956508
vn -0.571701407433 -0.608847737312 0.549965441227
vn -0.498975157738 0.454943269491 -0.737597763538
vn -0.811453104019 0.151752978563 -0.564371228218
vn -0.983259201050 -0.117838442326 -0.138979956508
vn -0.983259201050 -0.117838442326 -0.138979956508
vn -0.811453104019 0.151752978563 -0.564371228218
vn -0.571701407433 -0.608847737312 0.549965441227
vn -0.465876251459 0.042412638664 0.883832871914
vn -0.000000006639 0.059359252453 0.998236656189
vn 0.000000013467 0.717085182667 0.696985483170
vn 0.000000013467 0.717085182667 0.696985483170
vn -0.764952778816 0.554617047310 0.327486068010
vn -0.465876251459 0.042412638664 0.883832871914
vn 0.000000013467 0.717085182667 0.696985483170
vn -0.000000006639 0.059359252453 0.998236656189
vn 0.447267204523 0.047685176134 0.893128335476
vn 0.447267204523 0.047685176134 0.893128335476
vn 0.760950624943 0.561909377575 0.324364036322
vn 0.000000013467 0.717085182667 0.696985483170
vn -0.431605070829 0.852475881577 -0.294960796833
vn -0.764952778816 0.554617047310 0.327486068010
vn 0.000000013467 0.717085182667 0.696985483170
vn 0.000000013467 0.717085182667 0.696985483170
vn 0.000000025961 0.999011695385 -0.044448196888
vn -0.431605070829 0.852475881577 -0.294960796833
vn 0.000000013467 0.717085182667 0.696985483170
vn 0.760950624943 0.561909377575 0.324364036322
vn 0.431605160236 0.852476000786 -0.294960618019
vn 0.431605160236 0.852476000786 -0.294960618019
vn 0.000000025961 0.999011695385 -0.044448196888
vn 0.000000013467 0.717085182667 0.696985483170
vn 0.431605160236 0.852476000786 -0.294960618019
vn 0.000000061373 0.697076678276 -0.716996550560
vn 0.000000025961 0.999011695385 -0.044448196888
vn -0.431605070829 0.852475881577 -0.294960796833
vn 0.000000025961 0.999011695385 -0.044448196888
vn 0.000000061373 0.697076678276 -0.716996550560
vn -0.607690870762 -0.383613616228 0.695379316807
vn -0.839757442474 -0.541969239712 -0.032813742757
vn -0.000000041722 -0.984100341797 0.177613198757
vn -0.000000041722 -0.984100341797 0.177613198757
vn 0.000000000000 -0.467789888382 0.883839726448
vn -0.607690870762 -0.383613616228 0.695379316807
vn -0.000000041722 -0.984100341797 0.177613198757
vn 0.828725397587 -0.559067487717 -0.025647833943
vn 0.575869560242 -0.385221749544 0.721095323563
vn 0.575869560242 -0.385221749544 0.721095323563
vn 0.000000000000 -0.467789888382 0.883839726448
vn -0.000000041722 -0.984100341797 0.177613198757
vn -0.607690870762 -0.383613616228 0.695379316807
vn 0.000000000000 -0.467789888382 0.883839726448
vn 0.000000012698 -0.402125477791 0.915584564209
vn 0.000000012698 -0.402125477791 0.915584564209
vn -0.625935554504 -0.320189505816 0.711114168167
vn -0.607690870762 -0.383613616228 0.695379316807
vn 0.000000012698 -0.402125477791 0.915584564209
vn 0.000000000000 -0.467789888382 0.883839726448
vn 0.575869560242 -0.385221749544 0.721095323563
vn 0.575869560242 -0.385221749544 0.721095323563
vn 0.640444219112 -0.315642267466 0.700143694878
vn 0.000000012698 -0.402125477791 0.915584564209
vn -0.571701407433 -0.608847737312 0.549965441227
vn -0.625935554504 -0.320189505816 0.711114168167
vn 0.000000012698 -0.402125477791 0.915584564209
vn 0.000000012698 -0.402125477791 0.915584564209
vn 0.000000028960 -0.576650619507 0.816990852356
vn -0.571701407433 -0.608847737312 0.549965441227
vn 0.000000012698 -0.402125477791 0.915584564209
vn 0.640444219112 -0.315642267466 0.700143694878
vn 0.583233714104 -0.611555576324 0.534638464451
vn 0.583233714104 -0.611555576324 0.534638464451
vn 0.000000028960 -0.576650619507 0.816990852356
vn 0.000000012698 -0.402125477791 0.915584564209
vn -0.571701407433 -0.608847737312 0.549965441227
vn 0.000000028960 -0.576650619507 0.816990852356
vn -0.000000058025 -0.568313002586 0.822812438011
vn -0.000000058025 -0.568313002586 0.822812438011
vn -0.569695234299 -0.537846505642 0.621424555779
vn -0.571701407433 -0.608847737312 0.549965441227
vn -0.000000058025 -0.568313002586 0.822812438011
vn 0.000000028960 -0.576650619507 0.816990852356
vn 0.583233714104 -0.611555576324 0.534638464451
vn 0.583233714104 -0.611555576324 0.534638464451
vn 0.563269257545 -0.545622169971 0.620503187180
vn -0.000000058025 -0.568313002586 0.822812438011
vn -0.569695234299 -0.537846505642 0.621424555779
vn -0.000000058025 -0.568313002586 0.822812438011
vn -0.000000006639 0.059359252453 0.998236656189
vn -0.000000006639 0.059359252453 0.998236656189
vn -0.465876251459 0.042412638664 0.883832871914
vn -0.569695234299 -0.537846505642 0.621424555779
vn 0.563269257545 -0.545622169971 0.620503187180
vn 0.447267204523 0.047685176134 0.893128335476
vn -0.000000006639 0.059359252453 0.998236656189
vn -0.000000006639 0.059359252453 0.998236656189
vn -0.000000058025 -0.568313002586 0.822812438011
vn 0.563269257545 -0.545622169971 0.620503187180
vn -0.839757442474 -0.541969239712 -0.032813742757
vn -0.005238639191 -0.420284658670 -0.907377123833
vn -0.000000041722 -0.984100341797 0.177613198757
vn 0.828725397587 -0.559067487717 -0.025647833943
vn -0.000000041722 -0.984100341797 0.177613198757
vn -0.005238639191 -0.420284658670 -0.907377123833
# 228 vertex normals

vt 0.753035724163 0.886721193790 0.000000000000
vt 0.719503402710 0.904906511307 0.000000000000
vt 0.698215723038 0.858432054520 0.000000000000
vt 0.747072219849 0.845933198929 0.000000000000
vt 0.887873291969 0.889981865883 0.000000000000
vt 0.897057652473 0.850141942501 0.000000000000
vt 0.851314008236 0.848109364510 0.000000000000
vt 0.853834033012 0.730627834797 0.000000000000
vt 0.919037878513 0.730813264847 0.000000000000
vt 0.793623924255 0.846300959587 0.000000000000
vt 0.731680870056 0.727377533913 0.000000000000
vt 0.797187447548 0.729494333267 0.000000000000
vt 0.668630838394 0.729503095150 0.000000000000
vt 0.852950096130 0.549025237560 0.000000000000
vt 0.902869582176 0.549864888191 0.000000000000
vt 0.753911137581 0.545082151890 0.000000000000
vt 0.802278757095 0.547512590885 0.000000000000
vt 0.699471175671 0.522570848465 0.000000000000
vt 0.857750117779 0.436367332935 0.000000000000
vt 0.809522569180 0.433996051550 0.000000000000
vt 0.792045414448 0.400712519884 0.000000000000
vt 0.899026036263 0.926988840103 0.000000000000
vt 0.872659087181 0.907634258270 0.000000000000
vt 0.767565429211 0.905359148979 0.000000000000
vt 0.864694416523 0.900047004223 0.000000000000
vt 0.870684146881 0.883238255978 0.000000000000
vt 0.851395368576 0.896499991417 0.000000000000
vt 0.854031205177 0.879422068596 0.000000000000
vt 0.788714826107 0.877313017845 0.000000000000
vt 0.789521098137 0.894520819187 0.000000000000
vt 0.775916635990 0.898116290569 0.000000000000
vt 0.771221458912 0.880404770374 0.000000000000
vt 0.820262610912 0.913165688515 0.000000000000
vt 0.793155193329 0.931439459324 0.000000000000
vt 0.874265789986 0.936673283577 0.000000000000
vt 0.834874987602 0.405823737383 0.000000000000
vt 0.827715158463 0.548432707787 0.000000000000
vt 0.825474500656 0.729990482330 0.000000000000
vt 0.822474241257 0.845734238625 0.000000000000
vt 0.821426272392 0.877491772175 0.000000000000
vt 0.920006930828 0.909254670143 0.000000000000
vt 0.942755639553 0.864461421967 0.000000000000
vt 0.979405701160 0.736816763878 0.000000000000
vt 0.962355971336 0.529134511948 0.000000000000
vt 0.878073632717 0.404535442591 0.000000000000
vt 0.740020632744 0.923756062984 0.000000000000
vt 0.846273779869 0.932400226593 0.000000000000
vt 0.764673650265 0.934609770775 0.000000000000
# 48 texture coords

g body
f 4/1/1 5/2/2 10/3/3 
f 10/3/4 9/4/5 4/1/6 
f 1/5/7 6/6/8 10/42/9 
f 10/42/10 5/41/11 1/5/12 
f 7/7/13 12/8/14 11/9/15 
f 11/9/16 6/6/17 7/7/18 
f 8/10/19 9/4/20 14/11/21 
f 14/11/22 13/12/23 8/10/24 
f 10/3/25 15/13/26 14/11/27 
f 14/11/28 9/4/29 10/3/30 
f 10/42/31 6/6/32 11/9/33 
f 11/9/34 15/43/35 10/42/36 
f 11/9/37 12/8/38 17/14/39 
f 17/14/40 16/15/41 11/9/42 
f 14/11/43 19/16/44 18/17/45 
f 18/17/46 13/12/47 14/11/48 
f 14/11/49 15/13/50 20/18/51 
f 20/18/52 19/16/53 14/11/54 
f 11/9/55 16/15/56 20/44/57 
f 20/44/58 15/43/59 11/9/60 
f 16/15/61 17/14/62 21/19/63 
f 18/17/64 19/16/65 22/20/66 
f 19/16/67 20/18/68 23/21/69 
f 23/21/70 22/20/71 19/16/72 
f 16/15/73 21/19/74 23/45/75 
f 23/45/76 20/44/77 16/15/78 
f 1/5/79 5/41/80 26/22/81 
f 26/22/82 25/23/83 1/5/84 
f 4/1/85 27/24/86 26/46/87 
f 26/46/88 5/2/89 4/1/90 
f 25/23/91 29/25/92 30/26/93 
f 30/26/94 1/5/95 25/23/96 
f 29/25/97 24/27/98 2/28/99 
f 2/28/100 30/26/101 29/25/102 
f 28/30/103 31/31/104 32/32/105 
f 32/32/106 3/29/107 28/30/108 
f 32/32/109 31/31/110 27/24/111 
f 27/24/112 4/1/113 32/32/114 
f 2/28/115 7/7/116 30/26/117 
f 7/7/118 6/6/119 30/26/120 
f 30/26/121 6/6/122 1/5/123 
f 3/29/124 32/32/125 8/10/126 
f 4/1/127 9/4/128 32/32/129 
f 32/32/130 9/4/131 8/10/132 
f 28/30/133 33/33/134 34/34/135 
f 34/34/136 31/31/137 28/30/138 
f 34/47/139 33/33/140 24/27/141 
f 24/27/142 29/25/143 34/47/144 
f 27/24/145 31/31/146 34/34/147 
f 34/34/148 35/48/149 27/24/150 
f 34/47/151 29/25/152 25/23/153 
f 25/23/154 35/35/155 34/47/156 
f 25/23/157 26/22/158 35/35/159 
f 27/24/160 35/48/161 26/46/162 
f 18/17/163 22/20/164 36/36/165 
f 36/36/166 37/37/167 18/17/168 
f 36/36/169 21/19/170 17/14/171 
f 17/14/172 37/37/173 36/36/174 
f 18/17/175 37/37/176 38/38/177 
f 38/38/178 13/12/179 18/17/180 
f 38/38/181 37/37/182 17/14/183 
f 17/14/184 12/8/185 38/38/186 
f 8/10/187 13/12/188 38/38/189 
f 38/38/190 39/39/191 8/10/192 
f 38/38/193 12/8/194 7/7/195 
f 7/7/196 39/39/197 38/38/198 
f 8/10/199 39/39/200 40/40/201 
f 40/40/202 3/29/203 8/10/204 
f 40/40/205 39/39/206 7/7/207 
f 7/7/208 2/28/209 40/40/210 
f 3/29/211 40/40/212 33/33/213 
f 33/33/214 28/30/215 3/29/216 
f 2/28/217 24/27/218 33/33/219 
f 33/33/220 40/40/221 2/28/222 
f 22/20/223 23/21/224 36/36/225 
f 21/19/226 36/36/227 23/45/228 
# 76 faces

#
# object wing_top001
#

#
# object wing_bottom001
#

