# 3ds Max Wavefront OBJ Exporter v0.97b - (c)2007 guruware
# File Created: 16.02.2019 08:04:28

#
# object wing_top
#

v  -0.576015830040 0.142029345036 0.686181366444
v  -0.519256532192 -0.153639495373 0.314893066883
v  -0.411130189896 -0.099286258221 0.184538856149
v  -0.280815064907 -0.037433803082 0.094753697515
v  -0.142231702805 0.000186800957 0.007435545325
v  -0.041073203087 0.039304256439 -0.029015168548
v  -0.538779914379 0.290719807148 0.808868646622
v  -0.503321826458 0.386165827513 0.702371001244
v  -0.423543184996 0.451110213995 0.557286918163
v  -0.317435353994 0.436284780502 0.384876132011
v  -0.178609073162 0.359938442707 0.217743679881
v  -0.039663672447 0.220911264420 0.063526704907
# 12 vertices

vn 0.908257365227 -0.290416538715 0.301209360361
vn 0.819827020168 -0.320251226425 0.474681854248
vn 0.917333722115 -0.289673060179 0.273109078407
vn 0.917333722115 -0.289673060179 0.273109078407
vn 0.955622851849 -0.288498848677 0.059611678123
vn 0.908257365227 -0.290416538715 0.301209360361
vn 0.819827020168 -0.320251226425 0.474681854248
vn 0.729257702827 -0.348213165998 0.589008331299
vn 0.846689641476 -0.307761967182 0.434049844742
vn 0.846689641476 -0.307761967182 0.434049844742
vn 0.917333722115 -0.289673060179 0.273109078407
vn 0.819827020168 -0.320251226425 0.474681854248
vn 0.729257702827 -0.348213165998 0.589008331299
vn 0.608090043068 -0.369602084160 0.702581524849
vn 0.734950065613 -0.348118931055 0.581946372986
vn 0.734950065613 -0.348118931055 0.581946372986
vn 0.846689641476 -0.307761967182 0.434049844742
vn 0.729257702827 -0.348213165998 0.589008331299
vn 0.608090043068 -0.369602084160 0.702581524849
vn 0.507290720940 -0.393359154463 0.766762495041
vn 0.584368646145 -0.382122606039 0.715887963772
vn 0.584368646145 -0.382122606039 0.715887963772
vn 0.734950065613 -0.348118931055 0.581946372986
vn 0.608090043068 -0.369602084160 0.702581524849
vn 0.507290720940 -0.393359154463 0.766762495041
vn 0.445235937834 -0.409279704094 0.796401262283
vn 0.456597715616 -0.412492811680 0.788269102573
vn 0.456597715616 -0.412492811680 0.788269102573
vn 0.584368646145 -0.382122606039 0.715887963772
vn 0.507290720940 -0.393359154463 0.766762495041
# 30 vertex normals

vt 0.172000527382 0.444496572018 0.000000000000
vt 0.532240331173 0.465290009975 0.000000000000
vt 0.029597215354 0.582752406597 0.000000000000
vt 0.029667764902 0.480384379625 0.000000000000
vt 0.570518612862 0.572833836079 0.000000000000
vt 0.071794539690 0.698582351208 0.000000000000
vt 0.601830661297 0.691408395767 0.000000000000
vt 0.177892565727 0.798300266266 0.000000000000
vt 0.640115678310 0.808224797249 0.000000000000
vt 0.311817348003 0.891002118587 0.000000000000
vt 0.662200212479 0.911505401134 0.000000000000
vt 0.508752226830 0.950195789337 0.000000000000
# 12 texture coords

g wing_top
f 1/1/1 2/2/2 8/3/3 
f 8/3/4 7/4/5 1/1/6 
f 2/2/7 3/5/8 9/6/9 
f 9/6/10 8/3/11 2/2/12 
f 3/5/13 4/7/14 10/8/15 
f 10/8/16 9/6/17 3/5/18 
f 4/7/19 5/9/20 11/10/21 
f 11/10/22 10/8/23 4/7/24 
f 5/9/25 6/11/26 12/12/27 
f 12/12/28 11/10/29 5/9/30 
# 10 faces

#
# object wing_bottom
#

v  -0.472187757492 -0.940978407860 0.041685640812
v  -0.362314105034 -0.911859989166 -0.023906558752
v  -0.264571547508 -0.690951168537 -0.074378341436
v  -0.129113495350 -0.644021213055 -0.180188298225
v  -0.041810512543 -0.079937443137 -0.108128190041
v  -0.534266054630 -0.263255894184 0.211987853050
v  -0.441927909851 -0.024634450674 0.201265692711
v  -0.314192533493 0.004303887486 0.119239091873
v  -0.173877254128 0.042926654220 0.016849696636
v  -0.040096580982 0.065623566508 -0.050953924656
# 10 vertices

vn 0.535483419895 -0.162027433515 0.828857481480
vn 0.576202750206 -0.158595174551 0.801771819592
vn 0.549716353416 -0.158255070448 0.820223927498
vn 0.549716353416 -0.158255070448 0.820223927498
vn 0.519251585007 -0.163238018751 0.838886857033
vn 0.535483419895 -0.162027433515 0.828857481480
vn 0.576202750206 -0.158595174551 0.801771819592
vn 0.673434972763 -0.156441777945 0.722503542900
vn 0.592498302460 -0.163682729006 0.788767278194
vn 0.592498302460 -0.163682729006 0.788767278194
vn 0.549716353416 -0.158255070448 0.820223927498
vn 0.576202750206 -0.158595174551 0.801771819592
vn 0.673434972763 -0.156441777945 0.722503542900
vn 0.633358001709 -0.178438901901 0.753005504608
vn 0.546052157879 -0.193793162704 0.815028369427
vn 0.546052157879 -0.193793162704 0.815028369427
vn 0.592498302460 -0.163682729006 0.788767278194
vn 0.673434972763 -0.156441777945 0.722503542900
vn 0.633358001709 -0.178438901901 0.753005504608
vn 0.863505780697 -0.193159639835 0.465883165598
vn 0.534450173378 -0.215856924653 0.817171216011
vn 0.534450173378 -0.215856924653 0.817171216011
vn 0.546052157879 -0.193793162704 0.815028369427
vn 0.633358001709 -0.178438901901 0.753005504608
# 24 vertex normals

vt 0.961491942406 0.201067015529 0.000000000000
vt 0.926442384720 0.291900604963 0.000000000000
vt 0.281795173883 0.055390074849 0.000000000000
vt 0.469241410494 0.020468384027 0.000000000000
vt 0.751629769802 0.350132197142 0.000000000000
vt 0.244707003236 0.164150431752 0.000000000000
vt 0.700475394726 0.472647666931 0.000000000000
vt 0.199021831155 0.288672387600 0.000000000000
vt 0.268634766340 0.438634812832 0.000000000000
vt 0.158788844943 0.398334026337 0.000000000000
# 10 texture coords

g wing_bottom
f 13/13/31 14/14/32 19/15/33 
f 19/15/34 18/16/35 13/13/36 
f 14/14/37 15/17/38 20/18/39 
f 20/18/40 19/15/41 14/14/42 
f 15/17/43 16/19/44 21/20/45 
f 21/20/46 20/18/47 15/17/48 
f 16/19/49 17/21/50 22/22/51 
f 22/22/52 21/20/53 16/19/54 
# 8 faces

#
# object body
#

#
# object wing_top001
#

v  0.576015830040 0.142029404640 0.686181366444
v  0.519256532192 -0.153639495373 0.314893066883
v  0.411130189896 -0.099286198616 0.184538856149
v  0.280815064907 -0.037433743477 0.094753697515
v  0.142231702805 0.000186800957 0.007435560226
v  0.041073203087 0.039304286242 -0.029015168548
v  0.538779914379 0.290719896555 0.808868587017
v  0.503321826458 0.386165916920 0.702370941639
v  0.423543184996 0.451110273600 0.557286918163
v  0.317435353994 0.436284810305 0.384876072407
v  0.178609073162 0.359938502312 0.217743650079
v  0.039663672447 0.220911279321 0.063526675105
# 12 vertices

vn -0.908257365227 -0.290416508913 0.301209360361
vn -0.819827020168 -0.320251166821 0.474681913853
vn -0.917333722115 -0.289673030376 0.273109078407
vn -0.917333722115 -0.289673030376 0.273109078407
vn -0.955622851849 -0.288498818874 0.059611707926
vn -0.908257365227 -0.290416508913 0.301209360361
vn -0.819827020168 -0.320251166821 0.474681913853
vn -0.729257702827 -0.348213136196 0.589008450508
vn -0.846689641476 -0.307761937380 0.434049904346
vn -0.846689641476 -0.307761937380 0.434049904346
vn -0.917333722115 -0.289673030376 0.273109078407
vn -0.819827020168 -0.320251166821 0.474681913853
vn -0.729257702827 -0.348213136196 0.589008450508
vn -0.608090043068 -0.369602024555 0.702581644058
vn -0.734950065613 -0.348118871450 0.581946492195
vn -0.734950065613 -0.348118871450 0.581946492195
vn -0.846689641476 -0.307761937380 0.434049904346
vn -0.729257702827 -0.348213136196 0.589008450508
vn -0.608090043068 -0.369602024555 0.702581644058
vn -0.507290720940 -0.393359124660 0.766762554646
vn -0.584368646145 -0.382122576237 0.715888023376
vn -0.584368646145 -0.382122576237 0.715888023376
vn -0.734950065613 -0.348118871450 0.581946492195
vn -0.608090043068 -0.369602024555 0.702581644058
vn -0.507290720940 -0.393359124660 0.766762554646
vn -0.445235937834 -0.409279644489 0.796401321888
vn -0.456597715616 -0.412492752075 0.788269162178
vn -0.456597715616 -0.412492752075 0.788269162178
vn -0.584368646145 -0.382122576237 0.715888023376
vn -0.507290720940 -0.393359124660 0.766762554646
# 30 vertex normals

vt 0.172000527382 0.444496572018 0.000000000000
vt 0.532240331173 0.465290009975 0.000000000000
vt 0.029597215354 0.582752406597 0.000000000000
vt 0.029667764902 0.480384379625 0.000000000000
vt 0.570518612862 0.572833836079 0.000000000000
vt 0.071794539690 0.698582351208 0.000000000000
vt 0.601830661297 0.691408395767 0.000000000000
vt 0.177892565727 0.798300266266 0.000000000000
vt 0.640115678310 0.808224797249 0.000000000000
vt 0.311817348003 0.891002118587 0.000000000000
vt 0.662200212479 0.911505401134 0.000000000000
vt 0.508752226830 0.950195789337 0.000000000000
# 12 texture coords

g wing_top001
f 30/25/57 24/24/56 23/23/55 
f 23/23/60 29/26/59 30/25/58 
f 31/28/63 25/27/62 24/24/61 
f 24/24/66 30/25/65 31/28/64 
f 32/30/69 26/29/68 25/27/67 
f 25/27/72 31/28/71 32/30/70 
f 33/32/75 27/31/74 26/29/73 
f 26/29/78 32/30/77 33/32/76 
f 34/34/81 28/33/80 27/31/79 
f 27/31/84 33/32/83 34/34/82 
# 10 faces

#
# object wing_bottom001
#

v  0.472187757492 -0.940978407860 0.041685760021
v  0.362314105034 -0.911859989166 -0.023906439543
v  0.264571547508 -0.690951168537 -0.074378281832
v  0.129113495350 -0.644021272659 -0.180188208818
v  0.041810512543 -0.079937428236 -0.108128160238
v  0.534266054630 -0.263255894184 0.211987882853
v  0.441927909851 -0.024634405971 0.201265722513
v  0.314192533493 0.004303932190 0.119239121675
v  0.173877254128 0.042926684022 0.016849726439
v  0.040096580982 0.065623596311 -0.050953894854
# 10 vertices

vn -0.535483419895 -0.162027329206 0.828857481480
vn -0.576202750206 -0.158595114946 0.801771879196
vn -0.549716353416 -0.158254995942 0.820223987103
vn -0.549716353416 -0.158254995942 0.820223987103
vn -0.519251585007 -0.163237914443 0.838886916637
vn -0.535483419895 -0.162027329206 0.828857481480
vn -0.576202750206 -0.158595114946 0.801771879196
vn -0.673434972763 -0.156441718340 0.722503602505
vn -0.592498302460 -0.163682669401 0.788767337799
vn -0.592498302460 -0.163682669401 0.788767337799
vn -0.549716353416 -0.158254995942 0.820223987103
vn -0.576202750206 -0.158595114946 0.801771879196
vn -0.673434972763 -0.156441718340 0.722503602505
vn -0.633358001709 -0.178438827395 0.753005504608
vn -0.546052157879 -0.193793088198 0.815028369427
vn -0.546052157879 -0.193793088198 0.815028369427
vn -0.592498302460 -0.163682669401 0.788767337799
vn -0.673434972763 -0.156441718340 0.722503602505
vn -0.633358001709 -0.178438827395 0.753005504608
vn -0.863505780697 -0.193159610033 0.465883195400
vn -0.534450173378 -0.215856835246 0.817171275616
vn -0.534450173378 -0.215856835246 0.817171275616
vn -0.546052157879 -0.193793088198 0.815028369427
vn -0.633358001709 -0.178438827395 0.753005504608
# 24 vertex normals

vt 0.961491942406 0.201067015529 0.000000000000
vt 0.926442384720 0.291900604963 0.000000000000
vt 0.281795173883 0.055390074849 0.000000000000
vt 0.469241410494 0.020468384027 0.000000000000
vt 0.751629769802 0.350132197142 0.000000000000
vt 0.244707003236 0.164150431752 0.000000000000
vt 0.700475394726 0.472647666931 0.000000000000
vt 0.199021831155 0.288672387600 0.000000000000
vt 0.268634766340 0.438634812832 0.000000000000
vt 0.158788844943 0.398334026337 0.000000000000
# 10 texture coords

g wing_bottom001
f 41/37/87 36/36/86 35/35/85 
f 35/35/90 40/38/89 41/37/88 
f 42/40/93 37/39/92 36/36/91 
f 36/36/96 41/37/95 42/40/94 
f 43/42/99 38/41/98 37/39/97 
f 37/39/102 42/40/101 43/42/100 
f 44/44/105 39/43/104 38/41/103 
f 38/41/108 43/42/107 44/44/106 
# 8 faces

